/* XPM */
static char *result[] = {
/* columns rows colors chars-per-pixel */
"50 50 19 1 ",
"  c #640000",
". c #042873",
"X c gray34",
"o c #BF0000",
"O c #FE0000",
"+ c red",
"@ c #A87E00",
"# c #B57602",
"$ c #EAAF00",
"% c #FDAB13",
"& c #FFE033",
"* c #0639A4",
"= c #0B49CC",
"- c #0C56F1",
"; c #8A8C97",
": c #C0C0C0",
"> c #CACBD0",
", c #F8F8F8",
"< c None",
/* pixels */
"<<<<<<<<<<<<<<<<<<<<<<<<<<<<<<<<<<<<<<<<<<<<<<<<<<",
"<<<<<<<<<<<<<<<<<<<<<<<<<<<<<<<<<<<<<<<<<<<<<<<<<<",
"<<<<<<<<<<<<<<<<<<<<<<<<<<<<<<<<<<<<<<<<<<<<<<<<<<",
"<<<<<<<<<<<<<<<<<<<<<<<<<<<<<<<<<<<<<<<<<<<<<<<<<<",
"<<<<<<<<<<<<<<<<<<<<<<<<<<<<<<<<<<<<<<<<<<<<<<<<<<",
"<<<<<<<<<<<<<<<<<<<<<<<<<<<<<<<<<<<<<<<<<<<<<<<<<<",
"<<<<<<<<<<<<<<<<<<<<<<<<<<<<<<<<<<<<<<<<<<<<<<<<<<",
"<<<<<<<<<<<<<<<<<<<<<<<<<<<<<<<<<<<<<<<<<<<<<<<<<<",
"<<<<<<<<<<<<<<<<<<<<<<...<<<<<<<<<<<<<<<<<<<<<<<<<",
"<<<<<<<<<<<<<<<<<<<<..===.<<<<<<<<<<<<<<<<<<<<<<<<",
"<<<<<<<<<<<<<<<<<<<.=----=.<<<...<<<<<<<<<<<<<<<<<",
"<<<<<<<<<<<<<<<<<<.*==-----..*=-.<<<<<<<<<<<<<<<<<",
"<<<<<<<<<<<<<<<<<<<...*==---*=-=.<<<<<<<<<<<<<<<<<",
"<<<<<<<<<<<<<<<<<<<......*--===*<<<<<<<<<<<<<<<<<<",
"<<<<<<<<<<<<<<<<<<......*=--==*.<<<<<<<<<<<<<<<<<<",
"<<<<<<<<<<<<<<<<<..**..*=-----.<<<<<<<<<<<<<<<<<<<",
"<<<<<<<<<<<<<<<<..==*..-----=-=.<<<<<<<<<<<<<<<<<<",
"<<<<<<<<<<<<<<<<.===..----==*-=.<<<<<<<<<<<<<<<<<<",
"<<<<<<<<<<<<<<<<.==..---==**=-=.<<<<<<<<<<<<<<<<<<",
"<<<<<<<<<<<<<<<<.....-==...*-=*.#<<<<<<<<<<<<<<<<<",
"<<<<<<<<<<<<<<<<<..........=-=#%#<<<<<<<<<<<<<<<<<",
"<<<<<<<<<<<<<<<<<.*=.***..*-=*%%#<<<<<<<<<<<<<<<<<",
"<<<<<<<<<<<<<<<<.*=*.*=*..==*.##<<<<<<<<<<<<<<<<<<",
"<<<<<<<<<<<<<<<<.=**..=...=*..<<<<<<<<<<<<<<<<<<<<",
"<<<<<<<<<<<<<<<<.....=.=-.=..<<<<<<<<<<<<<<<<<<<<<",
"<<<<<<<<<<<<<<<<<<<<*-*-=**..XX<<<<<<<<<<<<<<<<<<<",
"<<<<<<<<<<<<<<<<<<<.-=--**.X>;;X<<<<<<<<<<<<<<<<<<",
"<<<<<<<<<<<<<<<<<<<.=.-=.**;X,,;X<<<<<<<<<<<<<<<<<",
"<<<<<<<<<<<<<<<<<<<.*.=*.**X>>X,>;<<<<<<<<<<<<<<<<",
"<<<<<<<<<<<<<<<<<<<...*=.***XX>,,><<<<<<<<<<<<<<<<",
"<<<<<<<<<<<<<<<<<<<.<<..**.=X>;>,><<<<<<<<<<<<<<<<",
"<<<<<<<<<<<<<<<<<<@$@*.....=X;X>>;<<<<<<<<<<<<<<<<",
"<<<<<<<<<<<<<<<   X $...<<.=*XX;<<<<<<<<<<<<<<<<<<",
"<<<<<<<<<<<<<<<   ;o*..<<<.*=.<<X;X<<<<<<<<<<<<<<<",
"<<<<<<<<<<<<<<<XXX>o$;,<<<<.=::o+:;<<<<<<<<<<<<<<<",
"<<<<<<<<<<<<<<<XXX>oo;:<<<@&:;,>+oX<<<<<<<<<<<<<<<",
"<<<<<<<<<<<<<<<@@@$&OoX<<<@$$o+,>+ <<<<<<<<<<<<<<<",
"<<<<<<<<<<<<<<<<XXX,&;<<<X  oo:>&o<<<<<<<<<<<<<<<<",
"<<<<<<<<<<<<<<<<XXX>$,;<<XXX;::&><<<<<<<<<<<<<<<<<",
"<<<<<<<<<<<<<<<<@@@@Oo << XXX;X$<<<<<<<<<<<<<<<<<<",
"<<<<<<<<<<<<<<<<<    o>X<<   X<<<<<<<<<<<<<<<<<<<<",
"<<<<<<<<<<<<<<<<<<XXXXXX<<<<<<<<<<<<<<<<<<<<<<<<<<",
"<<<<<<<<<<<<<<<<<<<<<<<<<<<<<<<<<<<<<<<<<<<<<<<<<<",
"<<<<<<<<<<<<<<<<<<<<<<<<<<<<<<<<<<<<<<<<<<<<<<<<<<",
"<<<<<<<<<<<<<<<<<<<<<<<<<<<<<<<<<<<<<<<<<<<<<<<<<<",
"<<<<<<<<<<<<<<<<<<<<<<<<<<<<<<<<<<<<<<<<<<<<<<<<<<",
"<<<<<<<<<<<<<<<<<<<<<<<<<<<<<<<<<<<<<<<<<<<<<<<<<<",
"<<<<<<<<<<<<<<<<<<<<<<<<<<<<<<<<<<<<<<<<<<<<<<<<<<",
"<<<<<<<<<<<<<<<<<<<<<<<<<<<<<<<<<<<<<<<<<<<<<<<<<<",
"<<<<<<<<<<<<<<<<<<<<<<<<<<<<<<<<<<<<<<<<<<<<<<<<<<"
};
