/* XPM */
static char *result[] = {
/* columns rows colors chars-per-pixel */
"50 50 21 1 ",
"  c black",
". c #282028",
"X c #400000",
"o c #700000",
"O c #383040",
"+ c #400168",
"@ c #484868",
"# c #900000",
"$ c #C00010",
"% c #E00000",
"& c #E82858",
"* c #E09060",
"= c #587090",
"- c #900188",
"; c #80A0B0",
": c #98C0C8",
"> c #B0D8D8",
", c #F0D0C0",
"< c #C8E8E0",
"1 c gray94",
"2 c None",
/* pixels */
"22222222222222222222222222222222222222222222222222",
"22222222222222222222222222222222222222222222222222",
"22222222222222222222222222222222222222222222222222",
"22222222222222222222222222222222222222222222222222",
"22222222222222222222222222222222222222222222222222",
"22222222222222222222222222222222222222222222222222",
"22222222222222222222222222222222222222222222222222",
"22222222222222222222==;;::;;==22222222222222222222",
"222222222222222222=;:::><<>:::;=222222222222222222",
"2222222222222222=;::::><11<>::::;=2222222222222222",
"222222222222222=;:::::><11<>:::::;=222222222222222",
"22222222222222=;;;:::::><<>:::::;;;=22222222222222",
"2222222222222@@@@@@@@@@@@@@@@@@@@@==22222222222222",
"2222222222222===================;:O==2222222222222",
"22222222222::<<<11111<<<:::;;;;;@;:O@@@@@222222222",
"222222222=@@@@@OOOOOOOOO@@@@@@@@==;@=;<<;@@2222222",
"2222222=;:;:<<<1111111<<<:::;;;;;@@=;:11:;=@222222",
"2222222=::;@@@OOOOOOOOOOOO@@@@@@@=@=;:<<:;=@222222",
"222222@=;;=<<11111111111<<<:::;;;@==;;::;;==@22222",
"222222@@=o#######################@@==;;;;==@@22222",
"222222@@=#$%%%%%%%%%%%%%**%%%%%%$@@@======@@@22222",
"222222@@@#$%%%%%%%%%%%%*,,*%%%%%$@O@@@@@@@@O@22222",
"2222222@#$%%%%%%%%%%%%%*,,*%%%%%%#@OO@@@@OO@=22222",
"2222222@#$%%%%%%%%%%%%%%**%%%%%%%$=OOOOOOOO=222222",
"22222222Xo#########################==@@@@==2222222",
"22222222$%***********************%$#o====222222222",
"22222222###$%%%%%%%%%%%%%%%%%%%%%%$##oooo222222222",
"22222222o###$%%%%%%%%%%%%%%%%%%%%$###oooo222222222",
"22222222oo####$%%%%%%%%%%%%%%%%$####ooooo222222222",
"22222222Xooo####$$$$$$$$$$$$$$####ooooooX222222222",
"22222222 O@@@=@==;;;;;===@=@=@@@@@OOOOOO 222222222",
"22222222.           .O@@@@@@O.          .222222222",
"22222222..         .O@@@@@@@@O.        ..222222222",
"222222222O.         .O@@@@@@O.         .O222222222",
"222222222=.           .OOOO.       O@=@@2222222222",
"222222222;O.            ..       O=;:;=@2222222222",
"222222222;;O.                  O=;<:@@@O2222222222",
"222222222=;;O.                O;<<;@=@@22222222222",
"2222222222=;;O..   ++++++++++O;<;O@:=@@22222222222",
"2222222222O=;=OO..  +--&&&&-O=:;O@:=@O@22222222222",
"22222222222O=;==OO...++----+@:;O@=@OO=222222222222",
"22222222222=O@==@@OOO.......=;OOOOOO@;222222222222",
"222222222222=OO@@@@@O@@@@@@@=@=@@@@;:2222222222222",
"2222222222222=OOO=222222222222=;=;:222222222222222",
"22222222222222222222222222222222222222222222222222",
"22222222222222222222222222222222222222222222222222",
"22222222222222222222222222222222222222222222222222",
"22222222222222222222222222222222222222222222222222",
"22222222222222222222222222222222222222222222222222",
"22222222222222222222222222222222222222222222222222"
};
