/* XPM */
static char *result[] = {
/* columns rows colors chars-per-pixel */
"50 50 25 1 ",
"  c black",
". c #282028",
"X c #400000",
"o c #700000",
"O c #383040",
"+ c #400168",
"@ c #484868",
"# c #900000",
"$ c #883800",
"% c #C00010",
"& c #E00000",
"* c #B86800",
"= c #D07810",
"- c #F0B000",
"; c #F0D800",
": c #F0F000",
"> c #E0C030",
", c #E09060",
"< c #587090",
"1 c #80A0B0",
"2 c #98C0C8",
"3 c #B0D8D8",
"4 c #C8E8E0",
"5 c gray94",
"6 c None",
/* pixels */
"66666666666666666666666666666666666666666666666666",
"66666666666666666666666666666666666666666666666666",
"66666666666666666666666666666666666666666666666666",
"66666666666666666666666666666666666666666666666666",
"66666666666666666666666666666666666666666666666666",
"66666666666666666666666666666666666666666666666666",
"66666666666666666666666666666666666666666666666666",
"66666666666666666666<<112211<<66666666666666666666",
"666666666666666666<122234432221<666666666666666666",
"6666666666666666<1222234554322221<6666666666666666",
"666666666666666<122222345543222221<666666666666666",
"66666666666666<11122222344322222111<66666666666666",
"6666666666666 ###X122@@@@@@@@@@@@@@@@6666666666666",
"666666666666 %5&%# 1O21<<<<<<<<<<<<<<<666666666666",
"666666666666 & =&#.O21<@@@@11122455422116666666666",
"666666666666 #:>#XO21@@1441@@OOOOOO@@@@66666666666",
"66666666666554422O21@<125521<@24455442211666666666",
"66666666662221<<.1<<@<124421<@@OOOOO@@@@6666666666",
"6666666666<<@@@.<@@@<<112211<<@4455442211666666666",
"666666666-55;--*$X#@@<<1111<<@@#########o666666666",
"66666666-55;-*$X#&%@@@<<<<<<@@@%&&&&&&&%#666666666",
"6666666655;-*$X#&&%@O@@@@@@@@O@%&&&&&&&%#666666666",
"666666665;;-$X#&&&&<@OO@@@@OO@<%&&&&&&&&%#66666666",
"666666665;-*X#&&&&&#<OOOOOOOO<#&&&&&&&&&%#66666666",
"66666666;-*$o######oX<<@@@@<<Xo#########oX66666666",
"66666666;-$&,,,,,,&&%##<<<<##%&&,,,,,,,,&%66666666",
"66666666-*X%&&&&&&%##oooooooo##%&&&&&&%###66666666",
"66666666-X##%&&&&%###oooooooo###%&&&&%###o66666666",
"66666666*o####%%####oooooooooo####%%####oo66666666",
"66666666Xooo#######oooooooooooo#######oooX66666666",
"666666666 OO@@@<<<<111111111111<<<<@@@OO 666666666",
"666666666.          O@@@@@@@@O          .666666666",
"666666666O         .@@@@@@@@@@.         O666666666",
"66666666613<        O@@@@@@@@O         .6666666666",
"666666661351@        O@<11<@O         .O6666666666",
"66666666@<1<O       @<124421<@        .66666666666",
"66666666@O@O@      O<@O@<<@O@<O      .O66666666666",
"666666666<<@O.     <@<<1221<<@<     .O666666666666",
"6666666666666O..  +O@<124421<@O+  ..O6666666666666",
"66666666666666OO.  @O@<1111<@O@  .OO66666666666666",
"6666666666666666OO.<@O@<<<<@O@<.OO6666666666666666",
"666666666666666666OO1<OOOOOO<1OO666666666666666666",
"6666666666666666666661<@@@@<1666666666666666666666",
"66666666666666666666666111166666666666666666666666",
"66666666666666666666666666666666666666666666666666",
"66666666666666666666666666666666666666666666666666",
"66666666666666666666666666666666666666666666666666",
"66666666666666666666666666666666666666666666666666",
"66666666666666666666666666666666666666666666666666",
"66666666666666666666666666666666666666666666666666"
};
