/* XPM */
static char *result[] = {
/* columns rows colors chars-per-pixel */
"50 50 27 1 ",
"  c black",
". c #282028",
"X c #400000",
"o c #700000",
"O c #383040",
"+ c #400168",
"@ c #484868",
"# c #900000",
"$ c #883800",
"% c #C00010",
"& c #E00000",
"* c #B86800",
"= c #D07810",
"- c #E82858",
"; c #F0B000",
": c #F0D800",
"> c #F0F000",
", c #E0C030",
"< c #E09060",
"1 c #587090",
"2 c #900188",
"3 c #80A0B0",
"4 c #98C0C8",
"5 c #B0D8D8",
"6 c #C8E8E0",
"7 c gray94",
"8 c None",
/* pixels */
"88888888888888888888888888888888888888888888888888",
"88888888888888888888888888888888888888888888888888",
"88888888888888888888888888888888888888888888888888",
"88888888888888888888888888888888888888888888888888",
"88888888888888888888888888888888888888888888888888",
"88888888888888888888888888888888888888888888888888",
"88888888888888888888888888888888888888888888888888",
"88888888888888888888113344331188888888888888888888",
"88888888888888888813444566544431888888888888888888",
"88888888888888881344445677654444318888888888888888",
"88888888888888813444445677654444431888888888888888",
"88888888888888133344444555433333113188888888888888",
"8888888888888@@@@@133343X###  X## @188888888888888",
"888888888888111134O1331 #%&7% #&7% @18888888888888",
"88888888@@@@@643@34O131.#&= & #= &.@18888888888888",
"888888@@36631@@@1134O1@OX#,>#.X,>#O@11@18888888888",
"88888@13477431@43@134O4446667777766444343188888888",
"88888@13466431@O@11113.111334444431111344188888888",
"8888@1133443311@43@@@@1.@@@@11111@@@@@1331@8888888",
"8888@@11333311@@####X;:777:;*#X$*;:77:;o1@@8888888",
"8888@@@111111@@@%&&&#*;:77:*&&##X$;:7:;#1@@8888888",
"8888@O@@@@@@@@O@%&&&#$;:77:&&&&&#X*:7:;#@@@8888888",
"88881@OO@@@@OO@#&&&&&X*;:7:&&&&&&#$:7:;%#@88888888",
"888881OOOOOOOO1%&&&&&#$;:7:&&&&&&#X:7:*%#@88888888",
"88888811@@@@11Xo######o*;::o######o::;o##888888888",
"888888881111o#%&<<<<<<&$;::&<<<<<<&::*&<%888888888",
"88888888oooo##%&&&&&&&&#$;:&&&&&&&#:;%###888888888",
"88888888oooo###%&&&&&&&&#*;&&&&&&&#;*###o888888888",
"88888888ooooo####%&&&&&&&#;&&&&&&&#;###oo888888888",
"88888888Xoooooo####%%%%%%%%%%%%%%####oooX888888888",
"88888888 OOOOOO@@@@@1@1@1113333311@1@@@O 888888888",
"88888888.           .O@@@@@@O.          .888888888",
"88888888..         .O@@@@@@@@O.        ..888888888",
"88888888O.          .O153@@@O.     153.O8888888888",
"888888888@@1@O       @3753O.      @375318888888888",
"888888888@13431O     O131@        O131@38888888888",
"888888888O@@@4631O   @O@O@        @O@O@38888888888",
"8888888888@@1@3663O   @11          @11318888888888",
"8888888888@@14@O363O+++++++++++  ..O33188888888888",
"8888888888@O@14@O341O22----22+ ..OO131O88888888888",
"888888888881OO@1@O34@++2222+...OO1131O888888888888",
"888888888883@OOOOOO31.......OOO@@11@O1888888888888",
"88888888888843@@@@1@1@@@@@@@O@@@@@OO18888888888888",
"88888888888888431318888888888881OOO188888888888888",
"88888888888888888888888888888888888888888888888888",
"88888888888888888888888888888888888888888888888888",
"88888888888888888888888888888888888888888888888888",
"88888888888888888888888888888888888888888888888888",
"88888888888888888888888888888888888888888888888888",
"88888888888888888888888888888888888888888888888888"
};
