/* XPM */
static char *result[] = {
/* columns rows colors chars-per-pixel */
"50 50 217 2 ",
"   c #080401",
".  c #291501",
"X  c #2F2109",
"o  c #012437",
"O  c #5F0101",
"+  c #432500",
"@  c #593030",
"#  c #764C07",
"$  c #5E4D2D",
"%  c #586638",
"&  c #7D6030",
"*  c #01054A",
"=  c #011E6D",
"-  c #021865",
";  c #011E71",
":  c #02246D",
">  c #052467",
",  c #032572",
"<  c #042874",
"1  c #042A7B",
"2  c #072A76",
"3  c #163475",
"4  c #14306D",
"5  c #253B67",
"6  c #293554",
"7  c #31415C",
"8  c #2A427A",
"9  c #39486C",
"0  c #4A4757",
"q  c #4C5456",
"w  c #555555",
"e  c #5B5C5C",
"r  c #555556",
"t  c #5F584E",
"y  c #675859",
"u  c #6D524D",
"i  c #5F605E",
"p  c #696B5D",
"a  c #5C5F6A",
"s  c #4D5977",
"d  c #7A5D70",
"f  c #5B6367",
"g  c #5D6475",
"h  c #636461",
"j  c #6B6968",
"k  c #686A73",
"l  c #6C7275",
"z  c #727275",
"x  c #767779",
"c  c #860100",
"v  c #9E3B00",
"b  c #942D30",
"n  c #D80102",
"m  c #C20303",
"M  c #E40404",
"N  c #FC0202",
"B  c #EF1719",
"V  c #F92427",
"C  c #D03325",
"Z  c #8E5501",
"A  c #99771B",
"S  c #9E6906",
"D  c #A76A07",
"F  c #B17307",
"G  c #866837",
"H  c #967437",
"J  c #A27B36",
"K  c #AE732D",
"L  c #DA4501",
"P  c #FE5907",
"I  c #C77A00",
"U  c #B65056",
"Y  c #807A76",
"T  c #DD7776",
"R  c #E77477",
"E  c #E95559",
"W  c #7AAE05",
"Q  c #31C917",
"!  c #27954C",
"~  c #BE8011",
"^  c #AF8233",
"/  c #B2883D",
"(  c #D48502",
")  c #DC9617",
"_  c #F49C02",
"`  c #EF9602",
"'  c #D9B207",
"]  c #FEAD04",
"[  c #FEB406",
"{  c #F7BA06",
"}  c #F1A51A",
"|  c #C58D2B",
" . c #F7B739",
".. c #F0AF27",
"X. c #FECC1B",
"o. c #FFC90A",
"O. c #FFCB3C",
"+. c #FEC13B",
"@. c #FDC72E",
"#. c #8C8378",
"$. c #A08B61",
"%. c #A9A171",
"&. c #A78A58",
"*. c #DBA74B",
"=. c #EBBE5A",
"-. c #EEB558",
";. c #CEA862",
":. c #FFD94A",
">. c #FED65C",
",. c #FECB40",
"<. c #F8E756",
"1. c #FEDA78",
"2. c #FBE261",
"3. c #FEE175",
"4. c #001B92",
"5. c #01268A",
"6. c #032D8B",
"7. c #022986",
"8. c #08338C",
"9. c #012A94",
"0. c #033192",
"q. c #04359C",
"w. c #143986",
"e. c #022EA9",
"r. c #0234A3",
"t. c #0539A8",
"y. c #012CB8",
"u. c #053CB4",
"i. c #033EBB",
"p. c #0135B8",
"a. c #293696",
"s. c #19459F",
"d. c #3A5285",
"f. c #2F4D8D",
"g. c #0842B9",
"h. c #2F58B1",
"j. c #3C63BB",
"k. c #445E8D",
"l. c #4C6391",
"z. c #7D7F87",
"x. c #69718D",
"c. c #5672B0",
"v. c #697EAA",
"b. c #0139C9",
"n. c #013CD3",
"m. c #013BD9",
"M. c #002DC4",
"N. c #003CED",
"B. c #0643C4",
"V. c #0844C4",
"C. c #0444CC",
"Z. c #0848CB",
"A. c #0345D3",
"S. c #094AD3",
"D. c #054ADC",
"F. c #0A4EDC",
"G. c #0446D6",
"H. c #2059C7",
"J. c #054CE4",
"K. c #094FE1",
"L. c #0144EB",
"P. c #0248E8",
"I. c #0A53EC",
"U. c #0B52E5",
"Y. c #1454E8",
"T. c #024DF6",
"R. c #014DFC",
"E. c #0147F1",
"W. c #0553F5",
"Q. c #0A55F4",
"!. c #0352FC",
"~. c #0956F8",
"^. c #0A58F9",
"/. c #376BCC",
"(. c #A26489",
"). c #974C98",
"_. c #7D868E",
"`. c #4E80DB",
"'. c #858488",
"]. c #8C8C93",
"[. c #8B919B",
"{. c #96979A",
"}. c #AB9F89",
"|. c #ADA69A",
" X c #9B9DA6",
".X c #9CA1AB",
"XX c #A2A4AB",
"oX c #ACAAAA",
"OX c #AAADB8",
"+X c #B7B6B9",
"@X c #F8898C",
"#X c #D9B38D",
"$X c #D5C19D",
"%X c #E4DE98",
"&X c #F9E895",
"*X c #D4C1A1",
"=X c #849ACC",
"-X c #B8BBC4",
";X c #A1ACC8",
":X c #C3C2C5",
">X c #CBC6CA",
",X c #CCCED3",
"<X c #C5CDD4",
"1X c #D9DADE",
"2X c #D1D1CD",
"3X c #F2D8D8",
"4X c #DAFBCF",
"5X c #E6E0D6",
"6X c #F4EBCD",
"7X c #CCD6EC",
"8X c #D7D9E4",
"9X c #DAE0E2",
"0X c #ECECEC",
"qX c #FDFDFD",
"wX c #F5F4F5",
"eX c #F1F7F2",
"rX c None",
/* pixels */
"rXrXrXrXrXrXrXrXrXrXrXrXrXrXrXrXrXrXrXrXrXrXrXrXrXrXrXrXrXrXrXrXrXrXrXrXrXrXrXrXrXrXrXrXrXrXrXrXrXrX",
"rXrXrXrXrXrXrXrXrXrXrXrXrXrXrXrXrXrXrXrXrXrXrXrXrXrXrXrXrXrXrXrXrXrXrXrXrXrXrXrXrXrXrXrXrXrXrXrXrXrX",
"rXrXrXrXrXrXrXrXrXrXrXrXrXrXrXrXrXrXrXrXrXrXrXrXrXrXrXrXrXrXrXrXrXrXrXrXrXrXrXrXrXrXrXrXrXrXrXrXrXrX",
"rXrXrXrXrXrXrXrXrXrXrXrXrXrXrXrXrXrXrXrXrXrXrXrXrXrXrXrXrXrXrXrXrXrXrXrXrXrXrXrXrXrXrXrXrXrXrXrXrXrX",
"rXrXrXrXrXrXrXrXrXrXrXrXrXrXrXrXrXrXrXrXrXrXrX< : < < , , rXrXrXrXrXrXrXrXrXrXrXrXrXrXrXrXrXrXrXrXrX",
"rXrXrXrXrXrXrXrXrXrXrXrXrXrXrXrXrXrXrXrXrXrX8.0.0.8.0.6.8.rXrXrXrXrXrXrXrXrXrXrXrXrXrXrXrXrXrXrXrXrX",
"rXrXrXrXrXrXrXrXrXrXrXrXrXrXrXrXrXrXrX1 1 1 t.I.Q.Q.Q.K.V.q.< rX< < 4 4 < rXrXrXrXrXrXrXrXrXrXrXrXrX",
"rXrXrXrXrXrXrXrXrXrXrXrXrXrXrXrXrX< 1 K.I.I.g.0.^.Q.Q.Q.Q.J.B.t.q.7.t ^ < rXrXrXrXrXrXrXrXrXrXrXrXrX",
"rXrXrXrXrXrXrXrXrXrXrXrXrXrXrXrXt.S.S.Q.F.B.g J 0.S.W.Q.~.W.T.K.C.t.p | < rXrXrXrXrXrXrXrXrXrXrXrXrX",
"rXrXrXrXrXrXrXrXrXrXrXrXrXrXrXt.S.Q.F.V.Z.Z.Y [ $.8.K.Q.~.~.~.~.I.D.f.y rXrXrXrXrXrXrXrXrXrXrXrXrXrX",
"rXrXrXrXrXrXrXrXrXrXrXrXrXrX> g.U.F.u.r.B.A.x o.>.3 Z.W.!.!.!.!.!.~.Z.0.rXrXrXrXrXrXrXrXrXrXrXrXrXrX",
"rXrXrXrXrXrXrXrXrXrXrXrXrX, : q.g.g.u.u.B.u.k ) ;.t.B.P.!.!.!.!.!.!.P.g.< rXrXrXrXrXrXrXrXrXrXrXrXrX",
"rXrXrXrXrXrXrXrXrXrXrXrXrXrXrX1 8.g.Z.S.G.G.b.9.; b.A.b.L.R.R.!.!.!.P.g.< rXrXrXrXrXrXrXrXrXrXrXrXrX",
"rXrXrXrXrXrXrXrXrXrXrXrXrXrX: g.I.I.Q.Q.W.!.W.J.b.R.G.b.P.R.R.R.R.L.j.x.: rXrXrXrXrXrXrXrXrXrXrXrXrX",
"rXrXrXrXrXrXrXrXrXrXrXrXrX: V.I.^.Q.D.~.!.!.R.T.n.v.7X;Xj.L.R.R.R.m.c..X: rXrXrXrXrXrXrXrXrXrXrXrXrX",
"rXrXrXrXrXrXrXrXrXrXrXrX1 g.I.U.K.D.Z.D.R.!.R.R.G.+XqXwX=XM.b.L.N.e.c.OX= rXrXrXrXrXrXrXrXrXrXrXrXrX",
"rXrXrXrXrXrXrXrXrXrXrXrX1 I.I.D.Z.i.i.i.J.T.R.N.n.1XqXqX7Xh.4.n.M.- s -X; rXrXrXrXrXrXrXrXrXrXrXrXrX",
"rXrXrXrXrXrXrXrXrXrXrXrXq.I.V.u.t.0.r.e.n.T.E.m.H.1XqXqXqX-X* M.y.o % $XrXrXrXrXrXrXrXrXrXrXrXrXrXrX",
"rXrXrXrXrXrXrXrXrXrX< 8.U.Z.7.> = 1 r.A.T.R.E.h.}.5XqXqXqX2X  r.p.! W I rXrXrXrXrXrXrXrXrXrXrXrXrXrX",
"rXrXrXrXrXrXrXrXrXrX< < 2 < : 7.t.C.A.A.T.N.s I [ 2.6XqXqX4XQ eX8X=.[ ] rXrXrXrXrXrXrXrXrXrXrXrXrXrX",
"rXrXrXrXrXrXrXrXrXrX< , rXrX: q.C.D.W.W.J.A.k ] :.2.1.>.O.@.' O.$ X # ( rXrXrXrXrXrXrXrXrXrXrXrXrXrX",
"rXrXrXrXrXrXrXrXrXrXrXrXrX: q.B.A.D.J.b.t.9.r ` X.X.>.:.O.O.O.{ F .   + rXrXrXrXrXrXrXrXrXrXrXrXrXrX",
"rXrXrXrXrXrXrXrXrXrXrXrXrX: g.G.C.i.r.9.7.7.0 K J ` ..+.O.+.O.[ ] # . rXrXrXrXrXrXrXrXrXrXrXrXrXrXrX",
"rXrXrXrXrXrXrXrXrXrXrXrXrX: g.B.t.5.= = 3 8 d (.a.G G ^ | ) ] ] ~ D S rXrXrXrXrXrXrXrXrXrXrXrXrXrXrX",
"rXrXrXrXrXrXrXrXrXrXrXrXrX: u.9.: : rX> # (  .#X).Y.Y.F.e.6 _ Z #.k q rXrXrXrXrXrXrXrXrXrXrXrXrXrXrX",
"rXrXrXrXrXrXrXrXrXrXrXrXrX: , rXrXrX- # =.3.|.F.Y.A } } G 9 1._ $X'.k z.r rXrXrXrXrXrXrXrXrXrXrXrXrX",
"rXrXrXrXrXrXrXrXrXrXrXrXrX, rXrXrXrX0 =.&.h s.L.Q.F -...J w.|.*X2XXX XXXr r rXrXrXrXrXrXrXrXrXrXrXrX",
"rXrXrXrXrXrXrXrXrXrXrXrXrXrXrXrXrXy x #XoXk w.n.T.l.*.} G 3 z XX]..XXX]. X{.z r rXrXrXrXrXrXrXrXrXrX",
"rXrXrXrXrXrXrXrXrXrXrXrXrXrXrXrXh '.:X>XoX'.d.b.!.!./ J 7 4 r x e ].].z ,X,Xx r rXrXrXrXrXrXrXrXrXrX",
"rXrXrXrXrXrXrXrXrXrXrXrXrXrXrXx ].+X5XeX{.x k.t.T.!.j d.r.; rXw w z.z.z ,X-Xx e rXrXrXrXrXrXrXrXrXrX",
"rXrXrXrXrXrXrXrXrXrXrXrXrXrX{.+X0X5Xj :X>X'.5 7.D.T.!.e., rXrXrXw {.{.z :X[.rXrXrXrXrXrXrXrXrXrXrXrX",
"rXrXrXrXrXrXrXrXrXrXrXrXrXr OX0XqXeX:Xj t f.6.5.C.p.5.rXrXrXrXrXrXa e r h rXrXrXrXrXrXrXrXrXrXrXrXrX",
"rXrXrXrXrXrXrXrXrXrXrXrXrXw +X0XwX2XXXOXj 5 5.r.y.L.5.rXrXrXrXrXrXrXrXrXrXrXrXrXrXrXrXrXrXrXrXrXrXrX",
"rXrXrXrXrXrXrXrXrXrXrXrXrXrX.X>X8X+Xz XXj 7 rX9.9.R.e.rXrXrXrXrXrXrXrXrXrXrXrXrXrXrXrXrXrXrXrXrXrXrX",
"rXrXrXrXrXrXrXrXrXrXrXrXrXrXrX{.XX{.r z h rXrXA p U.M.w.rXrXrXrXrXrXrXrXrXrXrXrXrXrXrXrXrXrXrXrXrXrX",
"rXrXrXrXrXrXrXrXrXrXrXrXrXrXrXrXk _.w w rXrXD ' <.`./.l.j rXrXrXrXrXrXrXrXrXrXrXrXrXrXrXrXrXrXrXrXrX",
"rXrXrXrXrXrXrXrXrXrXrXrXrXrXrXrXrXrXrXrXrXO v ..9XqXqX-X(.rXrXrXrXrXrXrXrXrXrXrXrXrXrXrXrXrXrXrXrXrX",
"rXrXrXrXrXrXrXrXrXrXrXrXrXrXrXrXrXrXrXrXO O c C 7X.Xd @ O rXrXrXrXrXrXrXrXrXrXrXrXrXrXrXrXrXrXrXrXrX",
"rXrXrXrXrXrXrXrXrXrXrXrXrXrXrXrXrXrXrXrX$ y b n V B M ;.+X[.rXrXrXrXrXrXrXrXrXrXrXrXrXrXrXrXrXrXrXrX",
"rXrXrXrXrXrXrXrXrXrXrXrXrXrXrXrXrXrXrXrXw f d U T R @X3XwX<X[.rXrXrXrXrXrXrXrXrXrXrXrXrXrXrXrXrXrXrX",
"rXrXrXrXrXrXrXrXrXrXrXrXrXrXrXrXrXrXrXrXrXq f _.+X%X&X6X3X@XU rXrXrXrXrXrXrXrXrXrXrXrXrXrXrXrXrXrXrX",
"rXrXrXrXrXrXrXrXrXrXrXrXrXrXrXrXrXrXrXrXrXrXq p %.<.X.-.E N N c rXrXrXrXrXrXrXrXrXrXrXrXrXrXrXrXrXrX",
"rXrXrXrXrXrXrXrXrXrXrXrXrXrXrXrXrXrXrXrXrXrXrXrX{ 2X<.P M n N m rXrXrXrXrXrXrXrXrXrXrXrXrXrXrXrXrXrX",
"rXrXrXrXrXrXrXrXrXrXrXrXrXrXrXrXrXrXrXrXrXrXrXrXrXrX{ L M V >X].rXrXrXrXrXrXrXrXrXrXrXrXrXrXrXrXrXrX",
"rXrXrXrXrXrXrXrXrXrXrXrXrXrXrXrXrXrXrXrXrXrXrXrXrXrXrXrXb u k f rXrXrXrXrXrXrXrXrXrXrXrXrXrXrXrXrXrX",
"rXrXrXrXrXrXrXrXrXrXrXrXrXrXrXrXrXrXrXrXrXrXrXrXrXrXrXrXrXq q q rXrXrXrXrXrXrXrXrXrXrXrXrXrXrXrXrXrX",
"rXrXrXrXrXrXrXrXrXrXrXrXrXrXrXrXrXrXrXrXrXrXrXrXrXrXrXrXrXrXrXrXrXrXrXrXrXrXrXrXrXrXrXrXrXrXrXrXrXrX",
"rXrXrXrXrXrXrXrXrXrXrXrXrXrXrXrXrXrXrXrXrXrXrXrXrXrXrXrXrXrXrXrXrXrXrXrXrXrXrXrXrXrXrXrXrXrXrXrXrXrX",
"rXrXrXrXrXrXrXrXrXrXrXrXrXrXrXrXrXrXrXrXrXrXrXrXrXrXrXrXrXrXrXrXrXrXrXrXrXrXrXrXrXrXrXrXrXrXrXrXrXrX",
"rXrXrXrXrXrXrXrXrXrXrXrXrXrXrXrXrXrXrXrXrXrXrXrXrXrXrXrXrXrXrXrXrXrXrXrXrXrXrXrXrXrXrXrXrXrXrXrXrXrX"
};
