/* XPM */
static char *_913a52164a547faabf9eea68d7e7c4c7lmsbDs9GSCPr1Br[] = {
/* columns rows colors chars-per-pixel */
"50 50 122 2 ",
"   c None",
".  c #010001",
"X  c #0B0105",
"o  c #060708",
"O  c #130301",
"+  c #1C0301",
"@  c #15020A",
"#  c #1B020D",
"$  c #160908",
"%  c #0C1010",
"&  c #121717",
"*  c #181110",
"=  c #131A1B",
"-  c #1E1919",
";  c #230401",
":  c #270A06",
">  c #230C09",
",  c #330603",
"<  c #3E0702",
"1  c #260312",
"2  c #2F0417",
"3  c #300416",
"4  c #3A0610",
"5  c #35051A",
"6  c #3C051D",
"7  c #171F21",
"8  c #1D2729",
"9  c #242121",
"0  c #263437",
"q  c #273439",
"w  c #2A393C",
"e  c #420802",
"r  c #4C0902",
"t  c #550A03",
"y  c #590B02",
"u  c #41051F",
"i  c #5D091A",
"p  c #610C02",
"a  c #6C0D02",
"s  c #720E02",
"d  c #7B0F03",
"f  c #450622",
"g  c #4D0725",
"h  c #500726",
"j  c #550729",
"k  c #59072B",
"l  c #5C082C",
"z  c #61082F",
"x  c #740C21",
"c  c #650931",
"v  c #6C0934",
"b  c #720A37",
"n  c #7C0C32",
"m  c #740A38",
"M  c #324347",
"N  c #34464A",
"B  c #35484C",
"V  c #394D52",
"C  c #3F555A",
"Z  c #425156",
"A  c #40555B",
"S  c #535B5C",
"D  c #5E605F",
"F  c #475F65",
"G  c #496167",
"H  c #4A6369",
"J  c #5F6161",
"K  c #516C73",
"L  c #58767E",
"P  c #851003",
"I  c #8C1103",
"U  c #931203",
"Y  c #9E1303",
"T  c #8D1010",
"R  c #97101F",
"E  c #9D121B",
"W  c #A51403",
"Q  c #AD1504",
"!  c #AD140F",
"~  c #B11604",
"^  c #BD1704",
"/  c #B4160A",
"(  c #A51315",
")  c #AA1412",
"_  c #8C0F22",
"`  c #830D2D",
"'  c #8A0E29",
"]  c #910F23",
"[  c #951020",
"{  c #62848D",
"}  c #6A8D99",
"|  c #6D919C",
" . c #7196A3",
".. c #7DA6B3",
"X. c #7EA8B6",
"o. c #7FA9B8",
"O. c #82AEBB",
"+. c #89B7C6",
"@. c #8FBFCF",
"#. c #94C6D6",
"$. c #95C7D8",
"%. c #96C8D9",
"&. c #9BCBDB",
"*. c #A1CEDC",
"=. c #A0CEDC",
"-. c #A3CFDD",
";. c #A3CFDE",
":. c #A7D1DE",
">. c #A7D2DF",
",. c #BBDCE5",
"<. c #BCDCE6",
"1. c #C5E2E9",
"2. c #C6E3EA",
"3. c #D2E8EC",
"4. c #D6EBEF",
"5. c #DAECEF",
"6. c #E3F1F3",
"7. c #E5F1F2",
"8. c #F1FAF8",
"9. c #F4F8FA",
"0. c #F6FCFA",
"q. c #F6FCFB",
/* pixels */
"                                                                                                    ",
"                                                                                                    ",
"                                                                                                    ",
"                                  . . . . . . . . . . . . . . .                                     ",
"                              . . . e d d d d d d d d d d t ; . .                                   ",
"                            . . . e I ^ ^ ^ ^ ^ ^ ^ ^ ^ ^ Y a < . .                                 ",
"                          . X + , Y ^ ^ ^ ^ ^ ^ ^ ^ ^ ^ ^ ^ ~ U ; .                                 ",
"                          . ; a I ~ ^ ^ ^ ^ ^ ^ ^ ^ ^ ^ ^ ^ ^ ~ P O                                 ",
"                        . + y Y ~ ^ ^ ^ ^ ^ ^ ^ ^ ^ ^ ^ ^ ^ ^ ^ Q + .                               ",
"                        . e U Q ~ ~ Q Q ~ ~ ~ ~ ~ ~ ~ ^ ^ ^ ^ ^ ~ + . .                             ",
"                        . ; r r r r r r r r r r r r y ~ ^ ^ ^ ^ ^ s ; .                             ",
"                      . q V Z S D J J S V V V V V q O a W ^ ^ ^ ^ ^ e .                             ",
"                    . 7 | $.>.3.7.0.0.4.:.$.#.$.#.} % . d ~ ^ ^ ^ ^ e X                             ",
"                    o  .#.%.%.=.>.6.0.8.5.*.%.$.$...V . d ~ ^ ^ ^ ^ e .                             ",
"                    o ..#.$.$.%.&.<.2.2.,.%.%.$.O.{ C o d ~ ^ ^ ^ ^ e . . . . .                     ",
"                    o o.$.$.%.$.%.&.=.:.*.#.#.+.| K A o d ~ ^ ^ ^ ^ e O + ; ; X                     ",
"                    o O.#.#.$.#.%.$.#.$.#.#...} L H A o d ~ ^ ^ ^ ^ e , p s a O .                   ",
"                    . } ..O.......X.........{ K H H A . d ~ ^ ^ ^ ^ < r Y ^ ~ t + .                 ",
"                    . V F H H H H H H H H H H H H F V o d ~ ^ ^ ^ ^ < t Y ^ ^ ^ t . .               ",
"                    . . M H H H H H H H H H H H H M o . d ~ ^ ^ ^ ^ e r Y ^ ^ ^ _ f X               ",
"                      . = 8 q A H H H H H H H H M & O s W ~ ^ ^ ^ ^ e r Y ^ ^ R n f X               ",
"                      . : > & w B B B B B B B N 8 $ e W ^ ^ ^ ^ ^ ^ e r T ) ) ` m f X               ",
"                      . y r $ - 9 9 9 9 9 9 9 9 * , I ^ ^ ^ ^ ^ ^ / < 4 x ' ' n m f X               ",
"                      . d P e e e e e e e e e e e a ^ ^ ^ ^ ^ ^ ^ ( , 2 c m m m m f X               ",
"                      . d ^ ^ ^ ^ ^ ^ ^ ^ ^ ^ ^ ^ ^ ^ ^ ^ ^ ^ ^ / n 1 3 c m m m m f X               ",
"                      . d ^ ^ ^ ^ ^ ^ ^ ^ ^ ^ ^ ^ ^ ^ ^ ^ ^ ^ ! n m 1 3 z m m m m f X               ",
"                      . i ( ^ ^ ^ ^ ^ ^ ^ ^ ^ ^ ^ ^ ^ ^ ^ ^ ^ ) m m 1 2 z m m m m f X               ",
"                      . g [ ^ ^ ^ ^ ^ ^ ^ ^ ^ ^ ^ ^ ^ ^ ^ / ) R m m 1 2 z m m m m f X               ",
"                      . h R ^ ^ ^ ^ ^ ^ ^ ^ ^ ^ ^ ^ ^ ^ ^ ) ] ` m m 1 2 z m m m m f X               ",
"                      . h R ^ ^ ^ ^ ^ ^ ^ ^ ^ ^ ^ ^ ^ ^ ^ ) ' m m m 1 5 z m m m m f X               ",
"                      . g R ^ ^ ^ ^ ^ ^ ^ ^ ^ ^ ^ ^ ^ ^ / ( ` m m m 1 2 z m m m m f X               ",
"                      . g R ^ ^ ^ ^ ^ ^ ^ ^ ^ ^ ^ ^ ^ ^ ] ` n m m m 1 2 z m m m m f X               ",
"                      . g ` _ ] [ / ^ ^ ^ ^ ^ ^ ) [ _ [ n m m m m m 1 5 z m m m m f X               ",
"                      . g m m m m [ E E ( E E R ' m m m m m m m m m 1 2 z m m m m f X               ",
"                      . g m m m m m m m m m m m m m m m m m m m m m 1 2 c m m m c 5 X               ",
"                      . g m m m b m m m m m m m m m m m m m m m m m 1 2 l b m b 5 . .               ",
"                      . g m b l l v m m m m m m m m m m m m m m m m 1 1 g k k k 1 .                 ",
"                      . g m z 5 1 l b b b b b v b b m m m m m m m m 1 @ @ 1 # 1 X .                 ",
"                      . g m v g 6 6 5 5 5 5 5 5 5 f m m m m m m m m 1 .                             ",
"                      . g m m m v 6 1 @ . . . . . 1 m m m m m m m m 1 o                             ",
"                      . g m m m m m m f .       . 1 m m m m m m m m 1 .                             ",
"                      . g m m m m m m f .       . 1 m m m m m m m m 1 X                             ",
"                      . 2 l b m m m b f .       . 1 m m m m m m m m 1 .                             ",
"                      . X 6 c b m m v 6 .       . 1 m m m m m m m m 1 .                             ",
"                      . . # f c b m g 1 . .     . 1 m m m m m m m m 1 .                             ",
"                        . . @ 6 j j 1 . .       . # k b m m m m m l # o .                           ",
"                          . . . . . . .         . . X c v v v v c X . . .                           ",
"                            . . . . .             . . X X X X X X . . .                             ",
"                                                  . . . . . . . . . .                               ",
"                                                                                                    "
};
