/* XPM */
static char *cbeeb2de23ce441ef6d6a6c6d40008fbppBadjdC5CvShB4E[] = {
/* columns rows colors chars-per-pixel */
"50 50 122 2 ",
"   c None",
".  c #010001",
"X  c #0B0105",
"o  c #060708",
"O  c #130301",
"+  c #1C0301",
"@  c #15020A",
"#  c #1B020D",
"$  c #160908",
"%  c #0C1010",
"&  c #121717",
"*  c #181110",
"=  c #131A1B",
"-  c #1E1919",
";  c #230401",
":  c #270A06",
">  c #230C09",
",  c #330603",
"<  c #3E0702",
"1  c #260312",
"2  c #2F0417",
"3  c #300416",
"4  c #3A0610",
"5  c #35051A",
"6  c #3C051D",
"7  c #171F21",
"8  c #1D2729",
"9  c #242121",
"0  c #263437",
"q  c #273439",
"w  c #2A393C",
"e  c #420802",
"r  c #4C0902",
"t  c #550A03",
"y  c #590B02",
"u  c #41051F",
"i  c #5D091A",
"p  c #610C02",
"a  c #6C0D02",
"s  c #720E02",
"d  c #7B0F03",
"f  c #450622",
"g  c #4D0725",
"h  c #500726",
"j  c #550729",
"k  c #59072B",
"l  c #5C082C",
"z  c #61082F",
"x  c #740C21",
"c  c #650931",
"v  c #6C0934",
"b  c #720A37",
"n  c #7C0C32",
"m  c #740A38",
"M  c #324347",
"N  c #34464A",
"B  c #35484C",
"V  c #394D52",
"C  c #3F555A",
"Z  c #425156",
"A  c #40555B",
"S  c #535B5C",
"D  c #5E605F",
"F  c #475F65",
"G  c #496167",
"H  c #4A6369",
"J  c #5F6161",
"K  c #516C73",
"L  c #58767E",
"P  c #851003",
"I  c #8C1103",
"U  c #931203",
"Y  c #9E1303",
"T  c #8D1010",
"R  c #97101F",
"E  c #9D121B",
"W  c #A51403",
"Q  c #AD1504",
"!  c #AD140F",
"~  c #B11604",
"^  c #BD1704",
"/  c #B4160A",
"(  c #A51315",
")  c #AA1412",
"_  c #8C0F22",
"`  c #830D2D",
"'  c #8A0E29",
"]  c #910F23",
"[  c #951020",
"{  c #62848D",
"}  c #6A8D99",
"|  c #6D919C",
" . c #7196A3",
".. c #7DA6B3",
"X. c #7EA8B6",
"o. c #7FA9B8",
"O. c #82AEBB",
"+. c #89B7C6",
"@. c #8FBFCF",
"#. c #94C6D6",
"$. c #95C7D8",
"%. c #96C8D9",
"&. c #9BCBDB",
"*. c #A1CEDC",
"=. c #A0CEDC",
"-. c #A3CFDD",
";. c #A3CFDE",
":. c #A7D1DE",
">. c #A7D2DF",
",. c #BBDCE5",
"<. c #BCDCE6",
"1. c #C5E2E9",
"2. c #C6E3EA",
"3. c #D2E8EC",
"4. c #D6EBEF",
"5. c #DAECEF",
"6. c #E3F1F3",
"7. c #E5F1F2",
"8. c #F1FAF8",
"9. c #F4F8FA",
"0. c #F6FCFA",
"q. c #F6FCFB",
/* pixels */
"                                                                                                    ",
"                                                                                                    ",
"                                                                                                    ",
"                                  . . . . . . . . . . . . . . .                                     ",
"                                . . ; t d d d d d d d d d d e . . .                                 ",
"                              . . < a Y ^ ^ ^ ^ ^ ^ ^ ^ ^ ^ U e X . .                               ",
"                              X ; U ~ ^ ^ ^ ^ ^ ^ ^ ^ ^ ^ ^ ^ U , + X .                             ",
"                              O P ~ ^ ^ ^ ^ ^ ^ ^ ^ ^ ^ ^ ^ ^ ~ I a ; .                             ",
"                            . + ~ ^ ^ ^ ^ ^ ^ ^ ^ ^ ^ ^ ^ ^ ^ ^ ^ Y t + .                           ",
"                          . . O ~ ^ ^ ^ ^ ^ ~ ~ ~ ~ ~ Q Q ~ Q ~ ~ W U e .                           ",
"                          X ; s ^ ^ ^ ^ ^ ^ y r r r r r r r r r r r r ; .                           ",
"                          . e ^ ^ ^ ^ ~ W a X 0 V V V V V S J J D S C V 0 .                         ",
"                          X e ^ ^ ^ ^ ~ d . % } $.$.$.$.:.4.q.8.6.3.>.$.| 7 .                       ",
"                          . < ^ ^ ^ ^ ~ d o V ..$.%.%.&.4.8.q.6.>.&.&.$.#. .o                       ",
"                  . . . . X < ^ ^ ^ ^ ~ d o A { O.$.#.&.,.1.2.<.&.&.%.%.#...o                       ",
"                  X ; ; + O < ^ ^ ^ ^ ~ d o A K | +.#.&.&.:.&.:.%.%.%.$.$...o                       ",
"                . + p s p , e ^ ^ ^ ^ ~ d o C H L | ..#.#.#.#.#.$.#.$.$.#.X.o                       ",
"              . + t ~ ^ Y r < ^ ^ ^ ^ ~ d o A G G K { ....................} o                       ",
"            . X t ^ ^ ^ Y r < ^ ^ ^ ^ ~ d o V F H H H H H H H H H H H H F B .                       ",
"            X u _ ^ ^ ^ Y t e ^ ^ ^ ^ ~ d . . N H H H H H H H H H H H H N o .                       ",
"            X f n R ^ ^ W r < ^ ^ ^ ^ ^ W a O = M G H H H H H H H C 0 8 = .                         ",
"            X f m ` ) ) T e e ^ ^ ^ ^ ^ ^ W e O 8 B B B B B B B N w & > : .                         ",
"            X f m n ' ' x 4 < ^ ^ ^ ^ ^ ^ ^ P , * 9 9 9 9 9 9 9 9 - $ r t .                         ",
"            X f m m m m z 2 4 ( ^ ^ ^ ^ ^ ^ ^ a e e e e e e e e e e r P d .                         ",
"            X f m m m m z 2 1 n / ^ ^ ^ ^ ^ ^ ^ ^ ^ ^ ^ ^ ^ ^ ^ ^ ^ ^ ^ d .                         ",
"            X f m m m m z 2 1 m ` ! ^ ^ ^ ^ ^ ^ ^ ^ ^ ^ ^ ^ ^ ^ ^ ^ ^ ^ d .                         ",
"            X f m m m m z 2 1 m m ) ^ ^ ^ ^ ^ ^ ^ ^ ^ ^ ^ ^ ^ ^ ^ ^ ^ ( i .                         ",
"            X f m m m m z 2 1 m m [ ! / ^ ^ ^ ^ ^ ^ ^ ^ ^ ^ ^ ^ ^ ^ / [ j .                         ",
"            X f m m m m c 2 1 m m ` [ ) ^ ^ ^ ^ ^ ^ ^ ^ ^ ^ ^ ^ ^ ^ ^ [ g .                         ",
"            X f m m m m z 2 1 m m m ` ( ^ ^ ^ ^ ^ ^ ^ ^ ^ ^ ^ ^ ^ ^ / [ g .                         ",
"            X f m m m m z 2 1 m m m ' ( ^ ^ ^ ^ ^ ^ ^ ^ ^ ^ ^ ^ ^ ^ ^ [ g .                         ",
"            X f m m m m z 2 2 m m m m ` ( ^ ^ ^ ^ ^ ^ ^ ^ ^ ^ ^ ^ ^ ^ [ g .                         ",
"            X f m m m m z 2 1 m m m m m n ] ] ] ( ^ ^ ^ ^ ^ ^ / [ [ ' ` g .                         ",
"            X f m m m m z 2 1 m m m m m m m m m ' E E E E E ( [ m m m m g .                         ",
"            X 5 c m m m c 3 1 m m m m m m m m m m m m m m m m m m m m m g .                         ",
"            . X 3 m b b z 3 1 m m m m m m m m m m m m m m m m m m m m m g .                         ",
"              . 1 j k k g 1 1 m m m m m m m m m m m m m m m m v k l v m g .                         ",
"              . X 1 1 1 # X 1 m m m m m m m m b b b b v v b b l 1 5 c m g .                         ",
"                          . 1 m m m m m m m m f 5 5 5 5 5 5 5 6 u g c m g .                         ",
"                          . 1 m m m m m m m m 1 . . . . . # 1 5 v m m m g .                         ",
"                          . 2 m m m m m m m m 1 .       . f m m m m m m g .                         ",
"                          . 1 m m m m m m m m 1 .       . f m m m m m m g .                         ",
"                          . 1 m m m m m m m m 1 .       . f m m m m m l 2 .                         ",
"                          . 1 m m m m m m m m 1 .       . 6 v b m b c 6 X .                         ",
"                          . 1 m m m m m m m m 1 .     . . 1 g b m c f @ . .                         ",
"                        . X # l m m m m m m k # .       . . 1 j j u @ . .                           ",
"                        . . . X v v v v v c X . .         . . . . . . .                             ",
"                          . . . X X X X X X . .             . . . . .                               ",
"                            . . . . . . . . . .                                                     ",
"                                                                                                    "
};
