/* XPM */
static char *result[] = {
/* columns rows colors chars-per-pixel */
"50 50 235 2 ",
"   c #010001",
".  c #0C0101",
"X  c #01010C",
"o  c #09090C",
"O  c #140000",
"+  c #130C07",
"@  c #07081A",
"#  c #161717",
"$  c #2C0000",
"%  c #3E0201",
"&  c #310101",
"*  c #291913",
"=  c #1E211D",
"-  c #03032B",
";  c #070927",
":  c #07093A",
">  c #17193D",
",  c #1B2425",
"<  c #212423",
"1  c #272B29",
"2  c #353736",
"3  c #32312F",
"4  c #480303",
"5  c #570100",
"6  c #481911",
"7  c #650303",
"8  c #770103",
"9  c #422616",
"0  c #62093A",
"q  c #503331",
"w  c #6E2B23",
"e  c #510639",
"r  c #3E423F",
"t  c #53523C",
"y  c #111145",
"u  c #13134C",
"i  c #161858",
"p  c #090B51",
"a  c #200953",
"s  c #33334F",
"d  c #171969",
"f  c #181B78",
"g  c #0B1175",
"h  c #311479",
"j  c #2A0F76",
"k  c #26287C",
"l  c #5C0945",
"z  c #7C387C",
"x  c #3E4646",
"c  c #444846",
"v  c #454948",
"b  c #4E5454",
"n  c #525654",
"m  c #585D5C",
"M  c #4D514F",
"N  c #6C4846",
"B  c #745453",
"V  c #5C645D",
"C  c #754A6C",
"Z  c #656767",
"A  c #787877",
"S  c #736F6D",
"D  c #485069",
"F  c #8C0000",
"G  c #840103",
"H  c #930000",
"J  c #990000",
"K  c #8F1512",
"L  c #B60002",
"P  c #9C241B",
"I  c #B53818",
"U  c #AE310C",
"Y  c #902E23",
"T  c #A52B2B",
"R  c #A53C26",
"E  c #B8392D",
"W  c #C70000",
"Q  c #D30000",
"!  c #D90000",
"~  c #CB1518",
"^  c #FD0201",
"/  c #F2110F",
"(  c #CA361A",
")  c #FE2119",
"_  c #E23D32",
"`  c #9C5C3C",
"'  c #AC4E33",
"]  c #B55A39",
"[  c #AA4C31",
"{  c #FC4737",
"}  c #FE513E",
"|  c #C06F3E",
" . c #E45D36",
".. c #942F48",
"X. c #995251",
"o. c #94605F",
"O. c #B46D49",
"+. c #A86C51",
"@. c #85557E",
"#. c #977D7C",
"$. c #8C7573",
"%. c #A96F76",
"&. c #C77956",
"*. c #D77053",
"=. c #FF795F",
"-. c #F95E57",
";. c #7E8175",
":. c #BB866A",
">. c #D1845D",
",. c #D78B5F",
"<. c #F39D5F",
"1. c #FCA34E",
"2. c #DC8267",
"3. c #EA9666",
"4. c #F49968",
"5. c #E19872",
"6. c #F38F71",
"7. c #F8AA7A",
"8. c #1C1D8C",
"9. c #151888",
"0. c #0E1599",
"q. c #1B1D92",
"w. c #141996",
"e. c #100F89",
"r. c #221D8A",
"t. c #211F90",
"y. c #1D2191",
"u. c #22228D",
"i. c #252686",
"p. c #232391",
"a. c #2A2A96",
"s. c #2B2B9B",
"d. c #252798",
"f. c #31319D",
"g. c #393B9A",
"h. c #373683",
"j. c #1B20A2",
"k. c #2C32A7",
"l. c #3435A3",
"z. c #3638A6",
"x. c #3939A6",
"c. c #3B3DAA",
"v. c #363BAA",
"b. c #383BB7",
"n. c #282DA7",
"m. c #42399D",
"M. c #3E40AE",
"N. c #3D43B7",
"B. c #59438F",
"V. c #755D9E",
"C. c #6C528C",
"Z. c #71778F",
"A. c #4541AC",
"S. c #4445B4",
"D. c #4949B6",
"F. c #4C4CBA",
"G. c #4445B8",
"H. c #5354B6",
"J. c #5E64AD",
"K. c #696EAB",
"L. c #644CA6",
"P. c #3C40C0",
"I. c #4E52C7",
"U. c #5455C3",
"Y. c #5B5DCB",
"T. c #5656C7",
"R. c #4E54D2",
"E. c #575BD5",
"W. c #605FCC",
"Q. c #5D60D2",
"!. c #6264D4",
"~. c #6669DB",
"^. c #6C6CDB",
"/. c #6767D7",
"(. c #6F70D4",
"). c #5F65E0",
"_. c #686BE5",
"`. c #6F72E1",
"'. c #7778EA",
"]. c #7C7DF3",
"[. c #7B8082",
"{. c #7F80EF",
"}. c #8A8C8C",
"|. c #828485",
" X c #8D8F97",
".X c #8C9491",
"XX c #9A9C9B",
"oX c #959797",
"OX c #91918F",
"+X c #98A09D",
"@X c #8B94B9",
"#X c #99A5A2",
"$X c #B9BBBA",
"%X c #A5ADAC",
"&X c #B59697",
"*X c #CA9395",
"=X c #F7AC85",
"-X c #F8B788",
";X c #FDBA92",
":X c #FBBA9E",
">X c #FCBEA5",
",X c #FEC493",
"<X c #FEC897",
"1X c #FACB90",
"2X c #FFCAA5",
"3X c #FFDAA7",
"4X c #FED0B4",
"5X c #FDD5B8",
"6X c #FDCFB3",
"7X c #9193D9",
"8X c #A5AECD",
"9X c #8384F5",
"0X c #8587FB",
"qX c #9294FE",
"wX c #9A9CFF",
"eX c #8D94E0",
"rX c #A5AEF9",
"tX c #BED0D2",
"yX c #C2C8C6",
"uX c #CBD3D1",
"iX c #D2DADA",
"pX c #CECFD0",
"aX c #DBE0D7",
"sX c #F7EAD1",
"dX c #D0D4F9",
"fX c #DCE3FA",
"gX c #E8ECE7",
"hX c #F1E9E7",
"jX c #EAF3F1",
"kX c #F5F5F5",
"lX c #FEFEFE",
"zX c #F6F8FB",
"xX c #F5F3E5",
"cX c #FED2D0",
"vX c None",
/* pixels */
"vXvXvXvXvXvXvXvXvXvXvXvXvXvXvXvXvXvXvXvXvXvXvXvXvXvXvXvXvXvXvXvXvXvXvXvXvXvXvXvXvXvXvXvXvXvXvXvXvXvX",
"vXvXvXvXvXvXvXvXvXvXvXD.D.D.D.D.T.`.`.`.`.`.Q.N.S.vXvXvXvXvXvXvXvXvXvXvXvXvXvXvXvXvXvXvXvXvXvXvXvXvX",
"vXvXvXvXvXvXvXvXvXu.a.f.f.S.D.F.F.Y.Y.A.M.Y.~.E.Y.^.F.vXvXvXvXvXvXvXvXvXvXvXvXvXvXvXvXvXvXvXvXvXvXvX",
"vXvXvXvXvXvXvXvXvXu.r.u.t.f.l.l.M.S.S.8.l.I.~.'.9X`.Y.Y.vXvXvXvXvXvXf.f.vXvXvXvXvXvXvXvXvXvXvXvXvXvX",
"vXvXvXvXvXvXvXvXvXvXvXt.t.8.8.8.a.v.x.8.T.L.B.`.qX].].`.Q.H.vXvXvXp.g.D.vXvXvXvXvXvXvXvXvXvXvXvXvXvX",
"vXvXvXvXvXvXvXvXvXvXvXvXvX8.8.8.i.9.9.9.T...K L./.qXwX9X`.^./.D.s.i.f.D.vXvXvXvXvXvXvXvXvXvXvXvXvXvX",
"vXvXvXvXvXvXvXvXvXvXvXvXvXvXr.8.9.8.9.9.v.*X .G e.~.qXwX9X^.^.^.F.a.p.p.vXvXvXvXvXvXvXvXvXvXvXvXvXvX",
"vXvXvXvXvXvXvXvXvXvXvXvXvXvXvX8.8.9.8.9.z.*X1.U 8 r.].wXqX9X^.^./.F.f.a.vXvXvXvXvXvXvXvXvXvXvXvXvXvX",
"vXvXvXvXvXvXvXvXvXvXvXvXvXt.c.M.x.x.z.q.x.%.&.C.z !.dXzXdXqX9X/.^.!.D.x.vXvXvXvXvXvXvXvXvXvXvXvXvXvX",
"vXvXvXvXvXvXvXvXvXvXvXvXvXD.U.Y.Y.T.S.8.x.C.C.Q.0X0X7X8X{.`.qX9X`.^.!.H.vXvXvXvXvXvXvXvXvXvXvXvXvXvX",
"vXvXvXvXvXvXvXvXvXvXa.l.U.(.^.^.!.W.G.s.c.G.T.'.0XI.k i h.J.'.0X{.^.(.H.k vXvXvXvXvXvXvXvXvXvXvXvXvX",
"vXvXvXvXvXvXvXvXvXd.z.H.(././.T.D.D.M.D.G.b.I._.~.e.s t $. XH.!.9X'.^.K.n vXvXvXvXvXvXvXvXvXvXvXvXvX",
"vXvXvXvXvXvXvXvXp.z.T./.D.D.D.D.D.A.8.M.G.N.I._.).e.A gXlXxX}.N.!._.^.(.OXvXvXvXvXvXvXvXvXvXvXvXvXvX",
"vXvXvXvXvXvXvXu.x.S.D.F.D.D.D.x.d.a.p.M.G.P.I._.).b.iXlXlXlXaXo g.Q.Y.h.# vXvXvXvXvXvXvXvXvXvXvXvXvX",
"vXvXvXvXvXvX  k a.f.f.f.f.f.f.a.u.t.y.N.I.b.P.R._.R.zXlXlXlXgXX @ k l.d   vXvXvXvXvXvXvXvXvXvXvXvXvX",
"vXvXvXvX      : y y y y y r.i.u.p.t.t.n.b.P.P.P.R.).zXlXlXlXjX    > i ;   vXvXvXvXvXvXvXvXvXvXvXvXvX",
"vXvXvXvX                  u i i d p.q.8.n.k.m.V.eXrXdXlXlXlXhX. . q 3 . O vXvXvXvXvXvXvXvXvXvXvXvXvX",
"vXvXvXvXvXvXvXvXvXvX      @ @ ; y p.q.w.w.f C -XlXzXrXfXlXlXhX4 4 B N % % vXvXvXvXvXvXvXvXvXvXvXvXvX",
"vXvXvXvXvXvXvXvXvXvXvXvX  k c.D.c.y.q.w.0.C 1XlX1X1XlXlXlXlXhX4 % Z N $ 1 kXXXvXvXvXvXvXvXvXvXvXvXvX",
"vXvXvXvXvXvXvXvXvXvXvXvXk c.F.x.d.y.q.w.e.C <.3X1X1X<XxXlXlXlXhXoX+.w .   = # vXvXvXvXvXvXvXvXvXvXvX",
"vXvXvXvXvXvXvXvXvXvXvXa.c.D.x.d.d.9.@ e.0.0 ( <.<X,X,X2X4X4X4X4X:.O.` w 7 vXvXvXvXvXvXvXvXvXvXvXvXvX",
"vXvXvXvXvXvXvXvXvXvXvXx.l.x.d.p.q.f   - - . 5 ( 3.,X,X;X;X;X;X;X&.O.[ P vXvXvXvXvXvXvXvXvXvXvXvXvXvX",
"vXvXvXvXvXvXvXvXvXvXi x.p.p.d i i :           5 I *.5.=X;X;X-X5.' [ P vXvXvXvXvXvXvXvXvXvXvXvXvXvXvX",
"vXvXvXvXvXvXvXvXvXvX; i.f d @                   7 7 P &.6.5.2.' K H vXvXvXvXvXvXvXvXvXvXvXvXvXvXvXvX",
"vXvXvXvXvXvXvXvXvXvX; f                             8 H F H F H vXvXvXvXvXvXvXvXvXvXvXvXvXvXvXvXvXvX",
"vXvXvXvXvXvXvXvXvXvX  X           + | -X<X,.U T lXzX>X>.R F vXvXvXvXvXvXvXvXvXvXvXvXvXvXvXvXvXvXvXvX",
"vXvXvXvXvXvXvXvXvXvX    vXvXvX  * | -X( 6 s @.,XlXlX5X=X>.R H vXvXvXvXvXvXvXvXvXvXvXvXvXvXvXvXvXvXvX",
"vXvXvXvXvXvXvXvXvXvX  vXvXvXvX9 ` 7.3.%   p V.3XsXsX2X;X5.' F vXvXvXvXvXvXvXvXvXvXvXvXvXvXvXvXvXvXvX",
"vXvXvXvXvXvXvXvXvXvXvXvXvXvX; q *.=XI q 3 f C.7.<X,X,X=X>.' H vXvXvXvXvXvXvXvXvXvXvXvXvXvXvXvXvXvXvX",
"vXvXvXvXvXvXvXvXvXvXvXvXvX  d l I 6.P $X%XJ.B.o.6.7.=X,.O.' H vXvXvXvXvXvXvXvXvXvXvXvXvXvXvXvXvXvXvX",
"vXvXvXvXvXvXvXvXvXvXvXvXvX  p e P +.#XlXuX%XK.h G ' ] ] ] [ 8 n M vXvXvXvXvXvXvXvXvXvXvXvXvXvXvXvXvX",
"vXvXvXvXvXvXvXvXvXvXvXvXvX      + n XX#XlXlXkXZ.e.G J J J 7 o }. XZ vXvXvXvXvXvXvXvXvXvXvXvXvXvXvXvX",
"vXvXvXvXvXvXvXvXvXvXvXvXvX  vXvXvXc m zXlXlXlXiXs j j j h a X n .X.XZ v vXvXvXvXvXvXvXvXvXvXvXvXvXvX",
"vXvXvXvXvXvXvXvXvXvXvXvXvXvXvXvXvXv A yXlXlXlXjXs ; - - - @   o ;.XXA v vXvXvXvXvXvXvXvXvXvXvXvXvXvX",
"vXvXvXvXvXvXvXvXvXvXvXvXvXvXvXvXvXn oXoXuXgXgX$X2     o X X :   m A m v vXvXvXvXvXvXvXvXvXvXvXvXvXvX",
"vXvXvXvXvXvXvXvXvXvXvXvXvXvXvXvX# r ;.oXoX+X.XZ =   vXvX, - p - , 2 v c vXvXvXvXvXvXvXvXvXvXvXvXvXvX",
"vXvXvXvXvXvXvXvXvXvXvXvXvXvXvXvX    c [.}.}.Z ,   vXvXvXvX1   y.X 1 c c vXvXvXvXvXvXvXvXvXvXvXvXvXvX",
"vXvXvXvXvXvXvXvXvXvXvXvXvXvXvXvXvXvXc r s x #   vXvXvXvXvXvXX w.X , x vXvXvXvXvXvXvXvXvXvXvXvXvXvXvX",
"vXvXvXvXvXvXvXvXvXvXvXvXvXvXvXvXvXn }.i.g.s.9.vXvXvXvXvXvXvXvXX g -   vXvXvXvXvXvXvXvXvXvXvXvXvXvXvX",
"vXvXvXvXvXvXvXvXvXvXvXvXvXvXvXvX# n  Xs.j.k s vXvXvXvXvXvXV |.  e.-   vXvXvXvXvXvXvXvXvXvXvXvXvXvXvX",
"vXvXvXvXvXvXvXvXvXvXvXvXvXvXvXO * Z iX8XK.D c vXvXvXvXvXvXm Z , 7X@X.X#XvXvXvXvXvXvXvXvXvXvXvXvXvXvX",
"vXvXvXvXvXvXvXvXvXvXvXvXvXvX  & 7 N 8XpX Xm x vXvXvXvXvXvXx Z D uXjX$X$.o.vXvXvXvXvXvXvXvXvXvXvXvXvX",
"vXvXvXvXvXvXvXvXvXvXvXvXvXvX. 4 K Y n n n M vXvXvXvXvXvXvXb $.:.:.A S N E vXvXvXvXvXvXvXvXvXvXvXvXvX",
"vXvXvXvXvXvXvXvXvXvXvXvXvX  $ q Z  XXXXXXXvXvXvXvXvXvXvXvX  4 H H F X.tXlXlX$XvXvXvXvXvXvXvXvXvXvXvX",
"vXvXvXvXvXvXvXvXvXvXvXvXvX  1 Z  X#XkXkXzXyXoXvXvXvXvXvXvXO H J H X.uXjX&X/ ^ L vXvXvXvXvXvXvXvXvXvX",
"vXvXvXvXvXvXvXvXvXvXvXvXvX  3 S $.T } >X6X=.~ F vXvXvXvX. 4 J J w Z.iXcX) ^ =.6.} ! F vXvXvXvXvXvXvX",
"vXvXvXvXvXvXvXvXvXvXvXvXvX  3 N T ! ^ { 6.6.{ L H vXvX  O 5 J H c [.$X*XQ ^ { } ) ^ ! ^ H F vXvXvXvX",
"vXvXvXvXvXvXvXvXvXvXvXvXvXvX= 6 8 Q Q W  .*._ W H vXvX  . $ 4 5 < x b q 5 J Q ! ! Q Q Q H F vXvXvXvX",
"vXvXvXvXvXvXvXvXvXvXvXvXvXvX    & H H F H H F H H vXvX                      8 F F F F F F F vXvXvXvX",
"vXvXvXvXvXvXvXvXvXvXvXvXvXvXvXvXvXvXvXvXvXvXvXvXvXvXvXvXvXvXvXvXvXvXvXvXvXvXvXvXvXvXvXvXvXvXvXvXvXvX"
};
