/* XPM */
static char *c5713dcc925e44198e9f92524e5f227dJUJ7s4ybc3l9XxNe[] = {
/* columns rows colors chars-per-pixel */
"50 50 160 2 ",
"   c #161514",
".  c #191715",
"X  c #191917",
"o  c #171719",
"O  c #191718",
"+  c #1C1B1A",
"@  c #211E1A",
"#  c #23221F",
"$  c #28241E",
"%  c #262422",
"&  c #2A2623",
"*  c #2D2A25",
"=  c #292729",
"-  c #2D2C2A",
";  c #312C25",
":  c #322E2B",
">  c #382F28",
",  c #363027",
"<  c #393227",
"1  c #35322D",
"2  c #3A342D",
"3  c #3E392F",
"4  c #322F30",
"5  c #353332",
"6  c #3A3633",
"7  c #3D3A35",
"8  c #373738",
"9  c #3E3B3A",
"0  c #413A2F",
"q  c #413730",
"w  c #423C35",
"e  c #483D33",
"r  c #433D3A",
"t  c #4B3F39",
"y  c #3F413B",
"u  c #49402F",
"i  c #464136",
"p  c #4B4236",
"a  c #45423C",
"s  c #4B443C",
"d  c #4E493E",
"f  c #514436",
"g  c #524837",
"h  c #52463C",
"j  c #534A3D",
"k  c #5A4D3C",
"l  c #58513F",
"z  c #3E3E42",
"x  c #413F41",
"c  c #454342",
"v  c #4A4542",
"b  c #4D4A43",
"n  c #47464B",
"m  c #4B4748",
"M  c #4D4A4B",
"N  c #504742",
"B  c #534D41",
"V  c #504A45",
"C  c #514A45",
"Z  c #534B45",
"A  c #504846",
"S  c #524A47",
"D  c #534B47",
"F  c #544B45",
"G  c #574B44",
"H  c #554846",
"J  c #544847",
"K  c #514D47",
"L  c #534E47",
"P  c #524C44",
"I  c #594B47",
"U  c #584C46",
"Y  c #594C46",
"T  c #5D4E46",
"R  c #594E44",
"E  c #514A49",
"W  c #514A4A",
"Q  c #554A48",
"!  c #534C48",
"~  c #524C49",
"^  c #524F48",
"/  c #564C48",
"(  c #564D49",
")  c #544E48",
"_  c #544D4B",
"`  c #544E4B",
"'  c #564E4A",
"]  c #574F4A",
"[  c #534C4C",
"{  c #534D4D",
"}  c #534F4C",
"|  c #554E4D",
" . c #574F4F",
".. c #534D4A",
"X. c #584A4B",
"o. c #594C49",
"O. c #594F49",
"+. c #5C4E49",
"@. c #594F4C",
"#. c #594F4B",
"$. c #555146",
"%. c #5B5345",
"&. c #575249",
"*. c #55504D",
"=. c #57504D",
"-. c #54504F",
";. c #57504E",
":. c #55524B",
">. c #5B534A",
",. c #5C5148",
"<. c #5C504B",
"1. c #5C5448",
"2. c #59514E",
"3. c #5B544C",
"4. c #5D584E",
"5. c #4D4D52",
"6. c #534E51",
"7. c #535050",
"8. c #535250",
"9. c #565253",
"0. c #515055",
"q. c #545254",
"w. c #575355",
"e. c #555252",
"r. c #585253",
"t. c #5B5352",
"y. c #5C5250",
"u. c #5E5350",
"i. c #5F5450",
"p. c #595554",
"a. c #5B5553",
"s. c #5D5955",
"d. c #5B575B",
"f. c #5C595A",
"g. c #614E47",
"h. c #604F44",
"j. c #604E48",
"k. c #615046",
"l. c #625646",
"z. c #625847",
"x. c #64544B",
"c. c #67574A",
"v. c #60554C",
"b. c #66564E",
"n. c #61564C",
"m. c #6A574E",
"M. c #635A4C",
"N. c #6A5C4E",
"B. c #625650",
"V. c #675951",
"C. c #635B54",
"Z. c #695951",
"A. c #6A5D52",
"S. c #605658",
"D. c #645C5B",
"F. c #73644E",
"G. c #646053",
"H. c #696253",
"J. c #6C615C",
"K. c #655E60",
/* pixels */
"; > e q t t x N H J Q +.+.! *.! >.@.-.#.X.X.>.x.c.Z.Z.m.g.g.g.J X.x.T U Q X.U B j k f j j j d B w ; ",
"k g f g q > 5 w 5 x 9 7 | #.9 8 A 7 r s 8 a w 5 G b.w w t e r t 7 h t 5 v y.q 5 s 1 2 e 1 0 1.$.s k ",
"p p 0 3 t r z x x m m x 0.t.c c | c c W c v c x { y.v v U N H H v H A r m q.x c ~ 9 r v w s d i a s ",
"p f t w N x x v x 5.n x q.p.M v | v b W n M M c q.B.N N -.A ~ { W #.! c 5.p.b v $.v s j a d b a b b ",
"p s 5 : r 4 5 w 5 r z 8 e.! 7 5 N 7 8 x 6 c r 8 m  .w 5 a 7 r c 7 s x 6 m 3.7 3 a 5 2 s < 0 w 3 p d ",
"c d 5 4 w 4 5 w w x z 8 -.| r r N w r v 8 c r r W 6.w r v r a a w b v 9 M -.i y a 8 q p q i i 7 s s ",
"d s 5 > r 6 9 r r c c r -.e.x c y.r c n c c c r X.t.c v v a a m x W c a P 3.i y a r q j i d b w s P ",
"b M r w r 9 r x r n c c q.p.c r #.v t n r c x r | @.t c b v v A s N s a P 3.a y b 7 a B s d s e j $.",
"s b 8 1 r 5 5 t 5 c 8 5 6.q.8 7 ! 7 6 a 5 r w 6 W 2.7 8 v 8 w r r t r 5 d 3.7 6 s 1 7 s 7 i w < p B ",
"b K y y c r r s r c c 9 d.d.c c 3.r r v p v s a 2.x.r c W r r v r v v t B M.a i M i a F p d s e B U ",
"d 8.b d ! b P t.7.q.0.0.d.D.| 7.A.@.U x.@.3.2.U M.V.W @.p.Q #.! W :.U U M.C.$.d 3.B :.3.%.1.k.R n.l.",
"$.$.y 5 r 5 9 v 9 m x 9 d.s.r x #.r r A q v v 7 H v.r r N w t b w s t w U A.r 7 N w i %.t i i 7 j l.",
"$.$.* % 7 * - 7 - z 1 = p.e.- - b : : w * q 5 : N T ; : r : > 7 * 6 2 ; k H.2 & a - ; N ; < 7 * p N.",
":.4.i y d y i s c M v c t.s.p r 3.s v H a A s p k.Z.p v U p t N r j s e k.F.s a m a a 3.a d b p l l.",
"$.4.4.%.4.l %.$.0.q.t.p.K.D.a.t.D.x.#.V.a.3.k.N.Z.Z.v.Z.Z.x.B.B.x.l.k.h.M.A.2.3.3.4.4.4.3.M.4.M.H.M.",
"%.4.y 3 d y y i 6 c 9 9 f.p.9 w 2.r s v 7 s t r +.B.r w H r r N 7 s t w T H.i 7 j 3 w %.7 a p i $.H.",
":.:.5 , a 1 8 7 : r 5 8 y.a.8 6 B 5 e v 2 r w 5 X.B.6 6 t 5 7 t 6 r r 6 W M.w < p 2 2 G 5 i i 3 $.M.",
"4.4.y y d i y c 9 v x 9 B.S.r 8 3.a r W r x r r @.D.t w H e r W r v v 7 #.A.s w B e t %.i i p 7 $.M.",
"4.s.c a $.a m 8.n M n c S.V.v c a.b b 3.c b v p y.D.v v #.b n q.n W b v B.J.v v n.j s %.s d $.s %.N.",
"^ 8.7 6 b 9 7 a 9 b r 8 y.f.w 7 { r c m 7 a r 5 A s.e r N 7 9 5.x v r 7 G J.w 7 N 7 w N 3 s a 7 d %.",
"$.$.y 1 d 6 7 s 7 b 7 8 3.s.r 7 { 9 a v 8 s t 1 W y.t r W 7 c 5.9 v a 7 P H.w 7 d w 3 d < p d y d 4.",
"d ^ y y d i a d r b x 9 y.p.9 z 7.c c M 8 a e 6 6.y.r r A r c M r b c 9 ~ H.i 7 j 7 y $.8 i s 7 d $.",
"* ^ 1 y i 2 3 c 8 v 9 9 ! ! 6 6 M 8 9 c 6 a r 6 A r.6 9 v 6 9 v 8 s a 8 $.C.y 3 d 7 7 b 6 i s 8 b w ",
"- ^ 1 - i 1 3 a 9 v 8 8 -.:.5 6 v 8 9 a 5 a r 5 A r.w 8 v 5 9 c 6 s t 5 b G.i 6 d 6 7 d 5 a a 7 B y ",
"1 4.G.$.&.%.l 4.4.3.>.d.d.f.3.B.s.f.f.s.t.s.t.>.s.S.t.S.V.C.s.S.S.Z.Z.b.x.C.N.4.N.1.G.s.4.G.4.s.s.7 ",
"1 4.8.8.G.z.z.G.M.x.B.d.f.f.3.a.f.d.d.D.B.3.x.>.t.s.s.K.K.D.C.D.S.V.S.B.a.n.M.n.z.M.G.G.H.H.M.4.G.7 ",
"1 M - , i , y y ; w 5 - | :.* 1 m 4 5 8 ; q 3 : c X.5 4 r : 5 x 4 t r : v B.2 * i < , d 1 3 9 1 d a ",
"4 ^ y y $.i p u r b a p M.1.x v $.a c W t h h s @.t.c c t.v v 6.x A A t ! D.x t l d s $.s j v a $.3 ",
"i $.y y d y u u y s i p M.2.r i B a a b r s s r Q @.t r W r r A t A v r | f.c y d p p $.a d b i P B ",
"d j y y d y 3 i 7 s 7 7 3.3.7 w 2.w q v 7 s a 7 W r.r r N 7 r m 8 v r 9 W J.9 7 d 7 y d 8 i i 7 P 3.",
"b d * * y * * 5 * y 1 : 3.$.- * b * 1 7 * 3 ; & m a.: : r : > w : r 8 - n d.1 = a ; * s * < 7 * s M.",
"B $.d d d y b ^ s ^ b $.4.3.~ A f.~ v ! b W N { f.s.A @.| m X.W 6.e.e.v 7.f.b M :.b d $.b d B d 3.4.",
"d $.a a b y y d y d y y %.4.y c Q x t m a v s c e.p.v c { a v A v m v c P s.s a M a a d i s s i B :.",
"b ^ - - y * 1 5 $ y 1 * $.%.- 1 b : 4 9 : 5 5 4 c W : : z : : 5 4 9 5 - c 4.1 - a - ; a ; 2 5 * s 4.",
"b b 8 5 d 1 y y 6 d y y 3.1.y y W r r c 5 r 9 6 m 6.r r v 9 7 c 9 c s 7 b 3.y 6 s 7 7 s < 7 i 3 c :.",
"$.8.4.$.s.8.b 8.8.$.4.8.a.>.a.p.s.p.t.d.q.e.{ ~ 6.p.r.r.3.s.:.*.d.a.p.e.q.3.4.4.8.p.:.$.:.3.$.:.p.:.",
"d b y y y y y M a a 7 y N P r r W r r c c n 9 8 m 6.r a v a c v i c c r m 3.a a b 9 i P r t i 7 a :.",
"d y X X , X # = X * + X v b O O r O + - o = +   z 6.+ O : . + - O & & o 6 :.+ X : o O 5   # $   1 M ",
"b M y c b y d ^ c b d a -.$.a s A s a m r r t 9 5.w.c b N d b v c b b p P :.c a v v s B p a i t b M ",
"y b b y b d d ^ M b M M P B v N v s v ~ d s p v 6.6.N H j $.b $.P $.M d $.~ b v m v v b v v s s b P ",
"a s 6 6 i 6 6 a y y y 8 b d 6 7 t 7 7 c 7 q 0 7 v W 0 q s q 7 a r r t 6 v b 7 8 a 8 8 a 7 7 w 6 r M ",
"y y # % 5 # - 1 % 1 * = b c % % e % $ 5 & < ; $ w p * % 3 & * 2 & ; : & w 5.- % 5 % & i % * ; $ 2 s ",
"7 a 9 y d i i c a s a s m M a x v s s p a i e i s j r s v p a s v c x x c W c a a r a c s i s i p d ",
"7 s a a d y y s c s c c P W r v m a s p s s i s j R s v b v b d s h s x b 6.a a b v a v a s B d j p ",
"i a 1 1 y 1 6 3 1 7 2 5 A d 1 5 v 1 3 e < 3 3 < s j 3 6 r 6 3 t 5 e 7 5 p ! 6 2 w 5 2 i 2 7 i 2 e p ",
"y p y 8 a y y y w e w q H N 9 r d e e r w i i w s j e e s a i s t a a w b :.i 7 a w w s r a p 0 u e ",
"y s c s b s c c p p s s h f p v j s s j s p i p p g p B d d d d v v b v ~ &.d d B s s d d d d d k p ",
"y a c y i i y s 7 i w t h f 7 t s w q i i w u u p g i s s i i a r t s r $.4.a a d s d d a b P j p p ",
"5 i a d y 3 5 y 2 y < < g s 2 < a 1 , 3 > < < < u g < < 0 < , 7 < 3 4.b $.C.p.:.$.:.$.d $.^ s.&.g 3 ",
"< 3 s a B %.l %.G.&.l 1.j l 3.4.%.n.3.2.3.l f l u u k $.%.N.%.4.C.n.4.z.%.j 4.4.1.M.1.l 1.1.p p p , "
};
