/* XPM */
static char *_084b9df12954f558ccd7688beee9406qGJg8P9lwv9UO91w[] = {
/* columns rows colors chars-per-pixel */
"50 50 162 2 ",
"   c None",
".  c #010101",
"X  c #0C0404",
"o  c #060708",
"O  c #0F0608",
"+  c #06090B",
"@  c #0B0A0B",
"#  c #130506",
"$  c #180507",
"%  c #150608",
"&  c #1A0609",
"*  c #120B0C",
"=  c #1A0A0C",
"-  c #0B0F10",
";  c #190D10",
":  c #0E1315",
">  c #0F1816",
",  c #121415",
"<  c #1C1312",
"1  c #14181A",
"2  c #20070A",
"3  c #25090C",
"4  c #2B090E",
"5  c #2E0E15",
"6  c #310B11",
"7  c #3B0E14",
"8  c #241213",
"9  c #2D1115",
"0  c #211A18",
"q  c #2D1C1B",
"w  c #361017",
"e  c #3F1016",
"r  c #331218",
"t  c #3D141A",
"y  c #321B1B",
"u  c #3C1B1D",
"i  c #1D201F",
"p  c #1E2224",
"a  c #222422",
"s  c #212728",
"d  c #431017",
"f  c #44131A",
"g  c #4C141B",
"h  c #52151B",
"j  c #58161C",
"k  c #5E181D",
"l  c #461A24",
"z  c #4A1923",
"x  c #451F2A",
"c  c #531B24",
"v  c #5D1B23",
"b  c #531C29",
"n  c #4E1E30",
"m  c #501F30",
"M  c #5D1D30",
"N  c #621C24",
"B  c #681F27",
"V  c #661D28",
"C  c #771A32",
"Z  c #452327",
"A  c #4D222E",
"S  c #51212F",
"D  c #4F2030",
"F  c #552332",
"G  c #5C2332",
"H  c #5C2837",
"J  c #5E2338",
"K  c #65232E",
"L  c #6D232D",
"P  c #76272E",
"I  c #642334",
"U  c #692530",
"Y  c #622835",
"T  c #6F2A34",
"R  c #63253E",
"E  c #6B233D",
"W  c #662E3E",
"Q  c #762233",
"!  c #792336",
"~  c #772D37",
"^  c #742E3D",
"/  c #7B2E3C",
"(  c #781E4B",
")  c #6E2244",
"_  c #6C2B42",
"`  c #702146",
"'  c #742C47",
"]  c #7B2B44",
"[  c #7E214E",
"{  c #772A49",
"}  c #6E3343",
"|  c #7D3048",
" . c #832C35",
".. c #842239",
"X. c #812838",
"o. c #8D283C",
"O. c #92263B",
"+. c #A32B3F",
"@. c #801B45",
"#. c #821E4F",
"$. c #891E4E",
"%. c #831B51",
"&. c #8D2443",
"*. c #822C47",
"=. c #882C46",
"-. c #83224D",
";. c #8D214C",
":. c #852C4B",
">. c #882A48",
",. c #942642",
"<. c #9A2746",
"1. c #952C44",
"2. c #9E2943",
"3. c #93234A",
"4. c #9A264B",
"5. c #932C49",
"6. c #98284A",
"7. c #992A4A",
"8. c #9C2849",
"9. c #9B284F",
"0. c #9C284C",
"q. c #9E294C",
"w. c #9F294C",
"e. c #9C2A4B",
"r. c #893245",
"t. c #803248",
"y. c #913246",
"u. c #9D304C",
"i. c #9C324B",
"p. c #A12B44",
"a. c #A52D46",
"s. c #A72E45",
"d. c #AC2F41",
"f. c #AD2E45",
"g. c #AC2E45",
"h. c #A22B4B",
"j. c #A42B48",
"k. c #A22C49",
"l. c #A62C4B",
"z. c #A02A4D",
"x. c #A12B4D",
"c. c #A02B4D",
"v. c #A22A4D",
"b. c #A32C4E",
"n. c #A42C4C",
"m. c #A52C4D",
"M. c #A42C4E",
"N. c #A52C4E",
"B. c #A62C4E",
"V. c #A72C4E",
"C. c #A32B4E",
"Z. c #A82C4D",
"A. c #A92D4D",
"S. c #AA2D4D",
"D. c #AB2D4D",
"F. c #A92D4E",
"G. c #AC2D4D",
"H. c #AD2D4D",
"J. c #AE2D4D",
"K. c #AC2D4D",
"L. c #A33144",
"P. c #A2314B",
/* pixels */
"                . . . . .                                                                           ",
"              . . . . . . o                   . . . . .                                             ",
"              . . o : : . . .         . . . . . . . . . . . . . .                                   ",
"              . . @ , p , . . .   . . . . o O $ $ # # # # X . . . . .                               ",
"                . o , p p : . . . . . O < q q q 9 9 9 w w 9 q = X . . . .                           ",
"                . . o : p > o . . . X 4 y u t t 7 d d d d f z Z 7 4 $ . . .                         ",
"                . . . o + + o . . $ 2 4 9 6 4 6 6 d f d e w t S S g 3 X . . .                       ",
"                  . . . . + , 1 = 4 6 6 6 7 d d z F J M g 6 6 z W W 7 $ o . .                       ",
"                    . . . > i a 6 4 d d h K E ) ) ( [ ( I g w f H } H r $ $ . .                     ",
"                      . . 1 i 0 6 j L >.o.5.5.3.$.%.-.[ ' M h f z } _ b u f O . .                   ",
"                    . . . @ = 6 h / y.u.C.M.M.M.x.4.4.3.-.] I j h U [ ' _ R l . .                   ",
"                    . . o $ 3 g ~ 6.M.J.Z.Z.J.J.J.J.J.Z.0.4.>.@.C @.[ [ ' [ F < .                   ",
"                    . . * 4 f L >.C.Z.J.J.J.J.J.J.J.J.J.J.Z.M.0.4.3.%.%.%.%.{ t . .                 ",
"                    . . 3 f V &.4.S.Z.J.J.J.J.J.J.J.J.J.J.J.Z.J.Z.M.3.%.%.%.%.n . .                 ",
"                    . . 4 K =.0.4.Z.J.J.J.J.J.J.J.J.J.J.J.J.J.J.J.M.3.%.%.%.( m X .                 ",
"                  . . # d ] 6.x.3.x.M.Z.J.J.J.J.J.D.Z.Z.J.J.J.J.J.Z.;.%.%.%.[ A X .                 ",
"                  . . & b r.8.x.2.x.C.J.J.J.J.J.J.S.S.S.J.J.S.B.K.B.3.%.%.%.[ A X .                 ",
"                  . X 7 Q P.D.c.3.x.S.J.J.J.J.J.J.J.J.S.J.S.M.j.B.v.3.%.%.%.[ D X .                 ",
"                  . X d ..J.D.p.O.4.C.J.J.f.J.J.J.J.J.J.Z.C.M.j.B.9.3.%.%.%.[ D X .                 ",
"                  . O h *.Z.J.x.3.O.w.J.J.d.J.J.J.J.J.J.x.4.8.M.F.v.3.%.%.%.[ D X .                 ",
"                  . O h *.D.J.M.4.3.0.B.B.B.C.S.F.B.x.0.4.p.j.j.F.b.;.%.%.%.[ A . .                 ",
"                  . # h *.D.J.x.4.3.$.3.9.4.4.x.9.0.3.3.2.x.J.J.K.b.;.%.%.[ [ Z . .                 ",
"                . . $ h *.Z.S.M.x.3.3.3.3.5.3.3.3.;.3.<.s.J.J.Z.K.B.;.%.%.%.[ A o .                 ",
"                . . $ h o.Z.J.M.C.3.3.3.x.3.3.3.;.3.4.x.Z.Z.J.J.K.B.;.%.%.%.[ D X .                 ",
"                . . $ h O.Z.S.l.M.3.3.0.x.M.M.8.3.4.x.x.S.S.J.J.J.b.3.%.%.%.[ D X .                 ",
"                . . $ h O.g.J.Z.M.4.3.0.B.M.x.x.4.3.x.C.S.J.J.J.J.B.3.%.%.%.[ D X .                 ",
"                . . $ h o.f.J.J.M.3.,.M.F.s.S.x.9.3.x.S.J.J.J.J.J.b.3.%.%.%.#.D X .                 ",
"                . . $ h *.M.J.J.S.3.3.x.J.J.J.j.3.O.w.S.J.J.J.J.J.b.%.%.%.%.[ F X .                 ",
"                . . $ h t.F.J.J.S.3.<.j.Z.f.J.i.3.3.z.S.J.J.J.J.J.b.3.%.%.%.( F $ .                 ",
"                  . $ h *.F.J.J.S.3.3.5.M.J.Z.x.3.3.z.S.J.J.J.J.J.b.$.%.%.%.%.F & .                 ",
"                  . # h *.F.J.J.J.3.3.5.u.M.C.p.3.3.x.S.S.J.J.J.J.B.;.%.%.%.[ F & .                 ",
"                  . O h *.F.J.J.F.3.-.;.6.1.6.3.;.$.x.S.J.J.J.J.J.x.;.%.%.%.[ F & .                 ",
"                  . O h *.Z.J.J.S.3.$.$.O.O.O.,.;.&.x.S.J.J.J.J.J.b.$.%.%.%.[ F = .                 ",
"                  . X h *.M.J.J.C.3.;.;.3.,.,.3.3.3.4.J.J.J.J.J.J.B.3.%.%.%.[ F = .                 ",
"                  . # h *.Z.J.J.8.3.3.6.x.C.j.w.3.3.3.j.J.J.J.J.K.b.$.%.%.%.[ F & .                 ",
"                  . O g *.M.J.M.3.4.w.M.M.J.Z.M.j.w.4.C.Z.J.J.J.K.b.3.%.%.%.[ F & .                 ",
"                  . X 7 ] j.Z.x.x.M.M.J.J.J.J.Z.S.C.4.4.x.F.Z.J.F.B.$.%.%.%.#.F & .                 ",
"                  . . 6 E 3.x.Z.Z.J.J.J.J.J.J.J.J.B.x.4.B.B.J.J.Z.b.3.%.%.%.%.m & .                 ",
"                  . . = b >.6.x.J.J.J.J.J.J.J.J.Z.B.x.4.v.B.J.J.J.B.3.%.%.%.%.F # .                 ",
"                    . . 7 I ^ r.M.J.J.J.J.f.f.J.J.F.C.x.0.F.J.J.J.B.;.%.%.%.-.m X .                 ",
"                    . . # 7 f Y ] e.S.J.J.J.J.J.J.D.Z.x.9.v.J.J.J.Z.3.%.%.%.%.m X .                 ",
"                      . . O # 3 7 k ! 1.i.2.L.L.D.D.M.x.x.x.F.J.J.x.;.%.%.%.#.F X .                 ",
"                      . . . . O # 4 f v P t.r.i.i.x.c.l.x.9.B.J.J.M.3.%.%.%.( x . .                 ",
"                        . . . . . . # & 9 f h K T  .=.6.x.x.C.J.Z.M.;.%.%.%.` r . .                 ",
"                            . . . . . . . $ 3 7 d j K X.3.<.j.C.Z.M.3.%.%.%.F = .                   ",
"                                    . . . . . . O # = 8 g c K ~ t.:.| [ _ f 5 . .                   ",
"                                        . . . . . . . . # & 6 d f A A l z $ O . .                   ",
"                                              . . . . . . . X X X O O * * . . .                     ",
"                                                      . . . . . . . . . . . . .                     ",
"                                                                                                    "
};
