/* XPM */
static char *result[] = {
/* columns rows colors chars-per-pixel */
"50 50 132 2 ",
"   c #010001",
".  c #090404",
"X  c #0B0A0A",
"o  c #1C1C05",
"O  c #1C1D0D",
"+  c #1F0F10",
"@  c #230B01",
"#  c #2B1C03",
"$  c #261212",
"%  c #3D1D19",
"&  c #292B0D",
"*  c #272914",
"=  c #2A2A13",
"-  c #272718",
";  c #27281A",
":  c #292918",
">  c #36371D",
",  c #000025",
"<  c #262925",
"1  c #2E2F2F",
"2  c #3A2726",
"3  c #333533",
"4  c #333833",
"5  c #44201C",
"6  c #49211E",
"7  c #59321D",
"8  c #5F391E",
"9  c #6D300C",
"0  c #6E2E16",
"q  c #412020",
"w  c #7C3C3A",
"e  c #704B1F",
"r  c #4D4D39",
"t  c #545433",
"y  c #714E27",
"u  c #715534",
"i  c #000053",
"p  c #000075",
"a  c #00007B",
"s  c #474B47",
"d  c #484C47",
"f  c #5B4B4B",
"g  c #595D53",
"h  c #6D6E6B",
"j  c #6E706B",
"k  c #71736A",
"l  c #894340",
"z  c #9A4B49",
"x  c #A45757",
"c  c #AA5351",
"v  c #A95A59",
"b  c #BA5B59",
"n  c #9E6264",
"m  c #A86967",
"M  c #D97A59",
"N  c #C1825F",
"B  c #E48559",
"V  c #FAA559",
"C  c #C48673",
"Z  c #FAAC67",
"A  c #130382",
"S  c #000090",
"D  c #00009E",
"F  c #2A1B9D",
"G  c #0000A4",
"H  c #0101AB",
"J  c #0202B4",
"K  c #0806B2",
"L  c #0A0BB5",
"P  c #0101BA",
"I  c #0C0CBE",
"U  c #0F10BA",
"Y  c #1313BD",
"T  c #2C2BA0",
"R  c #3939AE",
"E  c #5353A2",
"W  c #5454AF",
"Q  c #0E0BC3",
"!  c #0B0CCC",
"~  c #1315C1",
"^  c #1A1BC4",
"/  c #1513CF",
"(  c #1F1FCA",
")  c #1517D1",
"_  c #1D1ED9",
"`  c #1F20C9",
"'  c #2222CD",
"]  c #2625D1",
"[  c #2728D3",
"{  c #2A2AD5",
"}  c #2123DC",
"|  c #2C2BDB",
" . c #2D31DF",
".. c #3332DD",
"X. c #2525E5",
"o. c #3535E1",
"O. c #3837E1",
"+. c #3739E2",
"@. c #3C3CE4",
"#. c #3434EC",
"$. c #3738ED",
"%. c #3F3FEC",
"&. c #3637F3",
"*. c #3F3EF2",
"=. c #4242EC",
"-. c #4444F2",
";. c #4C4CF6",
":. c #4545FB",
">. c #4C4CFB",
",. c #4E51FC",
"<. c #5454FD",
"1. c #5759FF",
"2. c #5C5BFE",
"3. c #6565FF",
"4. c #6A67FF",
"5. c #6468FF",
"6. c #6A6AFF",
"7. c #8C9088",
"8. c #93948A",
"9. c #A39E9D",
"0. c #A6A2A1",
"q. c #F9BD84",
"w. c #C1C3A2",
"e. c #C6C7B0",
"r. c #C6C8B3",
"t. c #CACBB2",
"y. c #D0CFB1",
"u. c #CFD0B1",
"i. c #D4D5B2",
"p. c #EDECEC",
"a. c #F8F6F1",
"s. c None",
/* pixels */
"s.s.s.s.s.s.s.s.s.s.s.s.s.s.s.s.s.s.s.s.s.s.s.s.s.s.s.s.s.s.s.s.s.s.s.s.s.s.s.s.s.s.s.s.s.s.s.s.s.s.",
"s.s.s.s.s.s.s.s.s.s.s.s.s.s.s.s.s.s.s.s.s.s.s.s.s.s.s.s.s.s.s.s.s.s.s.s.s.s.s.s.s.s.s.s.s.s.s.s.s.s.",
"s.s.s.s.s.s.s.s.s.s.s.s.s.s.s.s.s.s.s.s.s.s.s.s.s.s.s.s.s.s.s.s.s.s.s.s.s.s.s.s.s.s.s.s.s.s.s.s.s.s.",
"s.s.s.s.s.s.s.s.s.s.s.s.s.s.s.s.s.s.s.s.s.s.s.s.s.s.s.s.s.s.s.s.s.s.s.s.s.s.s.s.s.s.s.s.s.s.s.s.s.s.",
"s.s.s.s.s.s.s.s.s.s.s.s.s.s.s.s.s.s.s.s.s.s.s.s.s.s.s.s.s.s.s.s.s.s.s.s.s.s.s.s.s.s.s.s.s.s.s.s.s.s.",
"s.s.s.s.s.s.s.s.s.s.s.s.s.s.s.s.s.H H s.s.G G H G G H s.s.s.H H s.s.s.s.s.s.s.s.s.s.s.s.s.s.s.s.s.s.",
"s.s.s.s.s.s.s.s.s.s.s.s.s.s.s.s.s.H H s.s.K H H K H H s.s.s.H H s.s.s.s.s.s.s.s.s.s.s.s.s.s.s.s.s.s.",
"s.s.s.s.s.s.s.s.s.s.s.s.s.s.s.s.s.Y ,.H G ..2.2.2.2.2.' G Y ;.K s.s.s.s.s.s.s.s.s.s.s.s.s.s.s.s.s.s.",
"s.s.s.s.s.s.s.s.s.s.s.s.s.s.s.s.s.Y 1.H ..1.=.Y Y Y ,.<.' Y 1.K s.s.s.s.s.s.s.s.s.s.s.s.s.s.s.s.s.s.",
"s.s.s.s.s.s.s.s.s.s.s.s.s.s.s.s.s.K [ ..{ ' Y G G G ( ' { ..' H s.s.s.s.s.s.s.s.s.s.s.s.s.s.s.s.s.s.",
"s.s.s.s.s.s.s.s.s.s.s.s.s.s.s.s.s.G H  .{ L G D G D G Y { [ G G s.s.s.s.s.s.s.s.s.s.s.s.s.s.s.s.s.s.",
"s.s.s.s.s.s.s.s.s.s.s.s.s.s.s.s.s.G G U <...K D G G L =.=.L G G s.s.s.s.s.s.s.s.s.s.s.s.s.s.s.s.s.s.",
"s.s.s.s.s.s.s.s.s.s.s.s.s.s.s.s.s.G L 2.6.3. .D G D =.5.3.;.H G s.s.s.s.s.s.s.s.s.s.s.s.s.s.s.s.s.s.",
"s.s.s.s.s.s.s.s.s.s.s.s.s.s.s.s.s.Y 2.3.4.{ G D D G G @.4.3.,.J s.s.s.s.s.s.s.s.s.s.s.s.s.s.s.s.s.s.",
"s.s.s.s.s.s.s.s.s.s.s.s.s.s.s.H ` ;.4.4.[ H G D D D D K ..4.2.=.Y H s.s.s.s.s.s.s.s.s.s.s.s.s.s.s.s.",
"s.s.s.s.s.s.s.s.s.s.s.s.s.s.s.H ' 2.2.{ H D D H ..G D D L ..2.2.Y H s.s.s.s.s.s.s.s.s.s.s.s.s.s.s.s.",
"s.s.s.s.s.s.s.s.s.s.s.s.s.s.s.H ' <...G D D K +.5.{ H D D K ..1.Y G s.s.s.s.s.s.s.s.s.s.s.s.s.s.s.s.",
"s.s.s.s.s.s.s.s.s.s.s.s.s.s.s.H ( ..G G G G [ 4.6.4.Y G D G H @.I H s.s.s.s.s.s.s.s.s.s.s.s.s.s.s.s.",
"s.s.s.s.s.s.s.s.s.s.s.s.s.s.s.H H G H H G G { 3.6.3.Y G G H H H H H s.s.s.s.s.s.s.s.s.s.s.s.s.s.s.s.",
"s.s.s.s.s.s.s.s.s.s.s.s.s.s.s.s.s.Y 1.2.U | 5.3.6.6.3.` ` 2.<.H s.s.s.s.s.s.s.s.s.s.s.s.s.s.s.s.s.s.",
"s.s.s.s.s.s.s.s.s.s.s.s.s.s.s.H ` ;.2.^ H K O.6.6.6.' H H { 2.=.Y H s.s.s.s.s.s.s.s.s.s.s.s.s.s.s.s.",
"s.s.s.s.s.s.s.s.s.s.s.s.s.s.s.H ' <.` H G D K O.3.{ H G G H { 1.Y G s.s.s.s.s.s.s.s.s.s.s.s.s.s.s.s.",
"s.s.s.s.s.s.s.s.s.s.s.s.s.s.s.H ~ [ G G G D G H  .G G G G G H { L H s.s.s.s.s.s.s.s.s.s.s.s.s.s.s.s.",
"s.s.s.s.s.s.s.s.s.s.s.s.s.s.s.H H H G G G J H D G D L H G G G H H H s.s.s.s.s.s.s.s.s.s.s.s.s.s.s.s.",
"s.s.s.s.s.s.s.s.s.s.s.s.s.s.s.s.s.s.s.s.J -.-.G D H <.| H s.s.s.s.s.s.s.s.s.s.s.s.s.s.s.s.s.s.s.s.s.",
"s.s.s.s.s.s.s.s.s.s.s.s.s.s.s.s.s.s.s.G :.4.6.>.H 2.4.5.#.H s.s.s.s.s.s.s.s.s.s.s.s.s.s.s.s.s.s.s.s.",
"s.s.s.s.s.s.s.s.s.s.s.s.s.s.s.s.s.s.  D >.6.:.P G I 1.4.$.a   s.s.s.s.s.s.s.s.s.s.s.s.s.s.s.s.s.s.s.",
"s.s.s.s.s.s.s.s.s.s.s.s.s.s.s.s.s.@ 0 D >.:.Q G G G / >.$.A 9   s.s.s.s.s.s.s.s.s.s.s.s.s.s.s.s.s.s.",
"s.s.s.s.s.s.s.s.s.s.s.s.s.s.s.s.s.# C H >.} H J _ H H &.&.F N   s.s.s.s.s.s.s.s.s.s.s.s.s.s.s.s.s.s.",
"s.s.s.s.s.s.s.s.s.s.s.s.s.s.s.s.o t e.R %.) H ! 3.J H X.@.W w.> s.s.s.s.s.s.s.s.s.s.s.s.s.s.s.s.s.s.",
"s.s.s.s.s.s.s.s.s.s.s.s.s.s.s.  r t.t.i.T G H ! 1.J H G E i.y.e.*   s.s.s.s.s.s.s.s.s.s.s.s.s.s.s.s.",
"s.s.s.s.s.s.s.s.s.s.s.s.s.s.s.  r r.i.i.& i J P P J J , t y.t.e.-   s.s.s.s.s.s.s.s.s.s.s.s.s.s.s.s.",
"s.s.s.s.s.s.s.s.s.s.s.s.s.s.s.s.O : = & s.S J P J J J p o & : ; s.s.s.s.s.s.s.s.s.s.s.s.s.s.s.s.s.s.",
"s.s.s.s.s.s.s.s.s.s.s.s.s.s.s.s.s.s.s.s.s.J J J s.P P s.s.s.s.s.s.s.s.s.s.s.s.s.s.s.s.s.s.s.s.s.s.s.",
"s.s.s.s.s.s.s.s.s.s.s.s.s.s.s.s.s.s.s.s.s.P P s.s.P P P s.s.s.s.s.s.s.s.s.s.s.s.s.s.s.s.s.s.s.s.s.s.",
"s.s.s.s.s.s.s.s.s.s.s.s.s.s.s.s.s.s.s.s.P P P s.s.s.P P J s.s.s.s.s.s.s.s.s.s.s.s.s.s.s.s.s.s.s.s.s.",
"s.s.s.s.s.s.s.s.s.s.s.s.s.s.s.s.s.s.s.s.H G H s.s.s.H H G s.s.s.s.s.s.s.s.s.s.s.s.s.s.s.s.s.s.s.s.s.",
"s.s.s.s.s.s.s.s.s.s.s.s.s.s.s.s.s.s.s.s.      s.s.s.      s.s.s.s.s.s.s.s.s.s.s.s.s.s.s.s.s.s.s.s.s.",
"s.s.s.s.s.s.s.s.s.s.s.s.s.s.s.s.s.s.s.  k 8.g   s.  j 7.g   s.s.s.s.s.s.s.s.s.s.s.s.s.s.s.s.s.s.s.s.",
"s.s.s.s.s.s.s.s.s.s.s.s.s.s.s.s.s.s.    4 s <   s.  3 s <     s.s.s.s.s.s.s.s.s.s.s.s.s.s.s.s.s.s.s.",
"s.s.s.s.s.s.s.s.s.s.s.s.s.s.s.s.s.1 h y e 7 6 % s.5 6 8 e u h s.s.s.s.s.s.s.s.s.s.s.s.s.s.s.s.s.s.s.",
"s.s.s.s.s.s.s.s.s.s.s.s.s.s.s.s.+ f a.Z V M b l   c b B V q.p.2 s.s.s.s.s.s.s.s.s.s.s.s.s.s.s.s.s.s.",
"s.s.s.s.s.s.s.s.s.s.s.s.s.s.s.  q n 0.v c c c w . z c c c m 9.x $   s.s.s.s.s.s.s.s.s.s.s.s.s.s.s.s.",
"s.s.s.s.s.s.s.s.s.s.s.s.s.s.s.  . X X     .   .       . . . X .     s.s.s.s.s.s.s.s.s.s.s.s.s.s.s.s.",
"s.s.s.s.s.s.s.s.s.s.s.s.s.s.s.                                      s.s.s.s.s.s.s.s.s.s.s.s.s.s.s.s.",
"s.s.s.s.s.s.s.s.s.s.s.s.s.s.s.s.s.s.s.s.s.s.s.s.s.s.s.s.s.s.s.s.s.s.s.s.s.s.s.s.s.s.s.s.s.s.s.s.s.s.",
"s.s.s.s.s.s.s.s.s.s.s.s.s.s.s.s.s.s.s.s.s.s.s.s.s.s.s.s.s.s.s.s.s.s.s.s.s.s.s.s.s.s.s.s.s.s.s.s.s.s.",
"s.s.s.s.s.s.s.s.s.s.s.s.s.s.s.s.s.s.s.s.s.s.s.s.s.s.s.s.s.s.s.s.s.s.s.s.s.s.s.s.s.s.s.s.s.s.s.s.s.s.",
"s.s.s.s.s.s.s.s.s.s.s.s.s.s.s.s.s.s.s.s.s.s.s.s.s.s.s.s.s.s.s.s.s.s.s.s.s.s.s.s.s.s.s.s.s.s.s.s.s.s.",
"s.s.s.s.s.s.s.s.s.s.s.s.s.s.s.s.s.s.s.s.s.s.s.s.s.s.s.s.s.s.s.s.s.s.s.s.s.s.s.s.s.s.s.s.s.s.s.s.s.s."
};
