/* XPM */
static char *result[] = {
/* columns rows colors chars-per-pixel */
"50 50 45 1 ",
"  c #D88500",
". c #DD8800",
"X c #E48C00",
"o c #E48E00",
"O c #E58F00",
"+ c #E88F00",
"@ c #E89D00",
"# c #E89F00",
"$ c #F49600",
"% c #F59A00",
"& c #F7A100",
"* c #F2A500",
"= c #F7A400",
"- c #F9B300",
"; c #FEBF00",
": c #F9C200",
"> c #FEC000",
", c #FFC300",
"< c #F9C400",
"1 c #FFCE00",
"2 c #FFD200",
"3 c #FEDA00",
"4 c #FFDC00",
"5 c #FFDC09",
"6 c #FFDD10",
"7 c #FFE500",
"8 c #FFF000",
"9 c yellow",
"0 c #FFFF03",
"q c #FFFF0E",
"w c #FFDC28",
"e c #FFFF25",
"r c #FFFF3A",
"t c #FFDC54",
"y c #FFFF40",
"u c #FFFF50",
"i c #FFDC61",
"p c #FFDC6A",
"a c #FFFF87",
"s c #FFFF95",
"d c #FFFFD7",
"f c #FFFFE8",
"g c #FFFFEF",
"h c white",
"j c None",
/* pixels */
"jjjjjjjjjjjjjjjjjjjjjjjjjjjjjjjjjjjjjjjjjjjjjjjjjj",
"jjjjjjjjjjjjjjjjjjjjjjjjjjjjjjjjjjjjjjjjjjjjjjjjjj",
"jjjjjjjjjjjjjjjjjjjjjjjjjjjjjjjjjjjjjjjjjjjjjjjjjj",
"jjjjjjjjjjjjjjjjjjjjjjjjjjjjjjjjjjjjjjjjjjjjjjjjjj",
"jjjjjjjjjjjjjjjjjjjjjjjjjjjjjjjjjjjjjjjjjjjjjjjjjj",
"jjjjjjjjjjjjjjjjjjjjjjjjjjjjjjjjjjjjjjjjjjjjjjjjjj",
"jjjjjjjjjjjjjjjjjjjjjjjjjjjjjjjjjjjjjjjjjjjjjjjjjj",
"jjjjjjjjjjjjjjjjjjjjjjjjjjjjjjjjjjjjjjjjjjjjjjjjjj",
"jjjjjjjjjjjjjjjjjjjjjjjjjjjjjjjjjjjjjjjjjjjjjjjjjj",
"jjjjjjjjjjjjjjjjjjjjjjjjjjjjjjjjjjjjjjjjjjjjjjjjjj",
"jjjjjjjjjjjjjjjjjjjjjjjjjjjjjjjjjjjjjjjjjjjjjjjjjj",
"jjjjjjjjjjjjjjjjjjjjjjjjjjjjjjjjjjjjjjjjjjjjjjjjjj",
"jjjjjjjjjjjjjjjjjjjjjjjjjjjjjjjjjjjjjjjjjjjjjjjjjj",
"jjjjjjjjjjjjjjjjjjjjjjjjjjjjjjjjjjjjjjjjjjjjjjjjjj",
"jjjjjjjjjjjjjjjjjjjjjjjjjjjjjjjjjjjjjjjjjjjjjjjjjj",
"jjjjjjjjjjjjjjjjjjjjjjjj,,jjjjjjjjjjjjjjjjjjjjjjjj",
"jjjjjjjjjjjjjjjjjjjjjjj1441jjjjjjjjjjjjjjjjjjjjjjj",
"jjjjjjjjjjjjjjjjjjjjjj16yy61jjjjjjjjjjjjjjjjjjjjjj",
"jjjjjjjjjjjjjjjjjjjjj,5uhhu5,jjjjjjjjjjjjjjjjjjjjj",
"jjjjjjjjjjjjjjjjjjjjj,ighhgi,jjjjjjjjjjjjjjjjjjjjj",
"jjjjjjjjjjjjjjjjjjjjj,phhhhp,jjjjjjjjjjjjjjjjjjjjj",
"jjjjjjjjjjjjjjjjjjjjj,tdhhdt,jjjjjjjjjjjjjjjjjjjjj",
"jjjjjjjjjjjjjjjjjjjjj,wahhaw,jjjjjjjjjjjjjjjjjjjjj",
"jjjjjjjjjjjjjjjjjjjjj,4rffr4,jjjjjjjjjjjjjjjjjjjjj",
"jjjjjjjjjjjjjjjjjjjjj;3esse3;jjjjjjjjjjjjjjjjjjjjj",
"jjjjjjjjjjjjjjjjjjjjj%<0qq0<%jjjjjjjjjjjjjjjjjjjjj",
"jjjjjjjjjjjjjjjjjjjjj$:9999:$jjjjjjjjjjjjjjjjjjjjj",
"jjjjjjjjjjjjjjjjjjjjj$-7997-$jjjjjjjjjjjjjjjjjjjjj",
"jjjjjjjjjjjjjjjjjjjjj+*2992*+jjjjjjjjjjjjjjjjjjjjj",
"jjjjjjjjjjjjjjjjjjjjj #1881# jjjjjjjjjjjjjjjjjjjjj",
"jjjjjjjjjjjjjjjjjjjjj @>,,>@ jjjjjjjjjjjjjjjjjjjjj",
"jjjjjjjjjjjjjjjjjjjjj o=,,=o jjjjjjjjjjjjjjjjjjjjj",
"jjjjjjjjjjjjjjjjjjjjjj.O&&O.jjjjjjjjjjjjjjjjjjjjjj",
"jjjjjjjjjjjjjjjjjjjjjjj.XX.jjjjjjjjjjjjjjjjjjjjjjj",
"jjjjjjjjjjjjjjjjjjjjjjjj  jjjjjjjjjjjjjjjjjjjjjjjj",
"jjjjjjjjjjjjjjjjjjjjjjjjjjjjjjjjjjjjjjjjjjjjjjjjjj",
"jjjjjjjjjjjjjjjjjjjjjjjjjjjjjjjjjjjjjjjjjjjjjjjjjj",
"jjjjjjjjjjjjjjjjjjjjjjjjjjjjjjjjjjjjjjjjjjjjjjjjjj",
"jjjjjjjjjjjjjjjjjjjjjjjjjjjjjjjjjjjjjjjjjjjjjjjjjj",
"jjjjjjjjjjjjjjjjjjjjjjjjjjjjjjjjjjjjjjjjjjjjjjjjjj",
"jjjjjjjjjjjjjjjjjjjjjjjjjjjjjjjjjjjjjjjjjjjjjjjjjj",
"jjjjjjjjjjjjjjjjjjjjjjjjjjjjjjjjjjjjjjjjjjjjjjjjjj",
"jjjjjjjjjjjjjjjjjjjjjjjjjjjjjjjjjjjjjjjjjjjjjjjjjj",
"jjjjjjjjjjjjjjjjjjjjjjjjjjjjjjjjjjjjjjjjjjjjjjjjjj",
"jjjjjjjjjjjjjjjjjjjjjjjjjjjjjjjjjjjjjjjjjjjjjjjjjj",
"jjjjjjjjjjjjjjjjjjjjjjjjjjjjjjjjjjjjjjjjjjjjjjjjjj",
"jjjjjjjjjjjjjjjjjjjjjjjjjjjjjjjjjjjjjjjjjjjjjjjjjj",
"jjjjjjjjjjjjjjjjjjjjjjjjjjjjjjjjjjjjjjjjjjjjjjjjjj",
"jjjjjjjjjjjjjjjjjjjjjjjjjjjjjjjjjjjjjjjjjjjjjjjjjj",
"jjjjjjjjjjjjjjjjjjjjjjjjjjjjjjjjjjjjjjjjjjjjjjjjjj"
};
