/* XPM */
static char *result[] = {
/* columns rows colors chars-per-pixel */
"50 50 90 1 ",
"  c #CE6D00",
". c #D36F00",
"X c #C67400",
"o c #CF7200",
"O c #D17300",
"+ c #DD7500",
"@ c #D37B00",
"# c #E47700",
"$ c #EA7A00",
"% c #F17D00",
"& c #D78300",
"* c #DC8500",
"= c #D78A00",
"- c #DC8E00",
"; c #DA9400",
": c #E48000",
"> c #EF8300",
", c #E18C00",
"< c #ED8E00",
"1 c #F28400",
"2 c #F38A00",
"3 c #E19100",
"4 c #E19C00",
"5 c #F59400",
"6 c #F49F00",
"7 c #F99B00",
"8 c #E1A700",
"9 c #EBA300",
"0 c #EDAB00",
"q c #F7A100",
"w c #FAA300",
"e c #F2A900",
"r c #FCAC00",
"t c #E5B200",
"y c #ECB300",
"u c #E5B900",
"i c #ECBA00",
"p c #FCB500",
"a c #FEBB00",
"s c #F8B723",
"d c #F8B53E",
"f c #EDCD00",
"g c #F7C100",
"h c #FEC400",
"j c #FDCC01",
"k c #F5D200",
"l c #FDD300",
"z c #F3DF00",
"x c #FEDB00",
"c c #FFC913",
"v c #FFDD18",
"b c #FEE400",
"n c #F5EB00",
"m c #FFEC00",
"M c #FFEB0C",
"N c #FEF400",
"B c #FFFE00",
"V c #FFE918",
"C c #FFFF1E",
"Z c #FFC921",
"A c #FFDC24",
"S c #FFFF25",
"D c #FFFC2E",
"F c #FFFF34",
"G c #FFFE3C",
"H c #FFD34F",
"J c #FFFF52",
"K c #FDE06C",
"L c #FFFD63",
"P c #FFFF6E",
"I c #FFFF75",
"U c #FFFF7B",
"Y c #FFFF8D",
"T c #FFF796",
"R c #FFFF91",
"E c #FFFB9B",
"W c #FFFFA7",
"Q c #FFFFAC",
"! c #FFFFB4",
"~ c #FFFFBD",
"^ c #FFF2C1",
"/ c #FFFFC3",
"( c #FFFFCB",
") c #FFFFD3",
"_ c #FFFEDD",
"` c #FFFDE5",
"' c #FFFFEB",
"] c #FFFFF4",
"[ c #FFFFFE",
"{ c None",
/* pixels */
"{{{{{{{{{{{{{{{{{{{{{{{{{{{{{{{{{{{{{{{{{{{{{{{{{{",
"{{{{{{{{{{{{{{{{{{{{{{{{{{{{{{{{{{{{{{{{{{{{{{{{{{",
"{{{{{{{{{{{{{{{{{{{{{{{{{{{{{{{{{{{{{{{{{{{{{{{{{{",
"{{{{{{{{{{{{{{{{{{{{{{{{{{{{{{{{{{{{{{{{{{{{{{{{{{",
"{{{{{{{{{{{{{{{{{{{{{{{{{{{{{{{{{{{{{{{{{{{{{{{{{{",
"{{{{{{{{{{{{{{{{{{{{{{{{{{{{{{{{{{{{{{{{{{{{{{{{{{",
"{{{{{{{{{{{{{{{{{{{{{{{{{{{{{{{{{{{{{{{{{{{{{{{{{{",
"{{{{{{{{{{{{{{{{{{{{{{{{{{{{{{{{{{{{{{{{{{{{{{{{{{",
"{{{{{{{{{{{{{{{{{{{{{{{{{{{{{{{{{{{{{{{{{{{{{{{{{{",
"{{{{{{{{{{{{{{{{{{{{{{{{{{{{{{{{{{{{{{{{{{{{{{{{{{",
"{{{{{{{{{{{{{{{{{{{{{{{{{{{{{{{{{{{{{{{{{{{{{{{{{{",
"{{{{{{{{{{{{{{{{{{{{{{{{{{{{{{{{{{{{{{{{{{{{{{{{{{",
"{{{{{{{{{{{{{{{{{{{{!)[[]Fmaaa{{{{{{{{{{{{{{{{{{{{",
"{{{{{{{{{{{{{{{{{{{{RE/(QCNxxx{{{{{{{{{{{{{{{{{{{{",
"{{{{{{{{{{{{{{{{{Q_[JBBBBBBBBBh{{{{{{{{{{{{{{{{{{{",
"{{{{{{{{{{{{{{{{/`~PVlgittigxNNx{{{{{{{{{{{{{{{{{{",
"{{{{{{{{{{{{{{{~/_UNhw1+  +$7jBml{{{{{{{{{{{{{{{{{",
"{{{{{{{{{{{{{{{[_JMh62>${{O.$7jNBl{{{{{{{{{{{{{{{{",
"{{{{{{{{{{{{{{{[`Sba711{{{{O#27mBlh{{{{{{{{{{{{{{{",
"{{{{{{{{{{{{{WQ'`Sxa{{{{{{{{{{%lBxh{{{{{{{{{{{{{{{",
"{{{{{{{{{{{{{WQ'`Aa5{{{{{{{{{{1pbBj$1{{{{{{{{{{{{{",
"{{{{{{{{{{{{{))(Tcw%{{{{{{{{{{1rxBl%1{{{{{{{{{{{{{",
"{{{{{{{{{{{{{[[IBhp{{{{{{{{{{{{ajBx>1{{{{{{{{{{{{{",
"{{{{{{{{{{{{{[[PNha{{{{{{{{{{{{hxBk12{{{{{{{{{{{{{",
"{{{{{{{{{{{{{[[IBha{{{{{{{{{{{{hlBl1>{{{{{{{{{{{{{",
"{{{{{{{{{{{{{[[IBhp{{{{{{{{{{{{hlBx22{{{{{{{{{{{{{",
"{{{{{{{{{{{{{[[QDja{{{{{{{{{{{{hlBk+:{{{{{{{{{{{{{",
"{{{{{{{{{{{{{[[]Eca{{{{{{{{{{{{hxBfoo{{{{{{{{{{{{{",
"{{{{{{{{{{{{{HH^_Zq%{{{{{{{{{{1jBBfoO{{{{{{{{{{{{{",
"{{{{{{{{{{{{{rrKWvp5{{{{{{{{{27xBnuXo{{{{{{{{{{{{{",
"{{{{{{{{{{{{{22kBBba{{{{{{{{%5amN;@{{{{{{{{{{{{{{{",
"{{{{{{{{{{{{{{{pjBBmxr1{{{{17amBN;o{{{{{{{{{{{{{{{",
"{{{{{{{{{{{{{{{<6bBBbaqs{{d6abBBz;{{{{{{{{{{{{{{{{",
"{{{{{{{{{{{{{{{*3amBBBNL_[QBBNx0={{{{{{{{{{{{{{{{{",
"{{{{{{{{{{{{{{{{-9yfbmmGUWLmNx9,{{{{{{{{{{{{{{{{{{",
"{{{{{{{{{{{{{{{{{&@&0ahbBBbaae@{{{{{{{{{{{{{{{{{{{",
"{{{{{{{{{{{{{{{{{{{{=334884,,&{{{{{{{{{{{{{{{{{{{{",
"{{{{{{{{{{{{{{{{{{{{X@@@@@OO@X{{{{{{{{{{{{{{{{{{{{",
"{{{{{{{{{{{{{{{{{{{{{{{{{{{{{{{{{{{{{{{{{{{{{{{{{{",
"{{{{{{{{{{{{{{{{{{{{{{{{{{{{{{{{{{{{{{{{{{{{{{{{{{",
"{{{{{{{{{{{{{{{{{{{{{{{{{{{{{{{{{{{{{{{{{{{{{{{{{{",
"{{{{{{{{{{{{{{{{{{{{{{{{{{{{{{{{{{{{{{{{{{{{{{{{{{",
"{{{{{{{{{{{{{{{{{{{{{{{{{{{{{{{{{{{{{{{{{{{{{{{{{{",
"{{{{{{{{{{{{{{{{{{{{{{{{{{{{{{{{{{{{{{{{{{{{{{{{{{",
"{{{{{{{{{{{{{{{{{{{{{{{{{{{{{{{{{{{{{{{{{{{{{{{{{{",
"{{{{{{{{{{{{{{{{{{{{{{{{{{{{{{{{{{{{{{{{{{{{{{{{{{",
"{{{{{{{{{{{{{{{{{{{{{{{{{{{{{{{{{{{{{{{{{{{{{{{{{{",
"{{{{{{{{{{{{{{{{{{{{{{{{{{{{{{{{{{{{{{{{{{{{{{{{{{",
"{{{{{{{{{{{{{{{{{{{{{{{{{{{{{{{{{{{{{{{{{{{{{{{{{{",
"{{{{{{{{{{{{{{{{{{{{{{{{{{{{{{{{{{{{{{{{{{{{{{{{{{"
};
