/* XPM */
static char *result[] = {
/* columns rows colors chars-per-pixel */
"50 50 91 1 ",
"  c #D88500",
". c #DB8A00",
"X c #DF8900",
"o c #E48C00",
"O c #E48E00",
"+ c #E88F00",
"@ c #E59100",
"# c #E99300",
"$ c #E89D00",
"% c #F49600",
"& c #F39900",
"* c #F59A00",
"= c #F59B00",
"- c #F69E00",
"; c #EAA200",
": c #EEA700",
"> c #EFA800",
", c #EFA900",
"< c #F7A100",
"1 c #F6A200",
"2 c #F7A400",
"3 c #F8A600",
"4 c #F7A903",
"5 c #F9A900",
"6 c #F9AA00",
"7 c #F9AB00",
"8 c #EFBE00",
"9 c #FBB100",
"0 c #FCB500",
"q c #FCB800",
"w c #FCB900",
"e c #FEBF00",
"r c #F6C200",
"t c #FDC000",
"y c #FEC000",
"u c #FEC100",
"i c #FFC100",
"p c #FFC200",
"a c #FFC300",
"s c #FAC500",
"d c #FFC400",
"f c #FDC600",
"g c #FFC700",
"h c #F4CF00",
"j c #FFC800",
"k c #FFC900",
"l c #FECD00",
"z c #FAD300",
"x c #FFD100",
"c c #FFD300",
"v c #FBD500",
"b c #FFD600",
"n c #FCD800",
"m c #FED900",
"M c #FFD900",
"N c #FCDB00",
"B c #FFDC00",
"V c #FFDF09",
"C c #FFDD0A",
"Z c #FFCD1B",
"A c #FFE400",
"S c #FFE600",
"D c #FFE800",
"F c #FFF000",
"G c #FEF200",
"H c #FFF103",
"J c yellow",
"K c #FFFF06",
"L c #FFF00A",
"P c #FFFF10",
"I c #FEF725",
"U c #FFFE25",
"Y c #FFFF2B",
"T c #FFE637",
"R c #FFFF3E",
"E c #FFFF4E",
"W c #FFFC61",
"Q c #FFFF61",
"! c #FFE670",
"~ c #FFE675",
"^ c #FFF070",
"/ c #FFFA9E",
"( c #FFFFA2",
") c #FFF0AE",
"_ c #FFF0BF",
"` c #FFF6BF",
"' c #FFFFC9",
"] c #FFFFDA",
"[ c LightYellow",
"{ c #FFFFEF",
"} c None",
/* pixels */
"}}}}}}}}}}}}}}}}}}}}}}}}}}}}}}}}}}}}}}}}}}}}}}}}}}",
"}}}}}}}}}}}}}}}}}}}}}}}}}}}}}}}}}}}}}}}}}}}}}}}}}}",
"}}}}}}}}}}}}}}}}}}}}}}}}}}}}}}}}}}}}}}}}}}}}}}}}}}",
"}}}}}}}}}}}}}}}}}}}}}}}}}}}}}}}}}}}}}}}}}}}}}}}}}}",
"}}}}}}}}}}}}}}}}}}}}}}}}}}}}}}}}}}}}}}}}}}}}}}}}}}",
"}}}}}}}}}}}}}}}}}}}}}}}}}}}}}}}}}}}}}}}}}}}}}}}}}}",
"}}}}}}}}}}}}}}}}}}}}}}}}}}}}}}}}}}}}}}}}}}}}}}}}}}",
"}}}}}}}}}}}}}}}}}}}}}}}}}}}}}}}}}}}}}}}}}}}}}}}}}}",
"}}}}}}}}}}}}}}}}}}}}}}}}}}}}}}}}}}}}}}}}}}}}}}}}}}",
"}}}}}}}}}}}}}}}}}}}}}}}}}}}}}}}}}}}}}}}}}}}}}}}}}}",
"}}}}}}}}}}}}}}}}}}}}}}}}}}}}}}}}}}}}}}}}}}}}}}}}}}",
"}}}}}}}}}}}}}}}}}}}}}}}}}}}}}}}}}}}}}}}}}}}}}}}}}}",
"}}}}}}}}}}}}}}}}}}}}}}}}}}}}}}}}}}}}}}}}}}}}}}}}}}",
"}}}}}}}}}}}}}}}}}}}}}}}}}}}}}}}}}}}}}}}}}}}}}}}}}}",
"}}}}}}}}}}}}}}}}}}}}}}}}}}}}}}}}}}}}}}}}}}}}}}}}}}",
"}}}}}}}}}}}}}}}}}}}}}}}aaaa}}}}}}}}}}}}}}}}}}}}}}}",
"}}}}}}}}}}}}}}}}}}}}}}cBBBka}}}}}}}}}}}}}}}}}}}}}}",
"}}}}}}}}}}}}}}}}}}}}}aBPRYCka}}}}}}}}}}}}}}}}}}}}}",
"}}}}}}}}}}}}}}}}}}}}}jVE{/UBy}}}}}}}}}}}}}}}}}}}}}",
"}}}}}}}}}}}}}}}}}}}}aAW]/ZHB9%}}}}}}}}}}}}}}}}}}}}",
"}}}}}}}}}}}}}}}}}}}}a!]'I4fAmq}}}}}}}}}}}}}}}}}}}}",
"}}}}}}}}}}}}}}}}}}}}a~[`M}3NN5}}}}}}}}}}}}}}}}}}}}",
"}}}}}}}}}}}}}}}}}}}}aT(_a}%zz%}}}}}}}}}}}}}}}}}}}}",
"}}}}}}}}}}}}}}}}}}}}aSQ)a}%zz%}}}}}}}}}}}}}}}}}}}}",
"}}}}}}}}}}}}}}}}}}}}eAR^a}*vz%}}}}}}}}}}}}}}}}}}}}",
"}}}}}}}}}}}}}}}}}}}}*vKLa}eAz%}}}}}}}}}}}}}}}}}}}}",
"}}}}}}}}}}}}}}}}}}}}%zJFa}<nz%}}}}}}}}}}}}}}}}}}}}",
"}}}}}}}}}}}}}}}}}}}}%zJFa}%zho}}}}}}}}}}}}}}}}}}}}",
"}}}}}}}}}}}}}}}}}}}}+rFFi}%s8 }}}}}}}}}}}}}}}}}}}}",
"}}}}}}}}}}}}}}}}}}}} ,bDl=-0, }}}}}}}}}}}}}}}}}}}}",
"}}}}}}}}}}}}}}}}}}}} >uxG1wt: }}}}}}}}}}}}}}}}}}}}",
"}}}}}}}}}}}}}}}}}}}}}&7dgyp;.}}}}}}}}}}}}}}}}}}}}}",
"}}}}}}}}}}}}}}}}}}}}}X#<2y6@ }}}}}}}}}}}}}}}}}}}}}",
"}}}}}}}}}}}}}}}}}}}}}}XoO$@X}}}}}}}}}}}}}}}}}}}}}}",
"}}}}}}}}}}}}}}}}}}}}}}}    }}}}}}}}}}}}}}}}}}}}}}}",
"}}}}}}}}}}}}}}}}}}}}}}}}}}}}}}}}}}}}}}}}}}}}}}}}}}",
"}}}}}}}}}}}}}}}}}}}}}}}}}}}}}}}}}}}}}}}}}}}}}}}}}}",
"}}}}}}}}}}}}}}}}}}}}}}}}}}}}}}}}}}}}}}}}}}}}}}}}}}",
"}}}}}}}}}}}}}}}}}}}}}}}}}}}}}}}}}}}}}}}}}}}}}}}}}}",
"}}}}}}}}}}}}}}}}}}}}}}}}}}}}}}}}}}}}}}}}}}}}}}}}}}",
"}}}}}}}}}}}}}}}}}}}}}}}}}}}}}}}}}}}}}}}}}}}}}}}}}}",
"}}}}}}}}}}}}}}}}}}}}}}}}}}}}}}}}}}}}}}}}}}}}}}}}}}",
"}}}}}}}}}}}}}}}}}}}}}}}}}}}}}}}}}}}}}}}}}}}}}}}}}}",
"}}}}}}}}}}}}}}}}}}}}}}}}}}}}}}}}}}}}}}}}}}}}}}}}}}",
"}}}}}}}}}}}}}}}}}}}}}}}}}}}}}}}}}}}}}}}}}}}}}}}}}}",
"}}}}}}}}}}}}}}}}}}}}}}}}}}}}}}}}}}}}}}}}}}}}}}}}}}",
"}}}}}}}}}}}}}}}}}}}}}}}}}}}}}}}}}}}}}}}}}}}}}}}}}}",
"}}}}}}}}}}}}}}}}}}}}}}}}}}}}}}}}}}}}}}}}}}}}}}}}}}",
"}}}}}}}}}}}}}}}}}}}}}}}}}}}}}}}}}}}}}}}}}}}}}}}}}}",
"}}}}}}}}}}}}}}}}}}}}}}}}}}}}}}}}}}}}}}}}}}}}}}}}}}"
};
