/* XPM */
static char *result[] = {
/* columns rows colors chars-per-pixel */
"50 50 193 2 ",
"   c #030302",
".  c #0B0600",
"X  c #0E0900",
"o  c #0E0D0A",
"O  c #140B00",
"+  c #1A0E00",
"@  c #171101",
"#  c #1A1200",
"$  c #1D1803",
"%  c #13120D",
"&  c #1F1C08",
"*  c #161614",
"=  c #221500",
"-  c #231C02",
";  c #221F0F",
":  c #2F2300",
">  c #2A260F",
",  c #2C280F",
"<  c #272003",
"1  c #292513",
"2  c #2D2910",
"3  c #23221F",
"4  c #35321F",
"5  c #2E2E2D",
"6  c #242320",
"7  c #3C3B2A",
"8  c #363428",
"9  c #333332",
"0  c #3B3B3A",
"q  c #393934",
"w  c #5D5214",
"e  c #655505",
"r  c #6C5A03",
"t  c #6B5B0D",
"y  c #675811",
"u  c #786700",
"i  c #736514",
"p  c #796A18",
"a  c #47432D",
"s  c #43423C",
"d  c #494634",
"f  c #514D3D",
"g  c #55523D",
"h  c #5B563D",
"j  c #6A612F",
"k  c #746722",
"l  c #776A25",
"z  c #6A633A",
"x  c #726B3B",
"c  c #726934",
"v  c #7B723D",
"b  c #454544",
"n  c #4B4B47",
"m  c #4B4B4B",
"M  c #5E5A47",
"N  c #52514D",
"B  c #565340",
"V  c #5F5F5A",
"C  c #575755",
"Z  c #605F4E",
"A  c #6A6549",
"S  c #706B48",
"D  c #7B7343",
"F  c #77725B",
"G  c #696768",
"H  c #71716E",
"J  c #7A7764",
"K  c #757575",
"L  c #7C7C7C",
"P  c #84710A",
"I  c #85741C",
"U  c #8D7A1C",
"Y  c #837323",
"T  c #887821",
"R  c #86772A",
"E  c #877D41",
"W  c #827C54",
"Q  c #9A880D",
"!  c #AD970F",
"~  c #B39C16",
"^  c #A79416",
"/  c #BBA416",
"(  c #9B872B",
")  c #9A892C",
"_  c #938423",
"`  c #9C8D3B",
"'  c #998A35",
"]  c #A99627",
"[  c #A89528",
"{  c #B09C2F",
"}  c #A28F30",
"|  c #AB9A3C",
" . c #A89738",
".. c #BAA52F",
"X. c #B5A232",
"o. c #B9A532",
"O. c #B3A13C",
"+. c #BBA83A",
"@. c #D1B81E",
"#. c #C2AB24",
"$. c #D1BC36",
"%. c #CAB42A",
"&. c #ECCC03",
"*. c #EECE09",
"=. c #F0CF08",
"-. c #EFD10E",
";. c #F5D506",
":. c #FBD805",
">. c #F4D40B",
",. c #F8D708",
"<. c #FAD90B",
"1. c #F8D604",
"2. c #E9CE1F",
"3. c #EFD011",
"4. c #F5D613",
"5. c #F7D814",
"6. c #FADB13",
"7. c #F1D31B",
"8. c #F7DA1D",
"9. c #FDDE1B",
"0. c #FEE01E",
"q. c #DCC52D",
"w. c #DCC637",
"e. c #E4CB2E",
"r. c #EDD228",
"t. c #EED227",
"y. c #FDDF23",
"u. c #F5DA2D",
"i. c #FCDF2C",
"p. c #F2D728",
"a. c #E1CA3D",
"s. c #EED73D",
"d. c #F7DD32",
"f. c #FADF33",
"g. c #F4DB3E",
"h. c #F9DE3C",
"j. c #FEE021",
"k. c #FCE02C",
"l. c #FDE233",
"z. c #FCE23D",
"x. c #918648",
"c. c #AFA258",
"v. c #B8AB58",
"b. c #BEB15E",
"n. c #8C8662",
"m. c #999263",
"M. c #928E7A",
"N. c #A59C68",
"B. c #A59E75",
"V. c #AFA564",
"C. c #B8AD66",
"Z. c #B8AE6E",
"A. c #BCB26A",
"S. c #AAA379",
"D. c #D3BF42",
"F. c #CCBB56",
"G. c #C6BA6E",
"H. c #C8BC6E",
"J. c #C7BA61",
"K. c #C5BA72",
"L. c #C4B773",
"P. c #DECB5D",
"I. c #E3CE47",
"U. c #F3DB40",
"Y. c #FCE443",
"T. c #FFE845",
"R. c #FDE54D",
"E. c #FEE84A",
"W. c #FCE652",
"Q. c #FFE953",
"!. c #FCE659",
"~. c #FFEA5A",
"^. c #F6E157",
"/. c #DBCE74",
"(. c #E9D767",
"). c #F0DE6F",
"_. c #E9DB7F",
"`. c #FFEC65",
"'. c #FFED6C",
"]. c #FAE560",
"[. c #FFED74",
"{. c #FEEC7F",
"}. c #94938F",
"|. c #959481",
" X c #989898",
".X c gray66",
"XX c #D5CA8A",
"oX c #E4D996",
"OX c #FBEB82",
"+X c #FBEC8A",
"@X c #C8C6B5",
"#X c #CDCDCA",
"$X c None",
/* pixels */
"$X$X$X$X$X$X$X$X$X$X$X$X$X$X$X$X$Xm                             K $X$X$X$X$X$X$X$X$X$X$X$X$X$X$X$X$X",
"$X$X$X$X$X$X$X$X$X$X$X$X$X$X$X$X$XM 2 2 , , > , > > , , , , 2 2 J $X$X$X$X$X$X$X$X$X$X$X$X$X$X$X$X$X",
"$X$X$X$X$X$X$X$X$X$X$Xm 9 9 9 5 7 m.K.H.H.H.H.H.H.H.H.H.H.H.H.K.W 8 5 9 9 9 L $X$X$X$X$X$X$X$X$X$X$X",
"$X$X$X$X$X$X$X$X$X$X$X3         . V.OXOX{.{.{.OX{.{.{.{.{.{.OXOXE .         V $X$X$X$X$X$X$X$X$X$X$X",
"$X$X$X$X$X$X$X$X$X$X$X8 & $ $ & - v.[.'.'.'.'.`.'.`.`.'.`.'.`.'.) - - - - - A $X$X$X$X$X$X$X$X$X$X$X",
"$X$X$X$X$X$X$X$Xb s d B.A.A.A.A.b.(.^.W.R.Y.z.U.z.Y.Y.Y.z.Y.Y.U.w...o.o.o.O.E d s G $X$X$X$X$X$X$X$X",
"$X$X$X$X$X$X$X$Xo   X XX+XOXOXOX{.!.Y.z.i.y.y.y.y.y.j.y.j.y.y.y.k.i.i.i.i.g.) .   q $X$X$X$X$X$X$X$X",
"$X$X$X$X$X$X#X@Xd - : /.[.'.`.`.~.Y.l.k.y.9.9.9.9.9.9.9.9.9.9.9.9.0.0.j.j.u.^ : - S @X#X$X$X$X$X$X$X",
"$X$X$X$X$XG n B n.V.v.(.^.!.R.Y.Y.p.7.4.>.-.;.-.>.-.>.=.>.=.>.=.6.j.j.0.j.k.q.{ | D f n $X$X$X$X$X$X",
"$X$X$X$X$Xb   # N.+X{.!.Y.z.f.k.y.>.&.&.&.&.&.&.&.&.&.&.&.&.&.&.>.0.j.j.0.j.y.k.U.R O   % $X$X$X$X$X",
"$X$X$X$X$Xd X - c.[.`.R.z.l.j.y.9.>.&.&.&.&.&.&.&.&.&.&.&.&.&.&.>.0.0.0.0.j.0.0.i.U # O > $X$X$X$X$X",
"$X$Xb % 1 S.oX_.).^.Y.h.i.i.4.*.&.5.9.9.9.9.9.0.9.9.9.9.9.9.9.9.5.&.&.4.0.j.j.j.i.s.I.P.x.$ % C $X$X",
"$X$X9   $ Z.+X[.].Y.z.k.j.j.*.&.&.6.j.j.j.j.j.k.j.j.j.j.y.9.0.0.>.&.&.>.0.0.j.j.y.i.k.h.x.O   n $X$X",
"$X$X9   $ C.OX'.^.Y.l.y.0.0.=.&.&.6.j.j.k.l.l.d.f.f.l.l.f.k.j.0.5.&.&.4.0.0.0.0.y.9.j.i.} .   n $X$X",
"$X$X9   $ C.OX'.R.d.k.3.*.>.6.9.9.9.j.k.T.~.`.`.`.`.`.`.`.z.j.j.9.9.9.5.&.;.4.j.j.j.j.f.' .   n $X$X",
"$X$X9   $ C.OX`.Y.i.0.*.&.&.9.9.j.j.j.k.R.[.[.[.[.[.[.[.'.E.j.j.0.0.0.5.&.&.>.0.j.j.j.i.` .   n $X$X",
"$X$X7 . - v.[.`.Y.y.0.*.&.&.9.j.y.k.f.f.W.'.'.`.'.'.'.'.`.Y.j.0.0.0.0.5.&.&.7.k.k.k.j.l.} + . f $X$X",
"0 n N.A.J.(.!.Y.p.*.>.6.6.9.9.j.k.T.~.~.Y.h.d.d.d.l.d.l.l.8.5.>.9.0.0.9.9.8.l.Q.Q.z.k.j.e.#.+.x.a 0 ",
"  1 K.OX[.!.Y.f.7.&.&.9.y.0.j.j.k.Q.[.'.z.5.<.5.5.<.5.<.5.,.;.;.6.0.j.0.j.k.R.'.[.R.f.j.j.y.f.| #   ",
"  > G.OX'.W.z.l.7.&.&.9.j.9.j.j.l.Q.{.'.z.5.<.<.<.,.<.,.<.;.;.;.5.0.0.j.j.k.R.[.[.W.f.j.0.0.i. .#   ",
"  > G.{.'.R.i.j.4.&.&.9.0.j.j.j.i.~.[.[.h.5.:.<.;.<.<.;.<.;.;.;.6.0.j.j.j.k.R.'.[.R.f.0.9.<.8.{ #   ",
"  > G.{.'.U.y.9.*.&.&.9.0.j.0.j.i.~.[.'.z.5.,.<.<.<.<.<.<.,.,.;.5.0.j.0.j.k.R.[.[.Q.f.y.9.:.>.] #   ",
"  > G.{.'.Y.y.9.=.&.&.9.0.j.0.y.f.~.[.[.z.5.:.<.<.<.<.<.<.,.;.;.6.0.j.0.j.k.R.'.[.Q.l.0.6.:.<.] +   ",
"  > G.{.'.Y.y.9.>.&.&.9.0.0.j.y.i.~.[.[.z.5.<.<.<.<.<.<.<.,.;.;.5.0.j.0.j.i.R.[.[.R.f.0.0.:.<.] @   ",
"  > K.{.'.Y.k.0.>.&.&.9.9.y.j.j.k.~.[.[.z.;.<.<.<.<.<.;.<.1.;.;.6.0.j.j.j.k.W.'.[.R.f.j.9.:.<.] @   ",
"  > A.{.`.Y.0.0.*.&.&.9.y.9.0.y.l.~.[.'.z.0.<.;.<.<.<.1.<.<.;.;.5.0.j.0.j.k.R.'.[.E.f.0.6.:.4.] @   ",
"  > G.{.'.Y.y.9.>.&.&.9.9.y.0.y.k.!.[.'.z.5.<.<.<.<.<.<.<.;.;.;.6.0.0.j.j.i.R.[.[.R.l.0.6.:.4.] @   ",
"  > G.{.`.z.y.0.>.&.&.9.j.j.j.j.k.~.[.'.z.5.<.<.,.<.<.<.<.;.;.;.6.0.j.j.j.i.R.[.[.R.l.0.6.:.<.] +   ",
"  > G.OX'.Y.y.9.>.&.&.9.0.j.j.j.k.!.[.'.z.<.<.<.<.<.<.;.<.<.;.;.6.0.0.0.j.i.R.'.[.R.l.0.<.:.<.] @   ",
"  > G.{.`.Y.y.9.-.&.&.9.0.j.j.j.l.!.[.[.z.5.;.<.:.<.<.<.<.;.;.;.5.0.0.j.j.k.W.[.[.Q.f.j.0.:.5.] @   ",
"  > L.{.'.Y.y.9.>.&.&.0.0.j.j.j.k.~.[.[.z.5.<.<.;.<.<.<.<.;.;.;.6.0.j.j.9.k.R.[.[.R.l.9.6.:.6.[ @   ",
"  > L.OX'.Y.y.0.-.&.&.0.0.0.j.j.k.Q.[.`.z.<.<.<.<.<.<.<.<.<.;.;.5.0.j.j.j.f.R.'.'.E.f.j.9.>.t.} $   ",
"$XM S j l w.y.0.5.5.5.>.>.>.0.j.j.z.Y.T.y.>.1.,.;.;.;.;.;.<.6.6.9.j.j.z.E.~.Q.R.E.k.9.6.#.t y c h $X",
"$X$X9   $ X.p.9.0.0.0.&.&.&.9.0.j.j.j.j.5.;.;.;.;.;.;.;.1.6.0.j.j.j.i.E.[.[.E.l.j.<.:.5.) X   n $X$X",
"$X$X9   = X.u.9.9.0.0.*.&.&.9.9.0.0.j.j.5.;.,.;.;.;.;.;.;.9.0.j.j.i.f.E.`.'.R.k.j.6.:.6.( .   n $X$X",
"$X$X9   $ X.i.9.j.j.0.5.5.>.5.>.4.9.0.j.9.5.5.6.6.6.6.6.5.9.j.j.l.R.W.W.R.E.z.j.j.6.:.6.( .   n $X$X",
"$X$X9   $ X.i.y.j.j.j.0.j.0.;.&.&.9.0.j.0.0.0.y.y.9.0.0.j.j.j.i.W.[.[.Q.l.j.0.0.0.<.<.5.( .   n $X$X",
"$X$X0 . - O.g.u.i.j.0.j.j.0.-.&.&.8.j.k.k.k.i.k.k.k.k.k.k.k.k.f.R.'.'.Q.k.j.0.0.0.9.7.r.' X   m $X$X",
"$X$X.X}.M.x y u %.y.0.j.j.0.5.5.8.z.W.~.!.!.~.~.!.~.!.~.!.!.~.!.Q.E.Y.l.k.0.9.0.9.~ r e D |.}. X$X$X",
"$X$X$X$X$Xd   -  .i.j.j.0.0.0.0.k.Q.'.[.[.[.[.[.[.[.[.[.[.[.[.'.R.k.k.j.y.9.6.:.4.I +   @ $X$X$X$X$X",
"$X$X$X$X$Xb   -  .U.i.i.y.y.9.y.k.Q.'.[.[.[.[.[.[.[.[.[.[.[.[.'.E.j.0.j.j.j.6.7.t.Y +   * $X$X$X$X$X",
"$X$X$X$X$X$XH J z w e I.i.9.9.y.k.l.Y.Y.Y.Y.Y.Y.Y.Y.T.Y.Y.Y.Y.Y.k.6.<.<.<.5./ e w z F H $X$X$X$X$X$X",
"$X$X$X$X$X$X$X$X;   # D.i.9.j.j.y.k.k.k.k.k.k.k.k.l.k.k.k.k.i.i.0.<.:.:.:.5.Q + . 7 $X$X$X$X$X$X$X$X",
"$X$X$X$X$X$X$X$Xo   O F.U.d.f.d.i.y.y.0.j.0.j.j.0.0.0.0.j.j.9.y.9.5.5.7.4.r._ O   0 $X$X$X$X$X$X$X$X",
"$X$X$X$X$X$X$X$X$XN g x l k k k p @.6.6.6.6.<.<.<.<.6.<.6.<.<.4./ i i i i i D g N $X$X$X$X$X$X$X$X$X",
"$X$X$X$X$X$X$X$X$X$X$X1   .   . O ! <.:.:.:.:.:.:.:.:.:.1.1.1.3.P .   .   . V $X$X$X$X$X$X$X$X$X$X$X",
"$X$X$X$X$X$X$X$X$X$X$X6         X ] 7.5.<.6.5.5.5.5.6.5.4.4.3.t.p           V $X$X$X$X$X$X$X$X$X$X$X",
"$X$X$X$X$X$X$X$X$X$X$Xn 5 5 5 5 4 v R T T T T T I T T U T Y I R v 4 5 5 5 9 L $X$X$X$X$X$X$X$X$X$X$X",
"$X$X$X$X$X$X$X$X$X$X$X$X$X$X$X$X$Xf . . . . . . X X . o . . . . J $X$X$X$X$X$X$X$X$X$X$X$X$X$X$X$X$X",
"$X$X$X$X$X$X$X$X$X$X$X$X$X$X$X$X$Xm o                         o K $X$X$X$X$X$X$X$X$X$X$X$X$X$X$X$X$X"
};
