/* XPM */
static char *result[] = {
/* columns rows colors chars-per-pixel */
"50 50 21 1 ",
"  c black",
". c #282028",
"X c #400000",
"o c #700000",
"O c #383040",
"+ c #400168",
"@ c #484868",
"# c #900000",
"$ c #C00010",
"% c #E00000",
"& c #E82858",
"* c #E09060",
"= c #587090",
"- c #900188",
"; c #80A0B0",
": c #98C0C8",
"> c #B0D8D8",
", c #F0D0C0",
"< c #C8E8E0",
"1 c gray94",
"2 c None",
/* pixels */
"22222222222222222222222222222222222222222222222222",
"22222222222222222222222222222222222222222222222222",
"22222222222222222222222222222222222222222222222222",
"22222222222222222222222222222222222222222222222222",
"22222222222222222222222222222222222222222222222222",
"22222222222222222222222222222222222222222222222222",
"22222222222222222222222222222222222222222222222222",
"22222222222222222222==;;::;;==22222222222222222222",
"222222222222222222=;:::><<>:::;=222222222222222222",
"2222222222222222=;::::><11<>::::;=2222222222222222",
"222222222222222=;:::::><11<>:::::;=222222222222222",
"22222222222222=;;;:::::><<>:::::;;;=22222222222222",
"2222222222222@@@@@@@@@@@@@@@@@@@@@@@@2222222222222",
"2222222222222========================2222222222222",
"2222222===2;;;;;:::<<<111111<<<:::;;;;;2===2222222",
"22222@=;<;=@@@@@OOOOOOOOOOOOOOOOOO@@@@@=;<;=@22222",
"2222@=;:1;;;;;;:::<<<11111111<<<:::;;;;;;1:;=@2222",
"2222@=;:<;=@@@OOOOOOOOOOOOOOOOOOOOOO@@@=;<:;=@2222",
"222@==;;;;;;;:::<<<111111111111<<<:::;;;;;;;==@222",
"222@@==;=o##############################o=;==@@222",
"222@@@==@#$%%%%%%%%%%%%%**%%%%%%%%%%%%%$#@==@@@222",
"222@O@@@@#$%%%%%%%%%%%%*,,*%%%%%%%%%%%%$#@@@@O@222",
"2222@OO@#$%%%%%%%%%%%%%*,,*%%%%%%%%%%%%%$#@OO@2222",
"2222=OOO#$%%%%%%%%%%%%%%**%%%%%%%%%%%%%%$#OOO=2222",
"22222==@Xo##############################oX@==22222",
"2222222=$%******************************%$=2222222",
"22222222###$%%%%%%%%%%%%%%%%%%%%%%%%%%$###22222222",
"22222222o###$%%%%%%%%%%%%%%%%%%%%%%%%$###o22222222",
"22222222oo####$%%%%%%%%%%%%%%%%%%%%$####oo22222222",
"22222222Xooo####$$$$$$$$$$$$$$$$$$####oooX22222222",
"222222222 O@@@=@==;=;;;;;;;;;;=;==@=@@@O 222222222",
"222222222.          .O@@@@@@O.          .222222222",
"222222222O         .O@@@@@@@@O.         O222222222",
"222222222@.         .O@@@@@@O.         .@222222222",
"222222222@O.          .OOOO.          .O@222222222",
"222222222=@.            ..            .@=222222222",
"222222222=;O.                        .O;=222222222",
"222222222@:=O.                      .O=:@222222222",
"2222222222=<=O..  ++++++++++++++  ..O=<=2222222222",
"22222222222=<=OO.  ++--&&&&--++  .OO=<=22222222222",
"22222222222==:;@OO.. ++----++ ..OO@;:==22222222222",
"2222222222222====@OOO........OOO@====2222222222222",
"222222222222222@@@@22@@@@@@@@22@@@@222222222222222",
"22222222222222222222222222222222222222222222222222",
"22222222222222222222222222222222222222222222222222",
"22222222222222222222222222222222222222222222222222",
"22222222222222222222222222222222222222222222222222",
"22222222222222222222222222222222222222222222222222",
"22222222222222222222222222222222222222222222222222",
"22222222222222222222222222222222222222222222222222"
};
