/* XPM */
static char *result[] = {
/* columns rows colors chars-per-pixel */
"50 50 28 1 ",
"  c black",
". c #282028",
"X c #400000",
"o c #700000",
"O c #383040",
"+ c #400168",
"@ c #484868",
"# c #900000",
"$ c #883800",
"% c #C00010",
"& c #E00000",
"* c #B86800",
"= c #D07810",
"- c #E82858",
"; c #F0B000",
": c #F0D800",
"> c #F0F000",
", c #E0C030",
"< c #E09060",
"1 c #587090",
"2 c #900188",
"3 c #80A0B0",
"4 c #98C0C8",
"5 c #B0D8D8",
"6 c #F0D0C0",
"7 c #C8E8E0",
"8 c gray94",
"9 c None",
/* pixels */
"99999999999999999999999999999999999999999999999999",
"99999999999999999999999999999999999999999999999999",
"99999999999999999999999999999999999999999999999999",
"99999999999999999999999999999999999999999999999999",
"99999999999999999999999999999999999999999999999999",
"99999999999999999999999999999999999999999999999999",
"99999999999999999999999999999999999999999999999999",
"99999999999999999999113344331199999999999999999999",
"99999999999999999913444577544431999999999999999999",
"99999999999999991344445788754444319999999999999999",
"99999999999999913444445788754444431999999999999999",
"99999999999999133343333455433334333199999999999999",
"9999999999999@13331X###    ###X13331@9999999999999",
"99999999999994O131 #&8%#  #%8&# 131O49999999999999",
"999999911193@4O11@.#= &#  #& =#.@11O4@391119999999",
"99999@13731@134O1@OX,>#X..X#>,XO@1O431@13731@99999",
"9999@1348343@14O444777888888777444O41@3438431@9999",
"9999@134731@1134.1113344444433111.4311@137431@9999",
"999@11333743@@13.@@@@11111111@@@@.31@@34733311@999",
"999@@1131o#####;:888:*$X##X$*:888:;#####o1311@@999",
"999@@@11@#%&&&#;:88:;$X#<<#X$;:88:;#&&&%#@11@@@999",
"999@O@@@@#%&&&#*:88:*X#<66<#X*:88:*#&&&%#@@@@O@999",
"9999@OO@#%&&&&&#;:8:$#&<66<&#$:8:;#&&&&&%#@OO@9999",
"99991OOO#%&&&&&#;:8:X#&&<<&&#X:8:;#&&&&&%#OOO19999",
"9999911@Xo#####o*;::o########o::;*o#####oX@1199999",
"99999991%&<<<<<<&;::&<<<<<<<<&::;&<<<<<<&%19999999",
"99999999###%&&&&#*;:#&&&&&&&&%:;*#&&&&%###99999999",
"99999999o###%&&&&#;:#&&&&&&&&%:;#&&&&%###o99999999",
"99999999oo####%&&&#;#&&&&&&&&%;#&&&%####oo99999999",
"99999999Xooo####%%%%%%%%%%%%%%%%%%####oooX99999999",
"999999999 O@@@1@113133333333331311@1@@@O 999999999",
"999999999.          .O@@@@@@O.          .999999999",
"999999999O         .O@@@@@@@@O.         O999999999",
"999999999@.     131 .O@@@@@@O. 131     .@999999999",
"999999999@O.   15851  .OOOO.  15851   .O@999999999",
"9999999991@.   @353@    ..    @353@   .@1999999999",
"99999999913O.  1@O@1          1@O@1  .O31999999999",
"999999999@41O.  131            131  .O14@999999999",
"9999999999171O..  ++++++++++++++  ..O1719999999999",
"99999999999171OO.  ++22----22++  .OO17199999999999",
"999999999991143@OO.. ++2222++ ..OO@341199999999999",
"99999999999991111@OOO........OOO@11119999999999999",
"999999999999999@@@@99@@@@@@@@99@@@@999999999999999",
"99999999999999999999999999999999999999999999999999",
"99999999999999999999999999999999999999999999999999",
"99999999999999999999999999999999999999999999999999",
"99999999999999999999999999999999999999999999999999",
"99999999999999999999999999999999999999999999999999",
"99999999999999999999999999999999999999999999999999",
"99999999999999999999999999999999999999999999999999"
};
