/* XPM */
static char *result[] = {
/* columns rows colors chars-per-pixel */
"50 50 21 1 ",
"  c black",
". c #282028",
"X c #400000",
"o c #700000",
"O c #383040",
"+ c #400168",
"@ c #484868",
"# c #900000",
"$ c #C00010",
"% c #E00000",
"& c #E82858",
"* c #E09060",
"= c #587090",
"- c #900188",
"; c #80A0B0",
": c #98C0C8",
"> c #B0D8D8",
", c #F0D0C0",
"< c #C8E8E0",
"1 c gray94",
"2 c None",
/* pixels */
"22222222222222222222222222222222222222222222222222",
"22222222222222222222222222222222222222222222222222",
"22222222222222222222222222222222222222222222222222",
"22222222222222222222222222222222222222222222222222",
"22222222222222222222222222222222222222222222222222",
"22222222222222222222222222222222222222222222222222",
"22222222222222222222222222222222222222222222222222",
"22222222222222222222==;;::;;==22222222222222222222",
"222222222222222222=;:::><<>:::;=222222222222222222",
"2222222222222222=;::::><11<>::::;=2222222222222222",
"222222222222222=;:::::><11<>:::::;=222222222222222",
"22222222222222=;;;:::::><<>:::::;;;=22222222222222",
"22222222222222==@@@@@@@@@@@@@@@@@@@@@2222222222222",
"2222222222222==O:;===================2222222222222",
"222222222@@@@@O:;@;;;;;:::<<<11111<<<::22222222222",
"2222222@@;<<;=@;==@@@@@@@@OOOOOOOOO@@@@@=222222222",
"222222@=;:11:;=@@;;;;;:::<<<1111111<<<:;:;=2222222",
"222222@=;:<<:;=@=@@@@@@@OOOOOOOOOOOO@@@;::=2222222",
"22222@==;;::;;==@;;;:::<<<11111111111<<=;;=@222222",
"22222@@==;;;;==@@#######################o=@@222222",
"22222@@@======@@@$%%%%%%**%%%%%%%%%%%%%$#=@@222222",
"22222@O@@@@@@@@O@$%%%%%*,,*%%%%%%%%%%%%$#@@@222222",
"22222=@OO@@@@OO@#%%%%%%*,,*%%%%%%%%%%%%%$#@2222222",
"222222=OOOOOOOO=$%%%%%%%**%%%%%%%%%%%%%%$#@2222222",
"2222222==@@@@==#########################oX22222222",
"222222222====o#$%***********************%$22222222",
"222222222oooo##$%%%%%%%%%%%%%%%%%%%%%%$###22222222",
"222222222oooo###$%%%%%%%%%%%%%%%%%%%%$###o22222222",
"222222222ooooo####$%%%%%%%%%%%%%%%%$####oo22222222",
"222222222Xoooooo####$$$$$$$$$$$$$$####oooX22222222",
"222222222 OOOOOO@@@@@=@=@===;;;;;==@=@@@O 22222222",
"222222222.          .O@@@@@@O.           .22222222",
"222222222..        .O@@@@@@@@O.         ..22222222",
"222222222O.         .O@@@@@@O.         .O222222222",
"2222222222@@=@O       .OOOO.           .=222222222",
"2222222222@=;:;=O       ..            .O;222222222",
"2222222222O@@@:<;=O                  .O;;222222222",
"22222222222@@=@;<<;O                .O;;=222222222",
"22222222222@@=:@O;<;O++++++++++   ..O;;=2222222222",
"22222222222@O@=:@O;:=O-&&&&--+  ..OO=;=O2222222222",
"222222222222=OO@=@O;:@+----++...OO==;=O22222222222",
"222222222222;@OOOOOO;=.......OOO@@==@O=22222222222",
"2222222222222:;@@@@=@=@@@@@@@O@@@@@OO=222222222222",
"222222222222222:;=;=222222222222=OOO=2222222222222",
"22222222222222222222222222222222222222222222222222",
"22222222222222222222222222222222222222222222222222",
"22222222222222222222222222222222222222222222222222",
"22222222222222222222222222222222222222222222222222",
"22222222222222222222222222222222222222222222222222",
"22222222222222222222222222222222222222222222222222"
};
