/* XPM */
static char *result[] = {
/* columns rows colors chars-per-pixel */
"50 50 27 1 ",
"  c black",
". c #282028",
"X c #400000",
"o c #700000",
"O c #383040",
"+ c #400168",
"@ c #484868",
"# c #900000",
"$ c #883800",
"% c #C00010",
"& c #E00000",
"* c #B86800",
"= c #D07810",
"- c #E82858",
"; c #F0B000",
": c #F0D800",
"> c #F0F000",
", c #E0C030",
"< c #E09060",
"1 c #587090",
"2 c #900188",
"3 c #80A0B0",
"4 c #98C0C8",
"5 c #B0D8D8",
"6 c #C8E8E0",
"7 c gray94",
"8 c None",
/* pixels */
"88888888888888888888888888888888888888888888888888",
"88888888888888888888888888888888888888888888888888",
"88888888888888888888888888888888888888888888888888",
"88888888888888888888888888888888888888888888888888",
"88888888888888888888888888888888888888888888888888",
"88888888888888888888888888888888888888888888888888",
"88888888888888888888888888888888888888888888888888",
"88888888888888888888113344331188888888888888888888",
"88888888888888888813444566544431888888888888888888",
"88888888888888881344445677654444318888888888888888",
"88888888888888813444445677654444431888888888888888",
"88888888888888131133333455544444333188888888888888",
"888888888888881@ ##X  ###X343331@@@@@8888888888888",
"88888888888881@ %7&# %7&%# 1331O431111888888888888",
"88888888888881@.& =# & =&#.131O43@346@@@@@88888888",
"88888888881@11@O#>,X.#>,#XO@1O4311@@@13663@@888888",
"8888888813434446677777666444O431@34@13477431@88888",
"888888881443111134444433111.31111@O@13466431@88888",
"8888888@1331@@@@@11111@@@@.1@@@@34@1133443311@8888",
"8888888@@1o;:77:;*$X#*;:777:;X####@@11333311@@8888",
"8888888@@1#;:7:;$X##&&*:77:;*#&&&%@@@111111@@@8888",
"8888888@@@#;:7:*X#&&&&&:77:;$#&&&%@O@@@@@@@@O@8888",
"88888888@#%;:7:$#&&&&&&:7:;*X&&&&&#@OO@@@@OO@18888",
"88888888@#%*:7:X#&&&&&&:7:;$#&&&&&%1OOOOOOOO188888",
"888888888##o;::o######o::;*o######oX11@@@@11888888",
"888888888%<&*::&<<<<<<&::;$&<<<<<<&%#o111188888888",
"888888888###%;:#&&&&&&&:;$#&&&&&&&&%##oooo88888888",
"888888888o###*;#&&&&&&&;*#&&&&&&&&%###oooo88888888",
"888888888oo###;#&&&&&&&;#&&&&&&&%####ooooo88888888",
"888888888Xooo####%%%%%%%%%%%%%%####ooooooX88888888",
"888888888 O@@@1@1133333111@1@1@@@@@OOOOOO 88888888",
"888888888.          .O@@@@@@O.           .88888888",
"888888888..        .O@@@@@@@@O.         ..88888888",
"8888888888O.351     .O@@@351O.          .O88888888",
"888888888813573@      .O3573@       O@1@@888888888",
"88888888883@131O        @131O     O13431@888888888",
"88888888883@O@O@        @O@O@   O1364@@@O888888888",
"88888888881311@          11@   O3663@1@@8888888888",
"88888888888133O..  +++++++++++O363O@41@@8888888888",
"88888888888O131OO.. +22----22O143O@41@O@8888888888",
"888888888888O1311OO...+2222++@43O@1@OO188888888888",
"8888888888881O@11@@OOO.......13OOOOOO@388888888888",
"88888888888881OO@@@@@O@@@@@@@1@1@@@@34888888888888",
"888888888888881OOO18888888888881313488888888888888",
"88888888888888888888888888888888888888888888888888",
"88888888888888888888888888888888888888888888888888",
"88888888888888888888888888888888888888888888888888",
"88888888888888888888888888888888888888888888888888",
"88888888888888888888888888888888888888888888888888",
"88888888888888888888888888888888888888888888888888"
};
