/* XPM */
static char *result[] = {
/* columns rows colors chars-per-pixel */
"50 50 25 1 ",
"  c black",
". c #282028",
"X c #400000",
"o c #700000",
"O c #383040",
"+ c #400168",
"@ c #484868",
"# c #900000",
"$ c #883800",
"% c #C00010",
"& c #E00000",
"* c #B86800",
"= c #D07810",
"- c #F0B000",
"; c #F0D800",
": c #F0F000",
"> c #E0C030",
", c #E09060",
"< c #587090",
"1 c #80A0B0",
"2 c #98C0C8",
"3 c #B0D8D8",
"4 c #C8E8E0",
"5 c gray94",
"6 c None",
/* pixels */
"66666666666666666666666666666666666666666666666666",
"66666666666666666666666666666666666666666666666666",
"66666666666666666666666666666666666666666666666666",
"66666666666666666666666666666666666666666666666666",
"66666666666666666666666666666666666666666666666666",
"66666666666666666666666666666666666666666666666666",
"66666666666666666666666666666666666666666666666666",
"66666666666666666666<<112211<<66666666666666666666",
"666666666666666666<122234432221<666666666666666666",
"6666666666666666<1222234554322221<6666666666666666",
"666666666666666<122222345543222221<666666666666666",
"66666666666666<11122222344322222111<66666666666666",
"6666666666666@@@@@@@@@@@@@@@@221X### 6666666666666",
"666666666666<<<<<<<<<<<<<<<12O1 #%&5% 666666666666",
"66666666661122455422111@@@@<12O.#&= & 666666666666",
"66666666666@@@@OOOOOO@@1441@@12OX#>:# 666666666666",
"66666666611224455442@<125521<@12O22445566666666666",
"6666666666@@@@OOOOO@@<124421<@<<1.<<12226666666666",
"6666666661122445544@<<112211<<@@@<.@@@<<6666666666",
"666666666o#########@@<<1111<<@@#X$*--;55-666666666",
"666666666#%&&&&&&&%@@@<<<<<<@@@%&#X$*-;55-66666666",
"666666666#%&&&&&&&%@O@@@@@@@@O@%&&#X$*-;5566666666",
"66666666#%&&&&&&&&%<@OO@@@@OO@<&&&&#X$-;;566666666",
"66666666#%&&&&&&&&&#<OOOOOOOO<#&&&&&#X*-;566666666",
"66666666Xo#########oX<<@@@@<<Xo######o$*-;66666666",
"66666666%&,,,,,,,,&&%##<<<<##%&&,,,,,,&$-;66666666",
"66666666###%&&&&&&%##oooooooo##%&&&&&&%X*-66666666",
"66666666o###%&&&&%###oooooooo###%&&&&%##X-66666666",
"66666666oo####%%####oooooooooo####%%####o*66666666",
"66666666Xooo#######oooooooooooo#######oooX66666666",
"666666666 OO@@@<<<<111111111111<<<<@@@OO 666666666",
"666666666.          O@@@@@@@@O          .666666666",
"666666666O         .@@@@@@@@@@.         O666666666",
"6666666666.         O@@@@@@@@O        <31666666666",
"6666666666O.         O@<11<@O        @153166666666",
"66666666666.        @<124421<@       O<1<@66666666",
"66666666666O.      O<@O@<<@O@<O      @O@O@66666666",
"666666666666O.     <@<<1221<<@<     .O@<<666666666",
"6666666666666O..  +O@<124421<@O+  ..O6666666666666",
"66666666666666OO.  @O@<1111<@O@  .OO66666666666666",
"6666666666666666OO.<@O@<<<<@O@<.OO6666666666666666",
"666666666666666666OO1<OOOOOO<1OO666666666666666666",
"6666666666666666666661<@@@@<1666666666666666666666",
"66666666666666666666666111166666666666666666666666",
"66666666666666666666666666666666666666666666666666",
"66666666666666666666666666666666666666666666666666",
"66666666666666666666666666666666666666666666666666",
"66666666666666666666666666666666666666666666666666",
"66666666666666666666666666666666666666666666666666",
"66666666666666666666666666666666666666666666666666"
};
