/* XPM */
static char *result[] = {
/* columns rows colors chars-per-pixel */
"50 50 245 2 ",
"   c #080000",
".  c #1C0100",
"X  c #140100",
"o  c #1B061C",
"O  c #240101",
"+  c #2D0300",
"@  c #25060D",
"#  c #330502",
"$  c #3A0903",
"%  c #2C0C12",
"&  c #3B2325",
"*  c #3C2834",
"=  c #14102C",
"-  c #460A02",
";  c #461708",
":  c #561A09",
">  c #441B19",
",  c #54170C",
"<  c #582916",
"1  c #582814",
"2  c #682607",
"3  c #622613",
"4  c #68361C",
"5  c #733517",
"6  c #47272A",
"7  c #592E26",
"8  c #57352B",
"9  c #573A36",
"0  c #46333C",
"q  c #683727",
"w  c #673529",
"e  c #6F1D02",
"r  c #784527",
"t  c #6B463B",
"y  c #774836",
"u  c #76513D",
"i  c #5D413B",
"p  c #4D3B48",
"a  c #59464A",
"s  c #5A4859",
"d  c #4A4B5D",
"f  c #694B46",
"g  c #6E514B",
"h  c #7A564A",
"j  c #614B59",
"k  c #674E58",
"l  c #6B5659",
"z  c #7A5C56",
"x  c #735B5A",
"c  c #775C57",
"v  c #774F4A",
"b  c #7D6255",
"n  c #78624E",
"m  c #6A5A62",
"M  c #776768",
"N  c #776D75",
"B  c #7D7479",
"V  c #6A6673",
"C  c #8C3106",
"Z  c #B43903",
"A  c #A63503",
"S  c #CA2600",
"D  c #D13500",
"F  c #C73801",
"G  c #F83A00",
"H  c #99430D",
"J  c #8F4919",
"K  c #AD470B",
"L  c #B84708",
"P  c #B85309",
"I  c #B34D18",
"U  c #BA521B",
"Y  c #AC4F16",
"T  c #884927",
"R  c #8B532A",
"E  c #95592B",
"W  c #824D33",
"Q  c #985B35",
"!  c #904F2C",
"~  c #A7562B",
"^  c #97632F",
"/  c #9C6636",
"(  c #9D7737",
")  c #A3663A",
"_  c #AA7039",
"`  c #CC4401",
"'  c #C64B05",
"]  c #D44801",
"[  c #D55605",
"{  c #D15910",
"}  c #E85601",
"|  c #F95702",
" . c #EB4E00",
".. c #D66413",
"X. c #FD6301",
"o. c #FA6C06",
"O. c #FC7709",
"+. c #F97717",
"@. c #EB6F12",
"#. c #C86B26",
"$. c #D7772A",
"%. c #CA7730",
"&. c #E57A24",
"*. c #875A48",
"=. c #975C46",
"-. c #825F55",
";. c #9B6448",
":. c #826156",
">. c #886458",
",. c #976958",
"<. c #9B715B",
"1. c #8E634F",
"2. c #AB6443",
"3. c #A56949",
"4. c #B36C49",
"5. c #AA764E",
"6. c #A9744B",
"7. c #B5754A",
"8. c #B47A4C",
"9. c #BA7F4E",
"0. c #B97647",
"q. c #A76E58",
"w. c #AA7557",
"e. c #BC7352",
"r. c #B4735B",
"t. c #B77B57",
"y. c #B16F58",
"u. c #8A6B65",
"i. c #936B61",
"p. c #976E68",
"a. c #877366",
"s. c #98776A",
"d. c #897578",
"f. c #93797A",
"g. c #967876",
"h. c #8A6E76",
"j. c #A77969",
"k. c #B37A66",
"l. c #A77D78",
"z. c #B07D74",
"x. c #A85F40",
"c. c #C27C5C",
"v. c #E75C6C",
"b. c #C47D60",
"n. c #E65F5E",
"m. c #BA833B",
"M. c #FF8A0B",
"N. c #FF8518",
"B. c #FF9718",
"V. c #DB8736",
"C. c #EA832B",
"Z. c #FE8C23",
"A. c #F8892A",
"S. c #FF9D25",
"D. c #FE952D",
"F. c #FF9A2C",
"G. c #FE9024",
"H. c #E98935",
"J. c #F48B33",
"K. c #EA913B",
"L. c #F99737",
"P. c #FFA328",
"I. c #FEA73B",
"U. c #FFB535",
"Y. c #BA824D",
"T. c #B6814B",
"R. c #BC8452",
"E. c #B6835B",
"W. c #968574",
"Q. c #A48368",
"!. c #B78564",
"~. c #A68478",
"^. c #B88476",
"/. c #AC9377",
"(. c #BB957A",
"). c #A9936F",
"_. c #D88B48",
"`. c #C3845B",
"'. c #C58A5C",
"]. c #C9895A",
"[. c #C89659",
"{. c #DC9449",
"}. c #E99544",
"|. c #FA9C41",
" X c #E08D47",
".X c #C9A35E",
"XX c #EAA24D",
"oX c #FFB749",
"OX c #FCAA4F",
"+X c #CD8264",
"@X c #C88766",
"#X c #D18665",
"$X c #D78969",
"%X c #C89867",
"&X c #D79A66",
"*X c #CA8E77",
"=X c #C9A568",
"-X c #D5A868",
";X c #CBA675",
":X c #D4AB76",
">X c #D9B575",
",X c #CFB575",
"<X c #E2B472",
"1X c #F7CF73",
"2X c #EDC068",
"3X c #71758E",
"4X c #847A88",
"5X c #957D82",
"6X c #8B7B91",
"7X c #99848A",
"8X c #988798",
"9X c #96929D",
"0X c #8B8491",
"qX c #A78485",
"wX c #B99A84",
"eX c #A28B94",
"rX c #A28795",
"tX c #A9959B",
"yX c #A79184",
"uX c #9596A7",
"iX c #9697AF",
"pX c #A599A8",
"aX c #A69CB5",
"sX c #A995A7",
"dX c #9EA1B4",
"fX c #AAA6B9",
"gX c #B2ACB8",
"hX c #B7B4B8",
"jX c #B7ACA9",
"kX c #CDB089",
"lX c #CDB8AC",
"zX c #D9C291",
"xX c #F3D085",
"cX c #C4C1BE",
"vX c #ABA7C2",
"bX c #ABB3CD",
"nX c #B5B8C9",
"mX c #ADB7D9",
"MX c #B0A4C3",
"NX c #ABBCE3",
"BX c #99A3C0",
"VX c #BBC5CF",
"CX c #B4CAE8",
"ZX c #C3CCCF",
"AX c None",
/* pixels */
"AXAXAXAXAXAXAXAXAXAXAXAXAXAXAXAXAXAXAXAXAXAXAXAXAXAXAXAXAXAXAXAXAXAXAXAXAXAXAXAXAXAXAXAXAXAXAXAXAXAX",
"AXAXAXAXAXAXAXAXAXAXAXAXAXAXAXAXAXAXAXAXAXAXAXAXAXAXAXAXAXAXAXAXAXAXAXAXAXAXAXAXAXAXAXAXAXAXAXAXAXAX",
"AXAXAXAXAXAXAXAXAXAXAXAXAXAXAXAXAXAXAXAXAXAXAXAXAXAXAXAXAXAXAXAXAXAXAXAXAXAXAXAXAXAXAXAXAXAXAXAXAXAX",
"AXAXAXAXAXAXAXAXAXAXAXAXAXAXAXAXAXAXAXAXu -XAXAXr r AXAX-Xu AXAXAXAXAXAXAXAXAXAXAXAXAXAXAXAXAXAXAXAX",
"AXAXAXAXAXAXAXAXAXAXAXAXAXAXAXAXAX^ ( _ c 4.c.>.k.k.>.c.y.h Q / ^ AXAXAXAXAXAXAXAXAXAXAXAXAXAXAXAXAX",
"AXAXAXAXAXAXAXAXAXAXAXAXAXAXAX5.`.p.,.c h w.e.y.%X%Xq.e.r.h l 1.<.`.5.AXAXAXAXAXAXAXAXAXAXAXAXAXAXAX",
"AXAXAXAXAXAXAXAXAXAXAX( ;.T.,.M N g.5X8 3.*.1.b.c.c.b.1.1.) 8 0X~.B V <.t./ ( AXAXAXAXAXAXAXAXAXAXAX",
"AXAXAXAXAXAXAXAXAXAX( 1X!.t a.^.+X#X!.>.3.3.q.b.#X+X#X;.;.2.>.$X$X$X^.B t Q.1X( AXAXAXAXAXAXAXAXAXAX",
"AXAXAXAXAXAXAXAXAXAX<Xs.(.p.>Xq.k.i.,.4 ,.b.@X#X#X#X$Xb.+X>., u.u.l.p.>Xs.(.i.xXAXAXAXAXAXAXAXAXAXAX",
"AXAXAXAXAXAXAXAXAX=X1.-.%Xb.3.9 7 3 1 3 q u ~.$X#X#X$X~.u < , , - ; 6 q.+X%Xh z -XAXAXAXAXAXAXAXAXAX",
"AXAXAXAXAXAXAXAX/ %X8.`.i.k.7 v N 3Xf.7XN v 5 : $ - 1 1 f V 0XqX6X3Xf > z.p.+X7.=X) AXAXAXAXAXAXAXAX",
"AXAXAXAXAXAXAXAX'.M f.~.k.7 M ^.#X#X^.#X+X~.5X,.m x ,.6X*X$X$X*X*X$X~.x > j.~.5XV [.AXAXAXAXAXAXAXAX",
"AXAXAXAXAXAXAXT !.d.!.;X3 C ~ U U U ~ U U U ! ^ x x ^ R I L ' ~ L L ' T C , :XE.d.!.AXAXAXAXAXAXAXAX",
"AXAXAXAXAXAXAXY.>.W.k.w | O.Z.+.A.N.$.N.G.o.J ].x x '.C O.M.O.$.M.B.O.O.M.| t r.~.>./ AXAXAXAXAXAXAX",
"AXAXAXAXAXAXAXE.g Q.%XC O.F.F.D.F.|.V.F.F.F.X.'.x x '.| P.P.P.C.U.P.P.S.S.O.C :Xj.f 5.AXAXAXAXAXAXAX",
"AXAXAXAXAXAXAX8.M #Xu.S S.J.K.H.K._.V.H.H.Z.O.E.x x @XO.P.J.J.H.{.H.J.L.D.B.S u.+XM R.AXAXAXAXAXAXAX",
"AXAXAXAXAXAXAX8.l wX>.G Z.-X_ Q / ) / 6.=X&.+.`.c c `.+.$.-X( / Q ^ ^ / <XN.G ,.wXg R.AXAXAXAXAXAXAX",
"AXAXAXAXAXAXAX9.z ;X7 X.&.e.*.iXaXrXfXqXE.[ +.'.-.b '.| K R.8XvX6XvXaX*.0.&.X.8 ;Xz Y.AXAXAXAXAXAXAX",
"AXAXAXAXAXAXAX[.Q.g.9 ] P ) sX9X3XuXN mXr.' X.`.u.-.@X+.K r.bXd.uXd.9XeX) P ` t g.Q.%XAXAXAXAXAXAXAX",
"AXAXAXAXAXAXAX-X].c.8 0 @Xc.8XbXfXiXgXNXr.' o.`.z -.c.| L y.bXgXuXpXgXeXc.t.t t e.'.-XAXAXAXAXAXAXAX",
"AXAXAXAXAXAXAX-X%Xl.p * s.e.sXdXfXfX0XmXr.K #.c.z :.E.{ H r.nX7XaXiXuXeXe.s.9 l j.@X-XAXAXAXAXAXAXAX",
"AXAXAXAXAXAXAX].) 4.< , e 2.tXnXVXVXhXNXr.' J.`.:.-.].H.K r.bXjXVXlXhXeX3.C q q 6.) '.AXAXAXAXAXAXAX",
"AXAXAXAXAXAXAXY.:.kXs Z | 2.rXbXmXmXbXfXr.' J.].z >.`.H.K y.pXfXfXgXfX5X4...Y g kX:.Y.AXAXAXAXAXAXAX",
"AXAXAXAXAXAXAX].W.c.g L N.,.g.W.W.d.W.W.f.] A.].-.-.`.H.' s.Q.s.p.W.j.s.q.A.U >.].g.].AXAXAXAXAXAXAX",
"AXAXAXAXAXAXAXy.d.kXf L U.o.} [ ` L ] `  .Z.J.'.-.>.`.H.Z.[ ' { I ' { { @.F.I h wXa.q.AXAXAXAXAXAXAX",
"AXAXAXAXAXAXAX3.1.=Xx 2 ] ` ` ` A ` ..Y A.D.$.9.-.*.e.%.J.&.Y ..' K P ' ' ` 5 :.%X1.R AXAXAXAXAXAXAX",
"AXAXAXAXAXAXAX5.p.yX~.  # -   O T . $ K.I.[.xXxX>X>XxX2X0.L._.1 $ ! > + : $ . ~.qXi.W AXAXAXAXAXAXAX",
"AXAXAXAXAXAXAX5.3.%Xl.. X . + 3X].4X  : I.J =Xj.[.=Xj.%XE |.w # d.`.d.; + . + s.=X;.W AXAXAXAXAXAXAX",
"AXAXAXAXAXAXAX5.Q $Xk.X - . 9 pXY.8Xp 1 I.&.3.f.=.Q f.6.C.|.q f qX8.rX7 . ; + j.%XQ W AXAXAXAXAXAXAX",
"AXAXAXAXAXAXAX5.*./.yXO &Xq 1 4XrX6X# r I.C.n s.wXwXs.1.$.L.W < h.l.h.q T $X# ~./.*.W AXAXAXAXAXAXAX",
"AXAXAXAXAXAXAX5.<.(.>.: c.#Xr   > X   : oXm.~.lX5XqXlXQ./ |.4 $ ; w % ! c.9.: >.^.,.W AXAXAXAXAXAXAX",
"AXAXAXAXAXAXAX6.*.).q.# # 5 ;.+     ; XXL.C v.n.hXlXn.v.J L.{.4 $ + - ;.5 $ $ q.).*.W AXAXAXAXAXAXAX",
"AXAXAXAXAXAXAX5.=.;XyXS oX2XoX1X1XoXoXL.F.C.7Xu.dXdX<.7X&.L.K.OX|.OXOXOX1XoXS yX:X;.y AXAXAXAXAXAXAX",
"AXAXAXAXAXAXAXy h d.4.D F.L.XXL.L.}.}.XXK.A.r 0 d d p r C._._._._._.{.XXK.F.D 4.h.-.w AXAXAXAXAXAXAX",
"AXAXAXAXAXAXAX; j./.d.Z A.&XE E Q ! Q E [.&.o.q.j l w.+.#.[.) / Q ) Q Q &XJ.Z g./.k.AXAXAXAXAXAXAXAX",
"AXAXAXAXAXAXAX# k.g.^., P 7.p.vXMXaXbXaXt.[ A.`.c z `.A.L t.tXaXtXaXfXp.0.P 2 z.s.t.AXAXAXAXAXAXAXAX",
"AXAXAXAXAXAXAX# c.k.c.@ C ) qX0Xd.8XM mXr.] A.`.c c R.J.K r.gXa.7Xp.7XeX) A & e.k.e.AXAXAXAXAXAXAXAX",
"AXAXAXAXAXAXAX# t.).wX= t.c.rXnXpXuXVXmXr.L #.`.c z @X#.H r.gXjXeXtXhXqXr.t.* *XQ.t.AXAXAXAXAXAXAXAX",
"AXAXAXAXAXAXAX# k.6X:Xo f.e.rXuXaXfX3XNXy.` | `.z z `.+.K r.gXs.tXtX9XeXe.g.6 ,Xd.t.AXAXAXAXAXAXAXAX",
"AXAXAXAXAXAXAX# 3.z.l.X - ~ sXCXZXCXZXNXy.' O.`.z c `.| K r.vXhXZXcXVX7X) 2 ; j.j.3.AXAXAXAXAXAXAXAX",
"AXAXAXAXAXAXAX# ) W.zXo A ) l.iXdXBXdXuXq.` Z.'.x c `.+.K y.eXtXuXpXsXg.2.K 6 kXa.3.AXAXAXAXAXAXAXAX",
"AXAXAXAXAXAXAX# <.9Xk.@ F *.M h.M l V M M  .X.].x c !.+.] u.a.>.>.<.s.u.=.' 6 !.5X6.AXAXAXAXAXAXAXAX",
"AXAXAXAXAXAXAXAX<.4XzX; } O.o.o.[ ..X.| o.H.@.].l x `.| C.@.@.@.%...o.@.+...< ,Xd.q.AXAXAXAXAXAXAXAX",
"AXAXAXAXAXAXAXAX9.a j.q ' B.P.G.I.P.B.S.S.S._ _ x x 9._ D.F.D.F.F.L.L.F.A.' y p.f 5.AXAXAXAXAXAXAXAX",
"AXAXAXAXAXAXAXAX9.a ,.& L o.X.L.S.S.S.S.P.Z.R 8.x c 9.R A.D.D.D.F.F.K.+.X.I 8 ,.f t.AXAXAXAXAXAXAXAX",
"AXAXAXAXAXAXAXAX,X-X2.& f 9.Y.Y.9.9.9.9.Y.R.4.R x x T 4.9.Y.R.Y.T.Y.c.Y.8.g 6 2.[.=XAXAXAXAXAXAXAXAX",
"AXAXAXAXAXAXAXAX=XkX^.p 1 s j j j s s s s s s m p 0 m s j k k l k k l g j 4 a ^.(.=XAXAXAXAXAXAXAXAX",
"AXAXAXAXAXAXAXAXAXAXAXAXAXAXAXAXAXAXAXAXAXAXAXAXAXAXAXAXAXAXAXAXAXAXAXAXAXAXAXAXAXAXAXAXAXAXAXAXAXAX",
"AXAXAXAXAXAXAXAXAXAXAXAXAXAXAXAXAXAXAXAXAXAXAXAXAXAXAXAXAXAXAXAXAXAXAXAXAXAXAXAXAXAXAXAXAXAXAXAXAXAX",
"AXAXAXAXAXAXAXAXAXAXAXAXAXAXAXAXAXAXAXAXAXAXAXAXAXAXAXAXAXAXAXAXAXAXAXAXAXAXAXAXAXAXAXAXAXAXAXAXAXAX"
};
