/* XPM */
static char *result[] = {
/* columns rows colors chars-per-pixel */
"50 50 68 1 ",
"  c #606060",
". c #484848",
"X c gray17",
"o c gray25",
"O c #131313",
"+ c #3F3F3F",
"@ c gray36",
"# c #202020",
"$ c #444444",
"% c gray26",
"& c #353535",
"* c #373737",
"= c #222222",
"- c #0B0B0B",
"; c gray30",
": c #343434",
"> c gray21",
", c gray4",
"< c #4C4C4C",
"1 c #3E3E3E",
"2 c gray14",
"3 c #282828",
"4 c gray18",
"5 c #2D2D2D",
"6 c gray20",
"7 c #2F2F2F",
"8 c #323232",
"9 c gray19",
"0 c #313131",
"q c #2A2A2A",
"w c #161616",
"e c #070707",
"r c gray22",
"t c #232323",
"y c #272727",
"u c gray8",
"i c gray9",
"p c #191919",
"a c gray13",
"s c gray10",
"d c gray12",
"f c gray11",
"g c #1D1D1D",
"h c #1E1E1E",
"j c #1B1B1B",
"k c gray2",
"l c #111111",
"z c #181818",
"x c gray15",
"c c #393939",
"v c #5B5B5B",
"b c gray35",
"n c #555555",
"m c #0E0E0E",
"M c #040404",
"N c #252525",
"B c #2C2C2C",
"V c gray16",
"C c gray32",
"Z c #515151",
"A c gray23",
"S c gray6",
"D c gray34",
"F c #4E4E4E",
"G c #434343",
"H c #414141",
"J c gray7",
"K c #060606",
/* pixels */
"               .XoooooooooooooooO+              @#",
" $%%%%%%%%%%%%%&X*==============-+;%%%%%%%%%%%%%o#",
" %ooooooooooooo:X>##############,+<ooooooooooooo1#",
" %ooooooooooooo:X>##############,+<ooooooooooooo1#",
" %ooooooooooooo:X>##############,+<ooooooooooooo1#",
" %ooooooooooooo:X>##############,+<ooooooooooooo1#",
" %ooooooooooooo:X>##############,+<ooooooooooooo1#",
" %ooooooooooooo:X>##############,+<ooooooooooooo1#",
" %ooooooooooooo:23##############,+<ooooooooooooo1#",
" %ooooooooooooo:################,+<ooooooooooooo1#",
" %ooooooooooooo:################,+<ooooooooooooo1#",
" %ooooooooooooo:################,+<ooooooooooooo1#",
" %ooooooooooooo:################,+<ooooooooooooo1#",
" %ooooooooooooo:################,+<ooooooooooooo1#",
" %ooooooooooooo:################,+<ooooooooooooo1#",
"<4&5:4678980009qwwwwwwwwwwwwwwwwe8r800098764:4&5:w",
"tOyu2itpasdfghj#klsssssssssssssspzsdfghj#pai2wxuyk",
"X1ccccccccccccccl+vbbbbbbbbbbbbbn#1ccccccccccccccl",
"X>##############,+<ooooooooooooo1#>##############,",
"X>##############,+<ooooooooooooo1#>##############,",
"X>##############,+<ooooooooooooo1#>##############,",
"X>##############,+<ooooooooooooo1#>##############,",
"X>##############,+<ooooooooooooo1#>##############,",
"X>##############,+<ooooooooooooo1#>##############,",
"X>##############,+<ooooooooooooo1#>##############,",
"at##############,+<ooooooooooooo1#t##############,",
"################,+<ooooooooooooo1################,",
"################,+<ooooooooooooo1################,",
"################,+<ooooooooooooo1################,",
"################,+<ooooooooooooo1################,",
"################,+<ooooooooooooo1################,",
"################,+<ooooooooooooo1################,",
"mmmmmmmmmmmmmmmmMy3y2NNty=3#qdBgBmmmmmmmmmmmmmmmmM",
"888888888888888xwXyqVVq3XyBN527tza888888888888889l",
" CZZZZZZZZZZZZZ+XA00000000000000S+DZZZZZZZZZZZZZF#",
" GHHHHHHHHHHHHH&X>aaaaaaaaaaaaaa,+;HHHHHHHHHHHHH+#",
" %ooooooooooooo:X>##############,+<ooooooooooooo1#",
" %ooooooooooooo:X>##############,+<ooooooooooooo1#",
" %ooooooooooooo:X>##############,+<ooooooooooooo1#",
" %ooooooooooooo:X>##############,+<ooooooooooooo1#",
" %ooooooooooooo:X>##############,+<ooooooooooooo1#",
" %ooooooooooooo:q6##############,+<ooooooooooooo1#",
" %ooooooooooooo:tN##############,+<ooooooooooooo1#",
" %ooooooooooooo:################,+<ooooooooooooo1#",
" %ooooooooooooo:################,+<ooooooooooooo1#",
" %ooooooooooooo:################,+<ooooooooooooo1#",
" %ooooooooooooo:################,+<ooooooooooooo1#",
" %ooooooooooooo:################,+<ooooooooooooo1#",
" %ooooooooooooo:################,+<ooooooooooooo1#",
"$x9x93735VBXBBqxJJJJJJJJJJJJJJJJK59BXBBq5V437y9x9J"
};
