/* XPM */
static char *result[] = {
/* columns rows colors chars-per-pixel */
"50 50 181 2 ",
"   c #000000",
".  c #0E0707",
"X  c #01010D",
"o  c #0D0B0B",
"O  c #0F0807",
"+  c #130C07",
"@  c #060614",
"#  c #1F1010",
"$  c #2B1912",
"%  c #3E1F1F",
"&  c #3A201B",
"*  c #0C0C25",
"=  c #3A3A3A",
"-  c gray16",
";  c #432121",
":  c #5A3525",
">  c #713737",
",  c #6A4723",
"<  c #664422",
"1  c #151540",
"2  c #1B1B50",
"3  c #060366",
"4  c #351B7E",
"5  c #252570",
"6  c #643479",
"7  c #6D3975",
"8  c #753A70",
"9  c #5B4D4D",
"0  c #535353",
"q  c #5B5B5B",
"w  c #7F4040",
"e  c #7F5050",
"r  c #665A53",
"t  c #6A6159",
"y  c #7F406A",
"u  c #784377",
"i  c #696969",
"p  c #797979",
"a  c #8B4343",
"s  c #9C4E4E",
"d  c #9C4E5C",
"f  c #A2544E",
"g  c #AA5555",
"h  c #B15C55",
"j  c #AF614E",
"k  c #BF6A55",
"l  c #B86558",
"z  c #985568",
"x  c #814B74",
"c  c #87577A",
"v  c #885B7D",
"b  c #9D5B7C",
"n  c #954E69",
"m  c #9C6161",
"M  c #9C6E6E",
"N  c #AC6361",
"B  c #B2726A",
"V  c #AB6B73",
"C  c #A2747D",
"Z  c #B17F7B",
"A  c #CD7855",
"S  c #C6765B",
"D  c #D27F58",
"F  c #C38141",
"G  c #DE8F4F",
"H  c #DB8655",
"J  c #DC8953",
"K  c #D38259",
"L  c #DB8B5A",
"P  c #E3954E",
"I  c #E38E57",
"U  c #E69254",
"Y  c #EA9555",
"T  c #EA9A5A",
"R  c #F8A355",
"E  c #FFAA55",
"W  c #F9A659",
"Q  c #DD9569",
"!  c #E49D70",
"~  c #040281",
"^  c #00009C",
"/  c #1E129F",
"(  c #20108F",
")  c #361C8F",
"_  c #3A1D8D",
"`  c #2A1595",
"'  c #20109A",
"]  c #2A1997",
"[  c #2D2D88",
"{  c #3A2697",
"}  c #0C06A5",
"|  c #0000AA",
" . c #0906A7",
".. c #140CA3",
"X. c #1A11A1",
"o. c #1919AA",
"O. c #0707B1",
"+. c #0A0AB3",
"@. c #0807B0",
"#. c #1414BE",
"$. c #1917BC",
"%. c #2020BC",
"&. c #3429AF",
"*. c #452286",
"=. c #462388",
"-. c #522A82",
";. c #5A3383",
":. c #402B95",
">. c #5B389B",
",. c #603C87",
"<. c #4530AF",
"1. c #664388",
"2. c #744C82",
"3. c #4F4BA6",
"4. c #5351AC",
"5. c #6D67AB",
"6. c #1E1EC8",
"7. c #2424CE",
"8. c #2D2DC9",
"9. c #2D2DD7",
"0. c #3232DC",
"q. c #3939E3",
"w. c #3F3FE9",
"e. c #4540DF",
"r. c #7F7FCA",
"t. c #4242EC",
"y. c #4E4EEA",
"u. c #4747E6",
"i. c #544EEB",
"p. c #5652ED",
"a. c #4E4EF8",
"s. c #4B4BF5",
"d. c #5555FF",
"f. c #5C5CFA",
"g. c #6862EC",
"h. c #6464FF",
"j. c #6E6EFF",
"k. c #8E5996",
"l. c #886ECA",
"z. c #816ED3",
"x. c #8575DF",
"c. c gray56",
"v. c #98918D",
"b. c #959595",
"n. c #9A9A9A",
"m. c #BF8E81",
"M. c #A4848A",
"N. c #9E9EAF",
"B. c #9595BF",
"V. c #9E9DB6",
"C. c #AAAAAA",
"Z. c #A5A5A5",
"A. c #A3A3B1",
"S. c #BDBDBD",
"D. c #BFB8B3",
"F. c #D09B94",
"G. c #EABA9F",
"H. c #CFA8A8",
"J. c #DCB4AD",
"K. c #DABABA",
"L. c #F4C49B",
"P. c #EAC5B5",
"I. c #8E8EC3",
"U. c #9391C1",
"Y. c #A4A4FF",
"T. c #BDBDFE",
"R. c #B0B0FF",
"E. c #C6BACC",
"W. c #C5C5C5",
"Q. c #CECECE",
"!. c #C5C5CF",
"~. c #D5C5CF",
"^. c #DBDBDD",
"/. c #EAD4D4",
"(. c #CACAFF",
"). c #D6D6FD",
"_. c #EAEAEB",
"`. c #F3E9E9",
"'. c #FEFEFE",
"]. c #F7F7FF",
"[. c None",
/* pixels */
"[.[.[.[.[.[.[.[.[.[.[.[.[.[.[.[.[.[.[.[.[.[.[.[.[.[.[.[.[.[.[.[.[.[.[.[.[.[.[.[.[.[.[.[.[.[.[.[.[.[.",
"[.[.[.[.[.[.[.[.[.[.[.[.[.[.[.[.[.[.[.[.[.[.[.[.[.[.[.[.[.[.[.[.[.[.[.[.[.[.[.[.[.[.[.[.[.[.[.[.[.[.",
"[.[.[.[.[.[.[.[.[.[.[.[.[.[.[.[.[.[.[.[.[.[.[.[.[.[.[.[.[.[.[.[.[.[.[.[.[.[.[.[.[.[.[.[.[.[.[.[.[.[.",
"[.[.[.[.[.[.[.[.[.[.[.[.[.[.[.[.[.[.[.[.[.[.[.[.[.[.[.[.[.[.[.[.[.[.[.[.[.[.[.[.[.[.[.[.[.[.[.[.[.[.",
"[.[.[.[.[.[.[.[.[.[.[.[.[.[.[.[.[.[.[.[.[.[.[.[.[.[.[.[.[.[.[.[.[.[.[.[.[.[.[.[.[.[.[.[.[.[.[.[.[.[.",
"[.[.[.[.[.[.[.[.[.[.[.[.[.[.[.[.[.| | [.[.| | | | | | [.[.[.| | [.[.[.[.[.[.[.[.[.[.[.[.[.[.[.[.[.[.",
"[.[.[.[.[.[.[.[.[.[.[.[.[.[.[.[.[.| | [.[.O.O.O.O.O.O.[.[.[.| | [.[.[.[.[.[.[.[.[.[.[.[.[.[.[.[.[.[.",
"[.[.[.[.[.[.[.[.[.[.[.[.[.[.[.[.[.| | | | 9.a.a.a.a.a.7.| | | | [.[.[.[.[.[.[.[.[.[.[.[.[.[.[.[.[.[.",
"[.[.[.[.[.[.[.[.[.[.[.[.[.[.[.[.[.' 8 } 0.s.d.d.d.d.d.s.7.( 8 } [.[.[.[.[.[.[.[.[.[.[.[.[.[.[.[.[.[.",
"[.[.[.[.[.[.[.[.[.[.[.[.[.[.[.[.[.{ D 7 &.t.d.d.d.d.d.q.&.x A ..[.[.[.[.[.[.[.[.[.[.[.[.[.[.[.[.[.[.",
"[.[.[.[.[.[.[.[.[.[.[.[.[.[.[.[.[.:.R h <.w.d.d.d.d.d.q.>.S T ..[.[.[.[.[.[.[.[.[.[.[.[.[.[.[.[.[.[.",
"[.[.[.[.[.[.[.[.[.[.[.[.[.[.[.[.[.:.W b x.h.d.d.d.d.d.j.l.V T ..[.[.[.[.[.[.[.[.[.[.[.[.[.[.[.[.[.[.",
"[.[.[.[.[.[.[.[.[.[.[.[.[.[.[.[.[.{ ! g.).Y.f.d.d.d.f.(.T.z.Q ..[.[.[.[.[.[.[.[.[.[.[.[.[.[.[.[.[.[.",
"[.[.[.[.[.[.[.[.[.[.[.[.[.[.[.[.[.$.g.V._.].R.d.d.d.(.].^.I.p.@.[.[.[.[.[.[.[.[.[.[.[.[.[.[.[.[.[.[.",
"[.[.[.[.[.[.[.[.[.[.[.[.[.[.[.| 7.t.f.A._.'.N.5 y.2 !.'./.B.d.t.#.| [.[.[.[.[.[.[.[.[.[.[.[.[.[.[.[.",
"[.[.[.[.[.[.[.[.[.[.[.[.[.[.[.| 7.d.f.A._.'.b.1 y.@ S.'.^.B.d.d.6.| [.[.[.[.[.[.[.[.[.[.[.[.[.[.[.[.",
"[.[.[.[.[.[.[.[.[.[.[.[.[.[.[.| #.q.f.A._.'.n.* [ X S.'.^.B.a.0.+.| [.[.[.[.[.[.[.[.[.[.[.[.[.[.[.[.",
"[.[.[.[.[.[.[.[.[.[.[.[.[.[.[.| | #.u.I.~.`.b.      S.`.E.r.q.O.| | [.[.[.[.[.[.[.[.[.[.[.[.[.[.[.[.",
"[.[.[.[.[.[.[.[.[.[.[.[.[.[.[.| | |  .i.b J.v..   . D.F.k.e.| | | | [.[.[.[.[.[.[.[.[.[.[.[.[.[.[.[.",
"[.[.[.[.[.[.[.[.[.[.[.[.[.[.[.[.[.| } n I E K > . a T W K u | | [.[.[.[.[.[.[.[.[.[.[.[.[.[.[.[.[.[.",
"[.[.[.[.[.[.[.[.[.[.[.[.[.[.[.[.[.| } d Y E R J F P R E H x | | [.[.[.[.[.[.[.[.[.[.[.[.[.[.[.[.[.[.",
"[.[.[.[.[.[.[.[.[.[.[.[.[.[.[.[.[.| | =.N Y E E E E E I z ) | | [.[.[.[.[.[.[.[.[.[.[.[.[.[.[.[.[.[.",
"[.[.[.[.[.[.[.[.[.[.[.[.[.[.[.[.| | | | =.c B I J H V u _ | | | | [.[.[.[.[.[.[.[.[.[.[.[.[.[.[.[.[.",
"[.[.[.[.[.[.[.[.[.[.[.[.[.[.[.| | | | | | | 4 > a , ( | | | | | | | [.[.[.[.[.[.[.[.[.[.[.[.[.[.[.[.",
"[.[.[.[.[.[.[.[.[.[.[.[.[.[.[.[.[.[.[.[./ } 3 + # . ~ } / [.[.[.[.[.[.[.[.[.[.[.[.[.[.[.[.[.[.[.[.[.",
"[.[.[.[.[.[.[.[.[.[.[.[.[.[.[.[.[.[.[.g L 1._ j P d ' c D g [.[.[.[.[.[.[.[.[.[.[.[.[.[.[.[.[.[.[.[.",
"[.[.[.[.[.[.[.[.[.[.[.[.[.[.[.[.[.[.h U 1.6 N T E Y z 6 c H g [.[.[.[.[.[.[.[.[.[.[.[.[.[.[.[.[.[.[.",
"[.[.[.[.[.[.[.[.[.[.[.[.[.[.[.[.[.k K u / 6 A E E E S *.] c H h [.[.[.[.[.[.[.[.[.[.[.[.[.[.[.[.[.[.",
"[.[.[.[.[.[.[.[.[.[.[.[.[.[.[.[.[.m.L.4.+.6 A E E E k =.o.5.L.m.[.[.[.[.[.[.[.[.[.[.[.[.[.[.[.[.[.[.",
"[.[.[.[.[.[.[.[.[.[.[.[.[.[.[.[.S.Q.'.W.4.7 A E E E k ;.5.Q.'.W.[.[.[.[.[.[.[.[.[.[.[.[.[.[.[.[.[.[.",
"[.[.[.[.[.[.[.[.[.[.[.[.[.[.[.C.Q.'.'.'.S.C S R W W l M.Q.'.'.'.S.C.[.[.[.[.[.[.[.[.[.[.[.[.[.[.[.[.",
"[.[.[.[.[.[.[.[.[.[.[.[.[.[.[.C.Q.'.'.'.S.3.6 h h h ) 5.Q.'.'.'.E.C.[.[.[.[.[.[.[.[.[.[.[.[.[.[.[.[.",
"[.[.[.[.[.[.[.[.[.[.[.[.[.[.[.[.S.Q.'.W.[.o...` ` ` } &.S.Q.'.W.[.[.[.[.[.[.[.[.[.[.[.[.[.[.[.[.[.[.",
"[.[.[.[.[.[.[.[.[.[.[.[.[.[.[.[.[.[.[.[.[.0.6.| [.| 7.[.[.[.[.[.[.[.[.[.[.[.[.[.[.[.[.[.[.[.[.[.[.[.",
"[.[.[.[.[.[.[.[.[.[.[.[.[.[.[.[.[.[.[.[.[.q.7.[.[.| 9.w.[.[.[.[.[.[.[.[.[.[.[.[.[.[.[.[.[.[.[.[.[.[.",
"[.[.[.[.[.[.[.[.[.[.[.[.[.[.[.[.[.[.[.[.d.7.| [.[.[.| 0.d.[.[.[.[.[.[.[.[.[.[.[.[.[.[.[.[.[.[.[.[.[.",
"[.[.[.[.[.[.[.[.[.[.[.[.[.[.[.[.[.[.[.[.y.$.^ [.[.[.^ 8.y.[.[.[.[.[.[.[.[.[.[.[.[.[.[.[.[.[.[.[.[.[.",
"[.[.[.[.[.[.[.[.[.[.[.[.[.[.[.[.[.[.[.[.@ @ X [.[.[.X X @ [.[.[.[.[.[.[.[.[.[.[.[.[.[.[.[.[.[.[.[.[.",
"[.[.[.[.[.[.[.[.[.[.[.[.[.[.[.[.[.[.[.  n.n.0   [.  i Z.p   [.[.[.[.[.[.[.[.[.[.[.[.[.[.[.[.[.[.[.[.",
"[.[.[.[.[.[.[.[.[.[.[.[.[.[.[.[.[.[.    0 q -   [.  = q 9     [.[.[.[.[.[.[.[.[.[.[.[.[.[.[.[.[.[.[.",
"[.[.[.[.[.[.[.[.[.[.[.[.[.[.[.[.[.$ , , t i 9 % [.; r i r , < [.[.[.[.[.[.[.[.[.[.[.[.[.[.[.[.[.[.[.",
"[.[.[.[.[.[.[.[.[.[.[.[.[.[.[.[.$ : Y Y P./.H.e o m K./.G.Y J & [.[.[.[.[.[.[.[.[.[.[.[.[.[.[.[.[.[.",
"[.[.[.[.[.[.[.[.[.[.[.[.[.[.[.  ; s s s s s M p o c.m s s s s s $   [.[.[.[.[.[.[.[.[.[.[.[.[.[.[.[.",
"[.[.[.[.[.[.[.[.[.[.[.[.[.[.[.    . . o o . O o   o . . . + . .     [.[.[.[.[.[.[.[.[.[.[.[.[.[.[.[.",
"[.[.[.[.[.[.[.[.[.[.[.[.[.[.[.                                      [.[.[.[.[.[.[.[.[.[.[.[.[.[.[.[.",
"[.[.[.[.[.[.[.[.[.[.[.[.[.[.[.[.[.[.[.[.[.[.[.[.[.[.[.[.[.[.[.[.[.[.[.[.[.[.[.[.[.[.[.[.[.[.[.[.[.[.",
"[.[.[.[.[.[.[.[.[.[.[.[.[.[.[.[.[.[.[.[.[.[.[.[.[.[.[.[.[.[.[.[.[.[.[.[.[.[.[.[.[.[.[.[.[.[.[.[.[.[.",
"[.[.[.[.[.[.[.[.[.[.[.[.[.[.[.[.[.[.[.[.[.[.[.[.[.[.[.[.[.[.[.[.[.[.[.[.[.[.[.[.[.[.[.[.[.[.[.[.[.[.",
"[.[.[.[.[.[.[.[.[.[.[.[.[.[.[.[.[.[.[.[.[.[.[.[.[.[.[.[.[.[.[.[.[.[.[.[.[.[.[.[.[.[.[.[.[.[.[.[.[.[.",
"[.[.[.[.[.[.[.[.[.[.[.[.[.[.[.[.[.[.[.[.[.[.[.[.[.[.[.[.[.[.[.[.[.[.[.[.[.[.[.[.[.[.[.[.[.[.[.[.[.[."
};
