/* XPM */
static char *result[] = {
/* columns rows colors chars-per-pixel */
"50 50 235 2 ",
"   c #010001",
".  c #0C0101",
"X  c #01010C",
"o  c #09090C",
"O  c #140000",
"+  c #130C07",
"@  c #07081A",
"#  c #161717",
"$  c #2C0000",
"%  c #3E0201",
"&  c #310101",
"*  c #291913",
"=  c #1E211D",
"-  c #03032B",
";  c #070927",
":  c #07093A",
">  c #17193D",
",  c #1B2425",
"<  c #212423",
"1  c #272B29",
"2  c #353736",
"3  c #32312F",
"4  c #480303",
"5  c #570100",
"6  c #481911",
"7  c #650303",
"8  c #770103",
"9  c #422616",
"0  c #62093A",
"q  c #503331",
"w  c #6E2B23",
"e  c #510639",
"r  c #3E423F",
"t  c #53523C",
"y  c #111145",
"u  c #13134C",
"i  c #161858",
"p  c #090B51",
"a  c #200953",
"s  c #33334F",
"d  c #171969",
"f  c #181B78",
"g  c #0B1175",
"h  c #311479",
"j  c #2A0F76",
"k  c #26287C",
"l  c #5C0945",
"z  c #7C387C",
"x  c #3E4646",
"c  c #444846",
"v  c #454948",
"b  c #4E5454",
"n  c #525654",
"m  c #585D5C",
"M  c #4D514F",
"N  c #6C4846",
"B  c #745453",
"V  c #5C645D",
"C  c #754A6C",
"Z  c #656767",
"A  c #787877",
"S  c #736F6D",
"D  c #485069",
"F  c #8C0000",
"G  c #840103",
"H  c #930000",
"J  c #990000",
"K  c #8F1512",
"L  c #B60002",
"P  c #9C241B",
"I  c #B53818",
"U  c #AE310C",
"Y  c #902E23",
"T  c #A52B2B",
"R  c #A53C26",
"E  c #B8392D",
"W  c #C70000",
"Q  c #D30000",
"!  c #D90000",
"~  c #CB1518",
"^  c #FD0201",
"/  c #F2110F",
"(  c #CA361A",
")  c #FE2119",
"_  c #E23D32",
"`  c #9C5C3C",
"'  c #AC4E33",
"]  c #B55A39",
"[  c #AA4C31",
"{  c #FC4737",
"}  c #FE513E",
"|  c #C06F3E",
" . c #E45D36",
".. c #942F48",
"X. c #995251",
"o. c #94605F",
"O. c #B46D49",
"+. c #A86C51",
"@. c #85557E",
"#. c #977D7C",
"$. c #8C7573",
"%. c #A96F76",
"&. c #C77956",
"*. c #D77053",
"=. c #FF795F",
"-. c #F95E57",
";. c #7E8175",
":. c #BB866A",
">. c #D1845D",
",. c #D78B5F",
"<. c #F39D5F",
"1. c #FCA34E",
"2. c #DC8267",
"3. c #EA9666",
"4. c #F49968",
"5. c #E19872",
"6. c #F38F71",
"7. c #F8AA7A",
"8. c #1C1D8C",
"9. c #151888",
"0. c #0E1599",
"q. c #1B1D92",
"w. c #141996",
"e. c #100F89",
"r. c #221D8A",
"t. c #211F90",
"y. c #1D2191",
"u. c #22228D",
"i. c #252686",
"p. c #232391",
"a. c #2A2A96",
"s. c #2B2B9B",
"d. c #252798",
"f. c #31319D",
"g. c #393B9A",
"h. c #373683",
"j. c #1B20A2",
"k. c #2C32A7",
"l. c #3435A3",
"z. c #3638A6",
"x. c #3939A6",
"c. c #3B3DAA",
"v. c #363BAA",
"b. c #383BB7",
"n. c #282DA7",
"m. c #42399D",
"M. c #3E40AE",
"N. c #3D43B7",
"B. c #59438F",
"V. c #755D9E",
"C. c #6C528C",
"Z. c #71778F",
"A. c #4541AC",
"S. c #4445B4",
"D. c #4949B6",
"F. c #4C4CBA",
"G. c #4445B8",
"H. c #5354B6",
"J. c #5E64AD",
"K. c #696EAB",
"L. c #644CA6",
"P. c #3C40C0",
"I. c #4E52C7",
"U. c #5455C3",
"Y. c #5B5DCB",
"T. c #5656C7",
"R. c #4E54D2",
"E. c #575BD5",
"W. c #605FCC",
"Q. c #5D60D2",
"!. c #6264D4",
"~. c #6669DB",
"^. c #6C6CDB",
"/. c #6767D7",
"(. c #6F70D4",
"). c #5F65E0",
"_. c #686BE5",
"`. c #6F72E1",
"'. c #7778EA",
"]. c #7C7DF3",
"[. c #7B8082",
"{. c #7F80EF",
"}. c #8A8C8C",
"|. c #828485",
" X c #8D8F97",
".X c #8C9491",
"XX c #9A9C9B",
"oX c #959797",
"OX c #91918F",
"+X c #98A09D",
"@X c #8B94B9",
"#X c #99A5A2",
"$X c #B9BBBA",
"%X c #A5ADAC",
"&X c #B59697",
"*X c #CA9395",
"=X c #F7AC85",
"-X c #F8B788",
";X c #FDBA92",
":X c #FBBA9E",
">X c #FCBEA5",
",X c #FEC493",
"<X c #FEC897",
"1X c #FACB90",
"2X c #FFCAA5",
"3X c #FFDAA7",
"4X c #FED0B4",
"5X c #FDD5B8",
"6X c #FDCFB3",
"7X c #9193D9",
"8X c #A5AECD",
"9X c #8384F5",
"0X c #8587FB",
"qX c #9294FE",
"wX c #9A9CFF",
"eX c #8D94E0",
"rX c #A5AEF9",
"tX c #BED0D2",
"yX c #C2C8C6",
"uX c #CBD3D1",
"iX c #D2DADA",
"pX c #CECFD0",
"aX c #DBE0D7",
"sX c #F7EAD1",
"dX c #D0D4F9",
"fX c #DCE3FA",
"gX c #E8ECE7",
"hX c #F1E9E7",
"jX c #EAF3F1",
"kX c #F5F5F5",
"lX c #FEFEFE",
"zX c #F6F8FB",
"xX c #F5F3E5",
"cX c #FED2D0",
"vX c None",
/* pixels */
"vXvXvXvXvXvXvXvXvXvXvXvXvXvXvXvXvXvXvXvXvXvXvXvXvXvXvXvXvXvXvXvXvXvXvXvXvXvXvXvXvXvXvXvXvXvXvXvXvXvX",
"vXvXvXvXvXvXvXvXvXvXvXvXvXvXvXvXvXvXvXvXvXvXvXvXvXS.N.Y.`.`.`.`.`.H.F.D.D.D.D.vXvXvXvXvXvXvXvXvXvXvX",
"vXvXvXvXvXvXvXvXvXvXvXvXvXvXvXvXvXvXvXvXvXvXvXF.^.Y.Y./.Y.M.S.U.Y.F.D.D.G.f.f.a.u.vXvXvXvXvXvXvXvXvX",
"vXvXvXvXvXvXvXvXvXvXvXvXvXvXl.f.vXvXvXvXvXvXY.Y.`.9X'.~.F.l.8.D.D.c.l.l.f.u.u.r.u.vXvXvXvXvXvXvXvXvX",
"vXvXvXvXvXvXvXvXvXvXvXvXvXvXD.g.p.vXvXvXU.Y.`.].{.qX`.B.L.Y.9.v.c.d.8.r.8.r.r.vXvXvXvXvXvXvXvXvXvXvX",
"vXvXvXvXvXvXvXvXvXvXvXvXvXvXS.f.u.s.D./.^.`.9XwXqX^.A.P ..U.9.8.9.8.8.8.y.vXvXvXvXvXvXvXvXvXvXvXvXvX",
"vXvXvXvXvXvXvXvXvXvXvXvXvXvXp.p.f.F.(.^.^.9XwXqX^.e.8  .*Xv.9.9.8.8.8.8.vXvXvXvXvXvXvXvXvXvXvXvXvXvX",
"vXvXvXvXvXvXvXvXvXvXvXvXvXvXp.f.F.!./.^.9XqXwX].r.8 U 1.*Xz.9.9.8.8.8.vXvXvXvXvXvXvXvXvXvXvXvXvXvXvX",
"vXvXvXvXvXvXvXvXvXvXvXvXvXvXc.F.!.~.`.{.0XdXzXfX/.@.C.*.%.z.q.l.x.x.c.c.r.vXvXvXvXvXvXvXvXvXvXvXvXvX",
"vXvXvXvXvXvXvXvXvXvXvXvXvXvXH.!.^.`.{.qX_.eX8X7X].]./.C.C.l.q.S.T.Y.W.U.D.vXvXvXvXvXvXvXvXvXvXvXvXvX",
"vXvXvXvXvXvXvXvXvXvXvXvXvXk H.(.`.'.{.{.W.k d k I.0X'.I.S.c.a.G.W.!./.`.^.U.f.a.vXvXvXvXvXvXvXvXvXvX",
"vXvXvXvXvXvXvXvXvXvXvXvXvXn K.(.'.9X).I.[.:.t 2 e.)._.R.N.G.G.A.D.D.T././.(.U.l.a.vXvXvXvXvXvXvXvXvX",
"vXvXvXvXvXvXvXvXvXvXvXvXvXOX(.(.^.~.S.}.hXlXgXZ.e.)._.I.N.G.M.y.M.D.D.D.D.D.^.U.l.u.vXvXvXvXvXvXvXvX",
"vXvXvXvXvXvXvXvXvXvXvXvXvX# h.Y.Q.g.o aXlXlXlXiXn._._.I.N.G.M.p.a.a.x.D.D.D.F.D.G.x.p.vXvXvXvXvXvXvX",
"vXvXvXvXvXvXvXvXvXvXvXvXvX  d f.k ;   jXlXlXzXzXR._.R.I.G.G.N.y.p.u.a.s.f.f.f.f.f.a.k   vXvXvXvXvXvX",
"vXvXvXvXvXvXvXvXvXvXvXvXvX  ; i >     gXlXlXlXzX_.R.P.b.b.b.s.q.t.u.u.u.r.> y y y y :       vXvXvXvX",
"vXvXvXvXvXvXvXvXvXvXvXvXvXO + 3 q   + gXlXlXlXdXrXeXV.g.k.n.q.y.t.d i i u                   vXvXvXvX",
"vXvXvXvXvXvXvXvXvXvXvXvXvX% % N B % 4 hXlXlXfXrXlXlX-XC 8.e.q.q.t.u ; @ @       vXvXvXvXvXvXvXvXvXvX",
"vXvXvXvXvXvXvXvXvXvXvXXXkX< $ N B 4 4 hXlXlXlXlX1X1XlX1XB 0.w.q.q.c.D.M.k   vXvXvXvXvXvXvXvXvXvXvXvX",
"vXvXvXvXvXvXvXvXvXvXvX# =     w +.oXhXlXlXlXxX2X1X1X3X<.C 0.w.w.q.d.c.G.c.k vXvXvXvXvXvXvXvXvXvXvXvX",
"vXvXvXvXvXvXvXvXvXvXvXvXvX7 w ` +.>.4X4X4X4X2X,X1X1X<.( 0 0.e.- f q.s.v.D.c.f.vXvXvXvXvXvXvXvXvXvXvX",
"vXvXvXvXvXvXvXvXvXvXvXvXvXvXP ' O.:.;X;X;X;X;X;X,X4.I 5 . - -   f d.p.d.l.l.g.vXvXvXvXvXvXvXvXvXvXvX",
"vXvXvXvXvXvXvXvXvXvXvXvXvXvXvXP [ ' 5.;X;X;X=X3.*.I 5 .         y p i d p.p.x.i vXvXvXvXvXvXvXvXvXvX",
"vXvXvXvXvXvXvXvXvXvXvXvXvXvXvXvXF K ] *.5.6.&.Y 7 7                   ; d d i.: vXvXvXvXvXvXvXvXvXvX",
"vXvXvXvXvXvXvXvXvXvXvXvXvXvXvXvXvXvXH F F F H 8                             d ; vXvXvXvXvXvXvXvXvXvX",
"vXvXvXvXvXvXvXvXvXvXvXvXvXvXvXvXvXvXvXvXH R >.>XzXlXT P 3.1X-X| +           X   vXvXvXvXvXvXvXvXvXvX",
"vXvXvXvXvXvXvXvXvXvXvXvXvXvXvXvXvXvXvXH R >.=X5XlXlX;X@.s 6 ( -XO.*   vXvXvX    vXvXvXvXvXvXvXvXvXvX",
"vXvXvXvXvXvXvXvXvXvXvXvXvXvXvXvXvXvXvXF ' 5.;X2XsXsX3XV.p   4 4.4.+.9 vXvXvXvX  vXvXvXvXvXvXvXvXvXvX",
"vXvXvXvXvXvXvXvXvXvXvXvXvXvXvXvXvXvXvXH ' >.=X,X<X<X7.C.g 1 2 I -X*.w ; vXvXvXvXvXvXvXvXvXvXvXvXvXvX",
"vXvXvXvXvXvXvXvXvXvXvXvXvXvXvXvXvXvXvXF ' O.>.=X=X3.+.B.J.%X$XP 6.I l g   vXvXvXvXvXvXvXvXvXvXvXvXvX",
"vXvXvXvXvXvXvXvXvXvXvXvXvXvXvXvXvXb n 8 [ ] ] ] ' F h K.%XpXkX%X+.P l p   vXvXvXvXvXvXvXvXvXvXvXvXvX",
"vXvXvXvXvXvXvXvXvXvXvXvXvXvXvXvXZ oX}.o 7 J J J F e.Z.jXlXlX+XXXb +       vXvXvXvXvXvXvXvXvXvXvXvXvX",
"vXvXvXvXvXvXvXvXvXvXvXvXvXvXv S }.}.b o a h j j j s iXlXlXlXkXm x vXvXvX  vXvXvXvXvXvXvXvXvXvXvXvXvX",
"vXvXvXvXvXvXvXvXvXvXvXvXvXvXv S XX[.o   @ - - - - 2 jXlXlXzXyX;.M vXvXvXvXvXvXvXvXvXvXvXvXvXvXvXvXvX",
"vXvXvXvXvXvXvXvXvXvXvXvXvXvXv m A m   p   o o     2 $XgXgXuXXXXXn vXvXvXvXvXvXvXvXvXvXvXvXvXvXvXvXvX",
"vXvXvXvXvXvXvXvXvXvXvXvXvXvXv v 2 , - p ; , vXvX  , Z .X+X+XoXA 2 # vXvXvXvXvXvXvXvXvXvXvXvXvXvXvXvX",
"vXvXvXvXvXvXvXvXvXvXvXvXvXvXv c 1 X w.  1 vXvXvXvX  , Z }.}.[.c     vXvXvXvXvXvXvXvXvXvXvXvXvXvXvXvX",
"vXvXvXvXvXvXvXvXvXvXvXvXvXvXvXx , X w.X vXvXvXvXvXvXX # r r r x vXvXvXvXvXvXvXvXvXvXvXvXvXvXvXvXvXvX",
"vXvXvXvXvXvXvXvXvXvXvXvXvXvXvX  - g X vXvXvXvXvXvXvXvX9.s.z.i.|.n vXvXvXvXvXvXvXvXvXvXvXvXvXvXvXvXvX",
"vXvXvXvXvXvXvXvXvXvXvXvXvXvXvX  - f   |.V vXvXvXvXvXvXs k j.d.oXn # vXvXvXvXvXvXvXvXvXvXvXvXvXvXvXvX",
"vXvXvXvXvXvXvXvXvXvXvXvXvXvX#XoX@X7X= Z b vXvXvXvXvXvXc D K.8XpXZ * O vXvXvXvXvXvXvXvXvXvXvXvXvXvXvX",
"vXvXvXvXvXvXvXvXvXvXvXvXvXo.A $XjXiXV Z M vXvXvXvXvXvXv m  XpXyXN 5 &   vXvXvXvXvXvXvXvXvXvXvXvXvXvX",
"vXvXvXvXvXvXvXvXvXvXvXvXvXE B S #.#.:.$.v vXvXvXvXvXvXvXv n D n Y K 4 . vXvXvXvXvXvXvXvXvXvXvXvXvXvX",
"vXvXvXvXvXvXvXvXvXvXvX%XlXzXtXX.H F G 4   vXvXvXvXvXvXvXvXXXXX X XZ q &   vXvXvXvXvXvXvXvXvXvXvXvXvX",
"vXvXvXvXvXvXvXvXvXvXL ^ ) &XjXpXo.J J F O vXvXvXvXvXvXoXyXzXkXkX%X}.Z 1   vXvXvXvXvXvXvXvXvXvXvXvXvX",
"vXvXvXvXvXvXvXF ! } 6.=.^ ) cXiXA w J J 4 . vXvXvXvXH ~ =.6X>X} T $.S 3   vXvXvXvXvXvXvXvXvXvXvXvXvX",
"vXvXvXvXF H ^ ! ^ ) } { ^ Q *X$XZ.q J J 5 O   vXvXH W _ 6.7.{ ^ ! T N 3   vXvXvXvXvXvXvXvXvXvXvXvXvX",
"vXvXvXvXF H Q ! Q ! Q Q H 4 q b x = 5 4 $ .   vXvXH W _ &._ Q Q Q 8 6 * vXvXvXvXvXvXvXvXvXvXvXvXvXvX",
"vXvXvXvXF F F F F F F 8                       vXvXH F H H F H F H &     vXvXvXvXvXvXvXvXvXvXvXvXvXvX",
"vXvXvXvXvXvXvXvXvXvXvXvXvXvXvXvXvXvXvXvXvXvXvXvXvXvXvXvXvXvXvXvXvXvXvXvXvXvXvXvXvXvXvXvXvXvXvXvXvXvX"
};
