/* XPM */
static char *result[] = {
/* columns rows colors chars-per-pixel */
"50 50 174 2 ",
"   c #010101",
".  c #0B0604",
"X  c #020208",
"o  c #0B0A06",
"O  c #170806",
"+  c #0F100F",
"@  c #1D1204",
"#  c gray12",
"$  c #040317",
"%  c #210E0C",
"&  c #26120C",
"*  c #271110",
"=  c #3F1C1C",
"-  c #3C270E",
";  c #080B33",
":  c #2A2A2A",
">  c #242624",
",  c #48211E",
"<  c #452A13",
"1  c #532622",
"2  c #5A2C2B",
"3  c #523D3C",
"4  c #663232",
"5  c #7A3A39",
"6  c #6B471F",
"7  c #795024",
"8  c #060340",
"9  c #0E1042",
"0  c #070853",
"q  c #00007E",
"w  c #421D68",
"e  c #4F257E",
"r  c #592779",
"t  c #6F386F",
"y  c #783A6D",
"u  c #6B3573",
"i  c gray28",
"p  c #4B4944",
"a  c #555655",
"s  c #7F4040",
"d  c #695553",
"f  c #784573",
"g  c #616361",
"h  c #6C706E",
"j  c #707271",
"k  c #813E3C",
"l  c #88542F",
"z  c #93642E",
"x  c #9D4E4E",
"c  c #9E4D59",
"v  c #A04F4E",
"b  c #A65648",
"n  c #BD5D47",
"m  c #A14F58",
"M  c #A75454",
"N  c #B55C54",
"B  c #B15E5B",
"V  c #A56540",
"C  c #B76458",
"Z  c #9E5461",
"A  c #894E6D",
"S  c #A85E72",
"D  c #9F656F",
"F  c #AA6562",
"G  c #B06D66",
"H  c #CD6F46",
"J  c #CF764F",
"K  c #CC7D58",
"L  c #CC7555",
"P  c #C47C62",
"I  c #978267",
"U  c #CD804A",
"Y  c #DD844F",
"T  c #D58157",
"R  c #DA8252",
"E  c #D19151",
"W  c #E78C4F",
"Q  c #EB9D49",
"!  c #E48F56",
"~  c #EA9358",
"^  c #F39B53",
"/  c #FDAC4A",
"(  c #FBA74F",
")  c #FEB44C",
"_  c #F7A153",
"`  c #FDAC52",
"'  c #FBA553",
"]  c #FFB354",
"[  c #DC9765",
"{  c #F9B068",
"}  c #00009B",
"|  c #1B0B99",
" . c #240D8F",
".. c #220D95",
"X. c #352092",
"o. c #222686",
"O. c #0703A3",
"+. c #0905A6",
"@. c #0000AB",
"#. c #0909AA",
"$. c #1511A5",
"%. c #0404B1",
"&. c #0C0DB6",
"*. c #0C0DBD",
"=. c #1212BF",
"-. c #1B16B7",
";. c #2F1EAB",
":. c #2122AC",
">. c #2F2AA4",
",. c #302CA7",
"<. c #3032AC",
"1. c #3023B6",
"2. c #411F87",
"3. c #472183",
"4. c #482387",
"5. c #4D328F",
"6. c #412991",
"7. c #0A0BC2",
"8. c #1415C4",
"9. c #1719CA",
"0. c #1C1ED1",
"q. c #2323CD",
"w. c #2C2DDB",
"e. c #2425D1",
"r. c #3738C3",
"t. c #2D2FE2",
"y. c #3435E4",
"u. c #3A3BE7",
"i. c #3E3EED",
"p. c #3C3EF2",
"a. c #3F40ED",
"s. c #4141EC",
"d. c #5052EA",
"f. c #4A4BF6",
"g. c #4C4EFB",
"h. c #4546F5",
"j. c #4E50FD",
"k. c #5355FF",
"l. c #5C5BFB",
"z. c #5558FF",
"x. c #6556E8",
"c. c #625DFB",
"v. c #5F61FF",
"b. c #6F72FF",
"n. c #805A83",
"m. c #8F918E",
"M. c #BEA88E",
"N. c #9E9EAA",
"B. c #9C9DBD",
"V. c #A18BA5",
"C. c #B699A3",
"Z. c #ABABAB",
"A. c #A6A3A5",
"S. c #BABAB9",
"D. c #E4AF8C",
"F. c #C6C1BB",
"G. c #F0C6B3",
"H. c #999CC3",
"J. c #8B8CD1",
"K. c #CBCEC4",
"L. c #CCCFD7",
"P. c #FAE0CB",
"I. c #ECE5DA",
"U. c #CACDFF",
"Y. c #D8DCFF",
"T. c #C5C7E8",
"R. c #ECEFE5",
"E. c #ECEEEB",
"W. c #E3E4E7",
"Q. c #EEF1E3",
"!. c #F8F5EC",
"~. c #FFFFFF",
"^. c #F1F4F1",
"/. c None",
/* pixels */
"/./././././././././././././././././././././././././././././././././././././././././././././././././.",
"/./././././././././././././././././././././././././././././././././././././././././././././././././.",
"/./././././././././././././././././././././././././././././././././././././././././././././././././.",
"/./././././././././././././././././././././././././././././././././././././././././././././././././.",
"/./././././././././././././././././././././././././././././././././././././././././././././././././.",
"/./././././././././././././././././.@./././././.@.@.@.@.@.@././././././././././././././././././././.",
"/./././././././././././././././././.%./././././.@.@.@.#.%.%././././././././././././././././././././.",
"/./././././././././././././././././.f.@.@.@.@.=.h.#.u.k.k.u.@.@././././././././././././././././././.",
"/./././././././././././././././././.g.%.w.s.i.y.-.y ;.u.u.=././././././././././././././././././././.",
"/./././././././././././././././././.0.w.f.z.i.1.t R X.*.=.@././././././././././././././././././././.",
"/./././././././././././././././././.%.g.z.z.t...n / f | @.@././././././././././././././././././././.",
"/./././././././././././././././././.8.g.k.b.d.;.S ) H e #.*.@./././././././././././././././././././.",
"/././././././././././././././././.7.z.k.v.U.U.z.c._ L 4.e.s.%.@././././././././././././././././././.",
"/././././././././././././././././.7.k.k.Y.~.R.H.k.c.l.k.j.k.f.%.@./././././././././././././././././.",
"/././././././././././././././././.0 g.9 L.~.Q.B.k.k.z.z.z.z.k.s.s.q././././././././././././././././.",
"/././././././././././././././././.; f.X K.~.R.H.k.k.z.y.0.q.q.q.q.*.@.@././././././././././././././.",
"/./././././././././././././././.  $ o.  K.~.R.H.k.k.k.0.@.@.@.@.@.@.@.@././././././././././././././.",
"/././././././././././././././.      O   K.~.I.V.x.k.a.8.@.@.@.@././././././././././././././././././.",
"/././././././././././././././.    & b O F.~.G.n N x.7.@.@.@.#./././././././././././././././././././.",
"/././././././././././././././.    - ^ b B ~ ] ) / N ..@.@.*.g.%././././././././././././././././././.",
"/./././././././././././././././.2 b ` ^ ^ ( ) ) / n ..@.@.%.8.i.=./././././././././././././././././.",
"/././././././././././././././././.H K ` ] ) ) ` J e O.@.@.@.%.g.8./././././././././././././././././.",
"/./././././././././././././././././.N ` W W K A r @.@.@.@.@.@.w.&.@././././././././././././././././.",
"/./././././././././././././././././././.k k w %.%.@.%.@.@.@.@.@.@.@././././././././././././././././.",
"/./././././././././././././././././././.  . 8 %.%.O.+./././././././././././././././././././././././.",
"/./././././././././././././././././././.  l J y +.[ N X.@.@././././././././././././././././././././.",
"/././././././././././././././././././.  4 U ' K y 6.P C 3.@.@./././././././././././././././././././.",
"/./././././././././././././././././.    V _ ] ^ c O.5.G F 3.@.@././././././././././././././././././.",
"/././././././././././././././././.# i i E ` ] ^ c O.<.C.D.n.@.@././././././././././././././././././.",
"/././././././././././././././././.: Z.Z.[ _ ` ~ m >.B.E.E.B.:.@././././././././././././././././././.",
"/././././././././././././././././.: Z.Z.F T ^ W Z Z.^.~.~.^.A.#././././././././././././././././././.",
"/././././././././././././././././.: Z.Z.>.u N A $.N.E.~.~.E.Z./././././././././././././././././././.",
"/./././././././././././././././././.> > /.| ..| %.:.B.W.W.F././././././././././././././././././././.",
"/././././././././././././././././././././.t.9.@./.@.<.J././././././././././././././././././././././.",
"/././././././././././././././././././././.z.t.%./.0.%./././././././././././././././././././././././.",
"/././././././././././././././././././././.z.t.@./.p.*.q /./././././././././././././././././././././.",
"/././././././././././././././././././././.f.e.} /.&.%.0 + /././././././././././././././././././././.",
"/././././././././././././././././././././.X X X + W.r.J.m.  /./././././././././././././././././././.",
"/./././././././././././././././././././.  1 ,   + S.T.L.j X /./././././././././././././././././././.",
"/./././././././././././././././././.    1 1 @ @ z i g a 3 1   /././././././././././././././././././.",
"/././././././././././././././././.O =   , d h I ` 7 6 6 l s   /././././././././././././././././././.",
"/././././././././././././././.% & = k < < M.!.P.{ ^ ^ ^ L s   /././././././././././././././././././.",
"/./././././././././././././.  2 M 5 . Q ` / R F A.M m v x 5   /././././././././././././././././././.",
"/./././././././././././././.  X .     . . .   . X o . . o .   /././././././././././././././././././.",
"/./././././././././././././.                                  /././././././././././././././././././.",
"/./././././././././././././././././././././././././././././././././././././././././././././././././.",
"/./././././././././././././././././././././././././././././././././././././././././././././././././.",
"/./././././././././././././././././././././././././././././././././././././././././././././././././.",
"/./././././././././././././././././././././././././././././././././././././././././././././././././.",
"/./././././././././././././././././././././././././././././././././././././././././././././././././."
};
