/* XPM */
static char *result[] = {
/* columns rows colors chars-per-pixel */
"50 50 229 2 ",
"   c #150000",
".  c #280101",
"X  c #350401",
"o  c #3C0500",
"O  c #340F18",
"+  c #430701",
"@  c #490B02",
"#  c #471407",
"$  c #581B07",
"%  c #461C19",
"&  c #680600",
"*  c #771801",
"=  c #711702",
"-  c #572718",
";  c #642304",
":  c #772B07",
">  c #76330B",
",  c #662B13",
"<  c #7A3A19",
"1  c #6F391F",
"2  c #54292C",
"3  c #5E352C",
"4  c #432B32",
"5  c #5D3A35",
"6  c #46272E",
"7  c #683728",
"8  c #753C25",
"9  c #72411E",
"0  c #5D403B",
"q  c #7A4426",
"w  c #6C4234",
"e  c #6E4738",
"r  c #784939",
"t  c #714A34",
"y  c #684A4B",
"u  c #764845",
"i  c #7B5A4D",
"p  c #775346",
"a  c #7D5B52",
"s  c #745752",
"d  c #6F5E67",
"f  c #7B6564",
"g  c #7C6871",
"h  c #BA1E0F",
"j  c #922A01",
"k  c #873306",
"l  c #813913",
"z  c #912C01",
"x  c #AA3704",
"c  c #C01E0F",
"v  c #CC3C01",
"b  c #974F19",
"n  c #8D471A",
"m  c #A84408",
"M  c #B8470C",
"N  c #BD5C17",
"B  c #B04C18",
"V  c #BE751A",
"C  c #87462B",
"Z  c #92572B",
"A  c #834E34",
"S  c #8D4934",
"D  c #9B5838",
"F  c #8E532E",
"G  c #A75A36",
"H  c #BA5834",
"J  c #AC5829",
"K  c #996637",
"L  c #9B6727",
"P  c #A66739",
"I  c #A0793A",
"U  c #BA682F",
"Y  c #CB4604",
"T  c #D34C05",
"R  c #C6550A",
"E  c #D6520A",
"W  c #C75B18",
"Q  c #E64B02",
"!  c #FE5A01",
"~  c #E75D12",
"^  c #C76A17",
"/  c #D06708",
"(  c #F56608",
")  c #FA691A",
"_  c #FD7619",
"`  c #E66715",
"'  c #D15129",
"]  c #C97627",
"[  c #D67229",
"{  c #CA7933",
"}  c #D2732E",
"|  c #ED752C",
" . c #885A48",
".. c #935A44",
"X. c #985C46",
"o. c #895B55",
"O. c #AA5B47",
"+. c #8A624D",
"@. c #9B6448",
"#. c #856452",
"$. c #8C6557",
"%. c #9A6653",
"&. c #936B5D",
"*. c #9C6B5B",
"=. c #9A6955",
"-. c #AC6443",
";. c #A66D4C",
":. c #A66647",
">. c #B86C47",
",. c #A7724C",
"<. c #A97449",
"1. c #B37A4D",
"2. c #B6774A",
"3. c #AB6D55",
"4. c #A56A55",
"5. c #B86A55",
"6. c #A9725A",
"7. c #BC7353",
"8. c #B47A5B",
"9. c #B6775A",
"0. c #836A67",
"q. c #8A7167",
"w. c #987668",
"e. c #836D79",
"r. c #8B7273",
"t. c #867076",
"y. c #9B7974",
"u. c #937878",
"i. c #9B6E6A",
"p. c #A47564",
"a. c #AA796A",
"s. c #A97766",
"d. c #B17D65",
"f. c #B77B67",
"g. c #AA7D73",
"h. c #A7757C",
"j. c #B27377",
"k. c #D5784A",
"l. c #C97A56",
"z. c #DB7D53",
"x. c #D77E56",
"c. c #E07D43",
"v. c #C57A65",
"b. c #CA7963",
"n. c #C57864",
"m. c #E76074",
"M. c #D58119",
"N. c #FC8518",
"B. c #D08639",
"V. c #FA8427",
"C. c #EA962C",
"Z. c #FD9724",
"A. c #E68637",
"S. c #ED8D30",
"D. c #FFAB35",
"F. c #FDB639",
"G. c #FDA92D",
"H. c #B9844E",
"J. c #BB8457",
"K. c #BA9158",
"L. c #AB8557",
"P. c #A78768",
"I. c #B78767",
"U. c #BE9760",
"Y. c #A78678",
"T. c #BA8876",
"R. c #BC9476",
"E. c #AF9275",
"W. c #C98149",
"Q. c #C88757",
"!. c #DB8057",
"~. c #C6925A",
"^. c #D79153",
"/. c #FD8F46",
"(. c #FB8E4B",
"). c #FD9046",
"_. c #ED9152",
"`. c #DDA954",
"'. c #FCAA42",
"]. c #FDA444",
"[. c #E8AD59",
"{. c #C88764",
"}. c #D18962",
"|. c #C29C63",
" X c #CC9C6A",
".X c #C89665",
"XX c #D29C67",
"oX c #C1967A",
"OX c #D59E7D",
"+X c #CDA669",
"@X c #D7A866",
"#X c #CAA77A",
"$X c #D6B075",
"%X c #F8A867",
"&X c #E6B877",
"*X c #ECB06E",
"=X c #FEC543",
"-X c #FDC44B",
";X c #FFCF44",
":X c #FFD24B",
">X c #FAC978",
",X c #F7D178",
"<X c #917783",
"1X c #A37581",
"2X c #00ABFF",
"3X c #00B1FF",
"4X c #32C5FE",
"5X c #AB8989",
"6X c #B39891",
"7X c #BEA99F",
"8X c #948FA4",
"9X c #D6B085",
"0X c #D2A786",
"qX c #E8A693",
"wX c #C9B3B2",
"eX c #D2B5B1",
"rX c #DCB9B6",
"tX c #D8B9B6",
"yX c #D2ADAA",
"uX c #E3BBB7",
"iX c #E5BDBB",
"pX c #CB9BA9",
"aX c #FDCC87",
"sX c #FCE391",
"dX c #DDC1B7",
"fX c #EAC8B3",
"gX c #DCBEC0",
"hX c #FDF1E4",
"jX c None",
/* pixels */
"jXjXjXjXjXjXjXjXjXjXjXjXjXjXjXjXjXjXjXjXjXjXjXjXjXjXjXjXjXjXjXjXjXjXjXjXjXjXjXjXjXjXjXjXjXjXjXjXjXjX",
"jXjXjXjXjXjXjXjXjXjXjXjXjXjXjXjXjXjXjXjXjXjXjXjXjXjXjXjXjXjXjXjXjXjXjXjXjXjXjXjXjXjXjXjXjXjXjXjXjXjX",
"jXjXjXjXjXjXjXjXjXjXjXjXjXjXjXjXjXjXjXjXjXjXjXjXjXjXjXjXjXjXjXjXjXjXjXjXjXjXjXjXjXjXjXjXjXjXjXjXjXjX",
"jXjXjXjXjXjXjXjXjXjXjXjXjXjXjXjXjXjXjXjXt @XjXjX9 q jXjX@Xr jXjXjXjXjXjXjXjXjXjXjXjXjXjXjXjXjXjXjXjX",
"jXjXjXjXjXjXjXjXjXjXjXjXjXjXjXjXjXL L U a 2.l.+.9.9.$.l.>.p D K K jXjXjXjXjXjXjXjXjXjXjXjXjXjXjXjXjX",
"jXjXjXjXjXjXjXjXjXjXjXjXjXjXjX2.W.%.@.r r 5.>.5.^.Q.;.>.6. .i %.=.J.,.jXjXjXjXjXjXjXjXjXjXjXjXjXjXjX",
"jXjXjXjXjXjXjXjXjXjXjXI K 1.*.f g h.u.- G D D l.l.l.l.X...-.9 Y.g.t.0.=.1.@.<.jXjXjXjXjXjXjXjXjXjXjX",
"jXjXjXjXjXjXjXjXjXjXjX>XJ.u q.f.x.!.l. .U G G z.z.z.x.-.-.-.#.f.l.Q.I.q.i J.&XjXjXjXjXjXjXjXjXjXjXjX",
"jXjXjXjXjXjXjXjXjXjX&X&.R.p.@X;.f.%.4.; G k.k.z.z.z.!.l.l.@.8 =.*.a.6.+Xp.E.&.$XjXjXjXjXjXjXjXjXjXjX",
"jXjXjXjXjXjXjXjXjX@X+. .}.l.;.7 , 6XtXdXyXD 7.z.z.z.z.9...7XwXwX5X8 y ;.9.{.+.+.+XjXjXjXjXjXjXjXjXjX",
"jXjXjXjXjXjXjXjXK  X2.Q.*.f.3 o.8XgX3X3X3X3XfXtXeXeXeXdX2X2X2X2XwX8X$.e d.p.Q.1..XK jXjXjXjXjXjXjXjX",
"jXjXjXjXjXjXjXjX~.f u.g.6.y f.!.%XiX3X3X3X2X3X3X2X2X2X3X3X2X2X2XwX&X}.f.s 6.g.w.f ~.jXjXjXjXjXjXjXjX",
"jXjXjXjXjXjXjXjXI.t.8.XX2 x x E z.iX3X3X3X3X2X2X2X2X2X2X2X2X2X2XeXW.' z B 3  X8.r.L.Z jXjXjXjXjXjXjX",
"jXjXjXjXjXjXjXK #.Y.9.r x ( ( G.| iX3X3X2X3X2X3X2X2X2X2X2X2X2X2XeXk.F.[ ( B p 9.Y.$.1.jXjXjXjXjXjXjX",
"jXjXjXjXjXjXjX<.t L. X, Q _ B.F.A.rX2X2X2X2X2X2X2X2X2X2X2X2X2X2XeXc.'.^._ E 1 +XL.r J.jXjXjXjXjXjXjX",
"jXjXjXjXjXjXjXH.f }.&., ` W.*XS.(.rX3X2X2X2X2X2X2X2X2X2X2X2X2X2XtX(.B.&XW.` 1 *.{.0.1.jXjXjXjXjXjXjX",
"jXjXjXjXjXjXjXH.s 6X%.k G :.G ^ /.rX2X2X2X2X2X2X2X2X2X2X2X2X2X2XtX(.^ F 4.G > *.R.a 1.jXjXjXjXjXjXjX",
"jXjXjXjXjXjXjXH. ..X7 ; n i.p./ /.uX2X2X2X2X2X2X2X2X2X2X2X2X2X2XrX(.^ %.i.F : e  X#.1.jXjXjXjXjXjXjX",
"jXjXjXjXjXjXjX@XP.y.e $ C S ' ' (.rX2X2X2X2X2X2X2X2X2X2X2X2X2X2XeX(.H H S C ; r y.P.~.jXjXjXjXjXjXjX",
"jXjXjXjXjXjXjX@XQ.7.w 5 O.C ' Y ).uX2X2X2X2X2X2X2X2X2X2X2X2X2X2XrX/.Y ' S X.0 e 7.Q.+XjXjXjXjXjXjXjX",
"jXjXjXjXjXjXjX@X.Xa.y 7 O.q D v (.dX2X2X2X2X2X2X2X2X2X2X2X2X2X2XuX/.Y b C P w y s.{.XXjXjXjXjXjXjXjX",
"jXjXjXjXjXjXjX~.>.7.w $ > 5Xf.v (.rX2X2X2X2X2X2X2X2X2X2X2X2X2X2XiX(.Y 4.5X9 $ e 7.>.Q.jXjXjXjXjXjXjX",
"jXjXjXjXjXjXjXW.#.9Xy X > I.OX^ S.rX2X2X2X2X2X2X2X2X2X2X2X2X2X2XuXV.^ 9Xd.< o y #X#.1.jXjXjXjXjXjXjX",
"jXjXjXjXjXjXjX~.u.7.p o k q M N.| iX2X2X2X2X2X2X2X2X2X2X2X2X2X2XfX| N.Y 7 z + #.~.u.Q.jXjXjXjXjXjXjX",
"jXjXjXjXjXjXjX6.0.0Xy @ ! Q G.=X| rX2X2X2X2X2X2X2X2X2X2X2X2X2XhXqXR =XG.Q ! + i oX0.3.jXjXjXjXjXjXjX",
"jXjXjXjXjXjXjXF %..Xi X & * ] :XA.uX2X2X2X2X2X2X2X2X2X2X2X2X2X%XaXM ( C.* & o a  X+.:.jXjXjXjXjXjXjX",
"jXjXjXjXjXjXjXA &.Y.g.X @ - F =XW  X2X2X2X2X2X2X2X2X2X2X2X2X2XB %Xm ( L.- # X a.Y.&.,.jXjXjXjXjXjXjX",
"jXjXjXjXjXjXjXA @.~.p.. 2 d K F.} O.2X2X2X2X2X2X2X2X2X2X2X2X2XO._.W G.K.d 2   p.|.@.,.jXjXjXjXjXjXjX",
"jXjXjXjXjXjXjXA D l.6.  <Xg K ;XM f.2X2X2X2X2X2X2X2X2X2X2X2X2X*X>Xj C.K.<X<X  4.{.P ,.jXjXjXjXjXjXjX",
"jXjXjXjXjXjXjXA  .E.Y.$ . o.Z :XM.h.3X2X2X2X2X2X2X2X2X2X2X2X3X^.sXW A.H.a . $ Y.P.o.,.jXjXjXjXjXjXjX",
"jXjXjXjXjXjXjXA %.T.o.l + # B.:XM.h.3X2X2X2X2X2X2X2X2X2X2X2X3X4XG x Z.`.+ + l $.Y.%.,.jXjXjXjXjXjXjX",
"jXjXjXjXjXjXjXA ..E.3.@ @ 8 ] :XM.h.2X2X2X2X2X2X2X2X2X2X2X2X3X3X5./ =XC.8 @ + 4.P...,.jXjXjXjXjXjXjX",
"jXjXjXjXjXjXjXA @. X5X= _ Z.D.;XS.j.2X2X2X2X2X2X2X2X2X2X2X2X2X3Xj.C.=XF.Z.N.* 5X$X@.,.jXjXjXjXjXjXjX",
"jXjXjXjXjXjXjX7  .t.>.* ! V.%X,X'.b.3X2X2X2X2X2X2X2X2X2X2X2X2X2Xl.'.>X%XA.! * >.r. .r jXjXjXjXjXjXjX",
"jXjXjXjXjXjXjXjXs.Y.w.z ~ >.G } '.b.3X3X2X2X2X2X2X2X2X2X2X2X2X2Xv.'.{ 5.>.~ j y.E.6., jXjXjXjXjXjXjX",
"jXjXjXjXjXjXjXjX9.r.{.= m s.pX^ ].x.3X2X2X2X2X2X2X2X2X2X2X2X2X2Xv.).W yXp.b : oXr.9.- jXjXjXjXjXjXjX",
"jXjXjXjXjXjXjXjX7.s.7.O n ..5.[ ) b.3X2X2X2X2X2X2X2X2X2X2X2X2X2Xv._ } n...l % 7.d.7.- jXjXjXjXjXjXjX",
"jXjXjXjXjXjXjXjX8.P.oX4 3...m.[ ) b.3X2X2X2X2X2X2X2X2X2X2X2X2X2Xv.) } m.X.3.4 T.p.8.- jXjXjXjXjXjXjX",
"jXjXjXjXjXjXjXjX8.u. X2 3...c } _ v.2X2X2X2X2X2X2X2X2X2X2X2X2X2Xv._ { h ..3.2 $Xu.8.- jXjXjXjXjXjXjX",
"jXjXjXjXjXjXjXjX;.s.a.X : *.6XN V.v.2X2X2X2X2X2X2X2X2X2X2X2X2X2Xv.V.N wX*.: X a.p.;.- jXjXjXjXjXjXjX",
"jXjXjXjXjXjXjXjX:.w.#XO > d.0XQ.) v.3X2X2X2X2X2X2X2X2X2X2X2X2X3Xf._ H.qXP.> O 9Xw.@.- jXjXjXjXjXjXjX",
"jXjXjXjXjXjXjXjX=.Y.3.O > ..D W ) v.2X2X2X2X2X2X2X2X2X2X2X2X2X2Xv.) W K D < O I.Y.<.- jXjXjXjXjXjXjX",
"jXjXjXjXjXjXjXjX*.u.#X# T ( B.'.] I.2X2X2X2X2X2X2X2X2X2X2X2X2X2Xf.] -X_.~ T # #Xt.*.jXjXjXjXjXjXjXjX",
"jXjXjXjXjXjXjXjX1.p p.t T V.[.:X^ h.2X2X2X2X2X2X2X2X2X2X2X2X2X3X1XV :X[.V.T r 6.p 1.jXjXjXjXjXjXjXjX",
"jXjXjXjXjXjXjXjX1.p &.3 T R B.`.XX1X2X2X2X2X2X2X2X2X2X2X2X2X2X2X1X@X@XW.N T 3 =.p 1.jXjXjXjXjXjXjXjX",
"jXjXjXjXjXjXjXjXU.~.-.3 i }.OXY. .jX2X2X2X2X2X2X2X2X2X2X2X2X2X2XjXu T.0X}.i 5 -.K.+XjXjXjXjXjXjXjXjX",
"jXjXjXjXjXjXjXjXK.R.d.y 7 6 jXjXjXjXjX2X2X2X2X2X2X2X2X2X2X2X3X3XjXjXjXjX4 7 y I.R.K.jXjXjXjXjXjXjXjX",
"jXjXjXjXjXjXjXjXjXjXjXjXjXjXjXjXjXjXjXjXjXjXjXjXjXjXjXjXjXjXjXjXjXjXjXjXjXjXjXjXjXjXjXjXjXjXjXjXjXjX",
"jXjXjXjXjXjXjXjXjXjXjXjXjXjXjXjXjXjXjXjXjXjXjXjXjXjXjXjXjXjXjXjXjXjXjXjXjXjXjXjXjXjXjXjXjXjXjXjXjXjX",
"jXjXjXjXjXjXjXjXjXjXjXjXjXjXjXjXjXjXjXjXjXjXjXjXjXjXjXjXjXjXjXjXjXjXjXjXjXjXjXjXjXjXjXjXjXjXjXjXjXjX"
};
