/* XPM */
static char *result[] = {
/* columns rows colors chars-per-pixel */
"50 50 170 2 ",
"   c #000000",
".  c #0C0606",
"X  c #02020C",
"o  c #0E0A0A",
"O  c #0C0804",
"+  c #140D07",
"@  c #1C0E0E",
"#  c #060614",
"$  c #131313",
"%  c #1F1818",
"&  c #261313",
"*  c #2B1615",
"=  c #25190C",
"-  c #3E2915",
";  c #0C0C25",
":  c #2A2A2A",
">  c #432C17",
",  c #412020",
"<  c #4A2525",
"1  c #532A2A",
"2  c #5D2E2E",
"3  c #533E3E",
"4  c #663333",
"5  c #753A3A",
"6  c #7A3E3C",
"7  c #6A4723",
"8  c #774F28",
"9  c #120B48",
"0  c #151540",
"q  c #0C0C53",
"w  c #1B1B50",
"e  c #151560",
"r  c #00007E",
"t  c #4A256C",
"y  c #5B2D7D",
"u  c #7A3E6E",
"i  c #6D3975",
"p  c #763B71",
"a  c gray28",
"s  c #4D4945",
"d  c #565656",
"f  c #7F4040",
"g  c #675353",
"h  c #75457A",
"j  c #666666",
"k  c gray44",
"l  c #885B2D",
"z  c #854D38",
"x  c #8E6133",
"c  c #804040",
"v  c #9C4E4E",
"b  c #9F5A45",
"n  c #9C4E5C",
"m  c #9E5358",
"M  c #A4554F",
"N  c #AC5E5E",
"B  c #B15C55",
"V  c #A56540",
"C  c #AF615C",
"Z  c #BD6855",
"A  c #9D5663",
"S  c #9E5C7C",
"D  c #884F70",
"F  c #AA5B62",
"G  c #9C6161",
"H  c #8F7A65",
"J  c #9F6570",
"K  c #AB6363",
"L  c #AC6C6A",
"P  c #BF7965",
"I  c #B66863",
"U  c #CA7D4D",
"Y  c #CC7B55",
"T  c #C27159",
"R  c #D27F58",
"E  c #D27D55",
"W  c #D68F47",
"Q  c #CF805A",
"!  c #DC8755",
"~  c #D19151",
"^  c #EA9C4E",
"/  c #E18D56",
"(  c #EA9655",
")  c #F19C55",
"_  c #F5A154",
"`  c #F9A455",
"'  c #FFAA55",
"]  c #F9A75B",
"[  c #D68F63",
"{  c #DD9667",
"}  c #E49C70",
"|  c #EAA868",
" . c #000098",
".. c #1E0F9B",
"X. c #2A1595",
"o. c #221199",
"O. c #291598",
"+. c #2D2D88",
"@. c #372295",
"#. c #0C06A4",
"$. c #0000AA",
"%. c #0F0FAA",
"&. c #120BA3",
"*. c #1B15A4",
"=. c #0707B1",
"-. c #0A0AB4",
";. c #0F0FB9",
":. c #1414BE",
">. c #1A17B4",
",. c #2727AA",
"<. c #3323AD",
"1. c #352EA3",
"2. c #3533A8",
"3. c #3A3ABD",
"4. c #3327B8",
"5. c #4A2585",
"6. c #462388",
"7. c #522B82",
"8. c #50358F",
"9. c #472A91",
"0. c #1B1BC5",
"q. c #1F1FC9",
"w. c #2323CD",
"e. c #2D2DC9",
"r. c #2B2BD5",
"t. c #3232DC",
"y. c #3A3AE4",
"u. c #6855D8",
"i. c #4141EB",
"p. c #4E4EEA",
"a. c #5252EA",
"s. c #4747F1",
"d. c #4949F3",
"f. c #4E4EF8",
"g. c #5555FE",
"h. c #5956F5",
"j. c #6356E4",
"k. c #625BF2",
"l. c #6767FF",
"z. c #805A85",
"x. c #8D8D8D",
"c. c #9C9595",
"v. c #AF9A85",
"b. c #9D9DAA",
"n. c #9595BF",
"m. c #9A9ABA",
"M. c #9A85A5",
"N. c #B295A2",
"B. c #ABABAB",
"V. c #A9A2A4",
"C. c #BFBFBF",
"Z. c #BDB6B6",
"A. c #DCAA8D",
"S. c #DFB7B0",
"D. c #EACABA",
"F. c #8A8ACC",
"G. c #8F8FC5",
"H. c #BFBFD8",
"J. c #BDBDFE",
"K. c #C5C5CF",
"L. c #DBDBDD",
"P. c #DCD3D3",
"I. c #F6E1D4",
"U. c #CACAFF",
"Y. c #D8D8E5",
"T. c #E4E4E4",
"R. c #EAEAEA",
"E. c #FEFEFF",
"W. c #FCF5F1",
"Q. c None",
/* pixels */
"Q.Q.Q.Q.Q.Q.Q.Q.Q.Q.Q.Q.Q.Q.Q.Q.Q.Q.Q.Q.Q.Q.Q.Q.Q.Q.Q.Q.Q.Q.Q.Q.Q.Q.Q.Q.Q.Q.Q.Q.Q.Q.Q.Q.Q.Q.Q.Q.Q.Q.",
"Q.Q.Q.Q.Q.Q.Q.Q.Q.Q.Q.Q.Q.Q.Q.Q.Q.Q.Q.Q.Q.Q.Q.Q.Q.Q.Q.Q.Q.Q.Q.Q.Q.Q.Q.Q.Q.Q.Q.Q.Q.Q.Q.Q.Q.Q.Q.Q.Q.Q.",
"Q.Q.Q.Q.Q.Q.Q.Q.Q.Q.Q.Q.Q.Q.Q.Q.Q.Q.Q.Q.Q.Q.Q.Q.Q.Q.Q.Q.Q.Q.Q.Q.Q.Q.Q.Q.Q.Q.Q.Q.Q.Q.Q.Q.Q.Q.Q.Q.Q.Q.",
"Q.Q.Q.Q.Q.Q.Q.Q.Q.Q.Q.Q.Q.Q.Q.Q.Q.Q.Q.Q.Q.Q.Q.Q.Q.Q.Q.Q.Q.Q.Q.Q.Q.Q.Q.Q.Q.Q.Q.Q.Q.Q.Q.Q.Q.Q.Q.Q.Q.Q.",
"Q.Q.Q.Q.Q.Q.Q.Q.Q.Q.Q.Q.Q.Q.Q.Q.Q.Q.Q.Q.Q.Q.Q.Q.Q.Q.Q.Q.Q.Q.Q.Q.Q.Q.Q.Q.Q.Q.Q.Q.Q.Q.Q.Q.Q.Q.Q.Q.Q.Q.",
"Q.Q.Q.Q.Q.Q.Q.Q.Q.Q.Q.Q.Q.Q.Q.Q.Q.Q.Q.Q.$.$.$.$.$.$.Q.Q.Q.Q.Q.$.Q.Q.Q.Q.Q.Q.Q.Q.Q.Q.Q.Q.Q.Q.Q.Q.Q.Q.",
"Q.Q.Q.Q.Q.Q.Q.Q.Q.Q.Q.Q.Q.Q.Q.Q.Q.Q.Q.Q.=.=.=.=.$.=.Q.Q.Q.Q.Q.=.Q.Q.Q.Q.Q.Q.Q.Q.Q.Q.Q.Q.Q.Q.Q.Q.Q.Q.",
"Q.Q.Q.Q.Q.Q.Q.Q.Q.Q.Q.Q.Q.Q.Q.Q.Q.Q.$.$.y.f.f.y.=.s.:.$.$.$.=.s.Q.Q.Q.Q.Q.Q.Q.Q.Q.Q.Q.Q.Q.Q.Q.Q.Q.Q.",
"Q.Q.Q.Q.Q.Q.Q.Q.Q.Q.Q.Q.Q.Q.Q.Q.Q.Q.Q.Q.:.y.t.<.p >.t.i.i.t.=.f.Q.Q.Q.Q.Q.Q.Q.Q.Q.Q.Q.Q.Q.Q.Q.Q.Q.Q.",
"Q.Q.Q.Q.Q.Q.Q.Q.Q.Q.Q.Q.Q.Q.Q.Q.Q.Q.Q.Q.$.:.:.@.Q i 4.i.g.f.t.w.Q.Q.Q.Q.Q.Q.Q.Q.Q.Q.Q.Q.Q.Q.Q.Q.Q.Q.",
"Q.Q.Q.Q.Q.Q.Q.Q.Q.Q.Q.Q.Q.Q.Q.Q.Q.Q.Q.Q.$.$...h ` B X.t.g.g.f.=.Q.Q.Q.Q.Q.Q.Q.Q.Q.Q.Q.Q.Q.Q.Q.Q.Q.Q.",
"Q.Q.Q.Q.Q.Q.Q.Q.Q.Q.Q.Q.Q.Q.Q.Q.Q.Q.Q.$.;.-.6.T ] S <.a.l.g.f.0.Q.Q.Q.Q.Q.Q.Q.Q.Q.Q.Q.Q.Q.Q.Q.Q.Q.Q.",
"Q.Q.Q.Q.Q.Q.Q.Q.Q.Q.Q.Q.Q.Q.Q.Q.Q.Q.$.=.i.w.9.I } k.h.J.U.h.g.g.:.Q.Q.Q.Q.Q.Q.Q.Q.Q.Q.Q.Q.Q.Q.Q.Q.Q.",
"Q.Q.Q.Q.Q.Q.Q.Q.Q.Q.Q.Q.Q.Q.Q.Q.Q.$.=.s.g.g.h.h.k.g.G.L.E.U.g.g.0.Q.Q.Q.Q.Q.Q.Q.Q.Q.Q.Q.Q.Q.Q.Q.Q.Q.",
"Q.Q.Q.Q.Q.Q.Q.Q.Q.Q.Q.Q.Q.Q.Q.Q.q.i.i.g.g.g.g.g.g.g.n.L.E.K.w a.e Q.Q.Q.Q.Q.Q.Q.Q.Q.Q.Q.Q.Q.Q.Q.Q.Q.",
"Q.Q.Q.Q.Q.Q.Q.Q.Q.Q.Q.Q.Q.Q.$.$.;.w.w.w.w.w.y.g.g.g.n.L.E.K.# p.0 Q.Q.Q.Q.Q.Q.Q.Q.Q.Q.Q.Q.Q.Q.Q.Q.Q.",
"Q.Q.Q.Q.Q.Q.Q.Q.Q.Q.Q.Q.Q.Q.$.$.$.$.$.$.$.$.w.g.g.g.G.T.E.C.X +.;   Q.Q.Q.Q.Q.Q.Q.Q.Q.Q.Q.Q.Q.Q.Q.Q.",
"Q.Q.Q.Q.Q.Q.Q.Q.Q.Q.Q.Q.Q.Q.Q.Q.Q.Q.$.$.$.$.0.i.g.u.M.P.E.C.O & o     Q.Q.Q.Q.Q.Q.Q.Q.Q.Q.Q.Q.Q.Q.Q.",
"Q.Q.Q.Q.Q.Q.Q.Q.Q.Q.Q.Q.Q.Q.Q.Q.Q.Q.Q.=.$.$.$.:.j.F B S.W.Z.@ M *     Q.Q.Q.Q.Q.Q.Q.Q.Q.Q.Q.Q.Q.Q.Q.",
"Q.Q.Q.Q.Q.Q.Q.Q.Q.Q.Q.Q.Q.Q.Q.Q.Q.Q.=.s.:.$.$.X.F ) ` ' ! N M ) -     Q.Q.Q.Q.Q.Q.Q.Q.Q.Q.Q.Q.Q.Q.Q.",
"Q.Q.Q.Q.Q.Q.Q.Q.Q.Q.Q.Q.Q.Q.Q.Q.Q.:.y.0.$.$.$.X.B ` ' ` ] ( ( ' b 2 Q.Q.Q.Q.Q.Q.Q.Q.Q.Q.Q.Q.Q.Q.Q.Q.",
"Q.Q.Q.Q.Q.Q.Q.Q.Q.Q.Q.Q.Q.Q.Q.Q.Q.0.g.=.$.$.$.&.7.T ) ` ' ' ` E Z Q.Q.Q.Q.Q.Q.Q.Q.Q.Q.Q.Q.Q.Q.Q.Q.Q.",
"Q.Q.Q.Q.Q.Q.Q.Q.Q.Q.Q.Q.Q.Q.Q.Q.$.-.r.$.$.$.$.$.#.y z.P ! / ` B Q.Q.Q.Q.Q.Q.Q.Q.Q.Q.Q.Q.Q.Q.Q.Q.Q.Q.",
"Q.Q.Q.Q.Q.Q.Q.Q.Q.Q.Q.Q.Q.Q.Q.Q.$.$.$.$.$.$.$.$.$.$.=.t 8 f Q.Q.Q.Q.Q.Q.Q.Q.Q.Q.Q.Q.Q.Q.Q.Q.Q.Q.Q.Q.",
"Q.Q.Q.Q.Q.Q.Q.Q.Q.Q.Q.Q.Q.Q.Q.Q.Q.Q.Q.Q.Q.Q.Q.&.&.$.#.9 .   Q.Q.Q.Q.Q.Q.Q.Q.Q.Q.Q.Q.Q.Q.Q.Q.Q.Q.Q.Q.",
"Q.Q.Q.Q.Q.Q.Q.Q.Q.Q.Q.Q.Q.Q.Q.Q.Q.Q.Q.Q.$.$.6.C [ &.p Y l   Q.Q.Q.Q.Q.Q.Q.Q.Q.Q.Q.Q.Q.Q.Q.Q.Q.Q.Q.Q.",
"Q.Q.Q.Q.Q.Q.Q.Q.Q.Q.Q.Q.Q.Q.Q.Q.Q.Q.Q.$.$.5.K P 9.u Q _ U 4   Q.Q.Q.Q.Q.Q.Q.Q.Q.Q.Q.Q.Q.Q.Q.Q.Q.Q.Q.",
"Q.Q.Q.Q.Q.Q.Q.Q.Q.Q.Q.Q.Q.Q.Q.Q.Q.Q.$.$.5.K L 8.&.n ( ' ) V     Q.Q.Q.Q.Q.Q.Q.Q.Q.Q.Q.Q.Q.Q.Q.Q.Q.Q.",
"Q.Q.Q.Q.Q.Q.Q.Q.Q.Q.Q.Q.Q.Q.Q.Q.Q.Q.$.$.z.A.N.2.#.n ( ' ' ~ a a % Q.Q.Q.Q.Q.Q.Q.Q.Q.Q.Q.Q.Q.Q.Q.Q.Q.",
"Q.Q.Q.Q.Q.Q.Q.Q.Q.Q.Q.Q.Q.Q.Q.Q.Q.Q.$.,.m.T.T.m.1.m ( ' _ { B.B.: Q.Q.Q.Q.Q.Q.Q.Q.Q.Q.Q.Q.Q.Q.Q.Q.Q.",
"Q.Q.Q.Q.Q.Q.Q.Q.Q.Q.Q.Q.Q.Q.Q.Q.Q.Q.%.b.R.E.E.R.V.A ! _ R J B.B.: Q.Q.Q.Q.Q.Q.Q.Q.Q.Q.Q.Q.Q.Q.Q.Q.Q.",
"Q.Q.Q.Q.Q.Q.Q.Q.Q.Q.Q.Q.Q.Q.Q.Q.Q.Q.Q.B.R.E.E.R.b.*.D B i 2.B.B.: Q.Q.Q.Q.Q.Q.Q.Q.Q.Q.Q.Q.Q.Q.Q.Q.Q.",
"Q.Q.Q.Q.Q.Q.Q.Q.Q.Q.Q.Q.Q.Q.Q.Q.Q.Q.Q.Q.S.Y.T.m.,.=.o.X.O.Q.: : Q.Q.Q.Q.Q.Q.Q.Q.Q.Q.Q.Q.Q.Q.Q.Q.Q.Q.",
"Q.Q.Q.Q.Q.Q.Q.Q.Q.Q.Q.Q.Q.Q.Q.Q.Q.Q.Q.Q.Q.Q.G.2.$.Q.$.0.t.Q.Q.Q.Q.Q.Q.Q.Q.Q.Q.Q.Q.Q.Q.Q.Q.Q.Q.Q.Q.Q.",
"Q.Q.Q.Q.Q.Q.Q.Q.Q.Q.Q.Q.Q.Q.Q.Q.Q.Q.Q.Q.Q.Q.Q.=.w.Q.$.t.g.Q.Q.Q.Q.Q.Q.Q.Q.Q.Q.Q.Q.Q.Q.Q.Q.Q.Q.Q.Q.Q.",
"Q.Q.Q.Q.Q.Q.Q.Q.Q.Q.Q.Q.Q.Q.Q.Q.Q.Q.Q.Q.Q.Q. .>.i.Q.$.t.g.Q.Q.Q.Q.Q.Q.Q.Q.Q.Q.Q.Q.Q.Q.Q.Q.Q.Q.Q.Q.Q.",
"Q.Q.Q.Q.Q.Q.Q.Q.Q.Q.Q.Q.Q.Q.Q.Q.Q.Q.Q.Q.Q.$ q $.>.Q. .e.p.Q.Q.Q.Q.Q.Q.Q.Q.Q.Q.Q.Q.Q.Q.Q.Q.Q.Q.Q.Q.Q.",
"Q.Q.Q.Q.Q.Q.Q.Q.Q.Q.Q.Q.Q.Q.Q.Q.Q.Q.Q.Q.  x.F.3.Y.$ X # # Q.Q.Q.Q.Q.Q.Q.Q.Q.Q.Q.Q.Q.Q.Q.Q.Q.Q.Q.Q.Q.",
"Q.Q.Q.Q.Q.Q.Q.Q.Q.Q.Q.Q.Q.Q.Q.Q.Q.Q.Q.Q.  k H.H.B.$   < 1   Q.Q.Q.Q.Q.Q.Q.Q.Q.Q.Q.Q.Q.Q.Q.Q.Q.Q.Q.Q.",
"Q.Q.Q.Q.Q.Q.Q.Q.Q.Q.Q.Q.Q.Q.Q.Q.Q.Q.Q.  1 3 d j s x = * 1 1     Q.Q.Q.Q.Q.Q.Q.Q.Q.Q.Q.Q.Q.Q.Q.Q.Q.Q.",
"Q.Q.Q.Q.Q.Q.Q.Q.Q.Q.Q.Q.Q.Q.Q.Q.Q.Q.Q.  c z 7 7 8 _ H j g < O , @ Q.Q.Q.Q.Q.Q.Q.Q.Q.Q.Q.Q.Q.Q.Q.Q.Q.",
"Q.Q.Q.Q.Q.Q.Q.Q.Q.Q.Q.Q.Q.Q.Q.Q.Q.Q.Q.  c Y ( ( ( | D.I.v.- > 6 , * & Q.Q.Q.Q.Q.Q.Q.Q.Q.Q.Q.Q.Q.Q.Q.",
"Q.Q.Q.Q.Q.Q.Q.Q.Q.Q.Q.Q.Q.Q.Q.Q.Q.Q.Q.  5 v v v m c.G U ^ ^ W + 5 v 2   Q.Q.Q.Q.Q.Q.Q.Q.Q.Q.Q.Q.Q.Q.",
"Q.Q.Q.Q.Q.Q.Q.Q.Q.Q.Q.Q.Q.Q.Q.Q.Q.Q.Q.  . . o . o o o + + + +   . o .   Q.Q.Q.Q.Q.Q.Q.Q.Q.Q.Q.Q.Q.Q.",
"Q.Q.Q.Q.Q.Q.Q.Q.Q.Q.Q.Q.Q.Q.Q.Q.Q.Q.Q.                                  Q.Q.Q.Q.Q.Q.Q.Q.Q.Q.Q.Q.Q.Q.",
"Q.Q.Q.Q.Q.Q.Q.Q.Q.Q.Q.Q.Q.Q.Q.Q.Q.Q.Q.Q.Q.Q.Q.Q.Q.Q.Q.Q.Q.Q.Q.Q.Q.Q.Q.Q.Q.Q.Q.Q.Q.Q.Q.Q.Q.Q.Q.Q.Q.Q.",
"Q.Q.Q.Q.Q.Q.Q.Q.Q.Q.Q.Q.Q.Q.Q.Q.Q.Q.Q.Q.Q.Q.Q.Q.Q.Q.Q.Q.Q.Q.Q.Q.Q.Q.Q.Q.Q.Q.Q.Q.Q.Q.Q.Q.Q.Q.Q.Q.Q.Q.",
"Q.Q.Q.Q.Q.Q.Q.Q.Q.Q.Q.Q.Q.Q.Q.Q.Q.Q.Q.Q.Q.Q.Q.Q.Q.Q.Q.Q.Q.Q.Q.Q.Q.Q.Q.Q.Q.Q.Q.Q.Q.Q.Q.Q.Q.Q.Q.Q.Q.Q.",
"Q.Q.Q.Q.Q.Q.Q.Q.Q.Q.Q.Q.Q.Q.Q.Q.Q.Q.Q.Q.Q.Q.Q.Q.Q.Q.Q.Q.Q.Q.Q.Q.Q.Q.Q.Q.Q.Q.Q.Q.Q.Q.Q.Q.Q.Q.Q.Q.Q.Q.",
"Q.Q.Q.Q.Q.Q.Q.Q.Q.Q.Q.Q.Q.Q.Q.Q.Q.Q.Q.Q.Q.Q.Q.Q.Q.Q.Q.Q.Q.Q.Q.Q.Q.Q.Q.Q.Q.Q.Q.Q.Q.Q.Q.Q.Q.Q.Q.Q.Q.Q."
};
