/* XPM */
static char *result[] = {
/* columns rows colors chars-per-pixel */
"50 50 75 1 ",
"  c #4E4E4E",
". c #5A5A5A",
"X c #979797",
"o c gray61",
"O c gray52",
"+ c gray32",
"@ c #8B8B8B",
"# c #959595",
"$ c #535353",
"% c gray49",
"& c #989898",
"* c #5B5B5B",
"= c #6C6C6C",
"- c gray60",
"; c gray43",
": c #777777",
"> c #5D5D5D",
", c #747474",
"< c gray33",
"1 c #838383",
"2 c #848484",
"3 c #585858",
"4 c #7E7E7E",
"5 c #505050",
"6 c #7C7C7C",
"7 c gray45",
"8 c gray39",
"9 c gray42",
"0 c gray44",
"q c #606060",
"w c #797979",
"e c #565656",
"r c gray56",
"t c #898989",
"y c gray53",
"u c #939393",
"i c gray40",
"p c #656565",
"a c #7B7B7B",
"s c #929292",
"d c gray48",
"f c #686868",
"g c #646464",
"h c #8D8D8D",
"j c gray54",
"k c #5F5F5F",
"l c #717171",
"z c #6D6D6D",
"x c #555555",
"c c gray37",
"v c DimGray",
"b c gray35",
"n c gray38",
"m c #676767",
"M c gray51",
"N c #9A9A9A",
"B c gray55",
"V c gray46",
"C c #767676",
"Z c #515151",
"A c #808080",
"S c gray58",
"D c gray34",
"F c #909090",
"G c #818181",
"H c #8E8E8E",
"J c gray47",
"K c gray31",
"L c gray59",
"P c gray36",
"I c gray50",
"U c #868686",
"Y c gray57",
"T c #888888",
"R c #6A6A6A",
/* pixels */
" .XoO  +@o#$  %o&*  =-o;  .XoO  +@o#$  %o&*  =-o; ",
": >,+<1 +23 4.56* 78 90 q: >,+<1 +23 4.56* 78 90 q",
"ow  erot+  you.  :ooi  p-ow  erot+  you.  :ooi  p-",
"oa  eso@+  to#.  doof  i-oa  eso@+  to#.  doof  i-",
"O+eg >h. ;+.ji f$ 1w kq lO+eg >h. ;+.ji f$ 1w kq l",
" <row  56ot5  zosx  >#oc  <row  56ot5  zosx  >#oc ",
" voou  eXoob  roog  aoo4  voou  eXoob  roog  aoo4 ",
"n 0t.5m .ui i+<h; k3 %M $n 0t.5m .ui i+<h; k3 %M $",
"-c 5 6o, $ lN2 + q-#e55$r-c 5 6o, $ lN2 + q-#e55$r",
"os  coo&x  Xooi  BooV  Coos  coo&x  Xooi  BooV  Co",
"#3 e zoi > pX: . eut+<eZ2#3 e zoi > pX: . eut+<eZ2",
"$ yXz < loA e p-O++5.ru. $ yXz < loA e p-O++5.ru. ",
" 9ooS  DXoo*  Foop  6ooA  9ooS  DXoo*  Foop  6ooA ",
"e G#i D fo: . kX45$+e@re e G#i D fo: . kX45$+e@re ",
"#3 e zoi > pX: . eut+<eZ2#3 e zoi > pX: . eut+<eZ2",
"o#  koo-e  -oov  Hoo:  Joo#  koo-e  -oov  Hoo:  Jo",
"&* + ,o; x =-4 $ .Xs$Z++@&* + ,o; x =-4 $ .Xs$Z++@",
"* :rqKc qL; c5es: bx 2@ +* :rqKc qL; c5es: bx 2@ +",
" 0ooL  3-ooP  uoom  IooM  0ooL  3-ooP  uoom  IooM ",
" <row  56ot5  zosx  >#oc  <row  56ot5  zosx  >#oc ",
"O+eg >h. ;+.ji f$ 1w kq lO+eg >h. ;+.ji f$ 1w kq l",
"oU  .#oY<  roXn  Moo;  ;NoU  .#oY<  roXn  Moo;  ;N",
"o0  $ToM5  Gore  ;ooq  kXo0  $ToM5  Gore  ;ooq  kX",
"; p%$+C $B> ,eZ2n Rc 7: .; p%$+C $B> ,eZ2n Rc 7: .",
" q-oj  $roXe  2o-c  lNo,  q-oj  $roXe  2o-c  lNo, ",
" .XoO  +@o#$  %o&*  =-o;  .XoO  +@o#$  %o&*  =-o; ",
": >,+<1 +23 4.56* 78 90 q: >,+<1 +23 4.56* 78 90 q",
"ow  erot+  you.  :ooi  p-ow  erot+  you.  :ooi  p-",
"oa  eso@+  to#.  doof  i-oa  eso@+  to#.  doof  i-",
"O+eg >h. ;+.ji f$ 1w kq lO+eg >h. ;+.ji f$ 1w kq l",
" <row  56ot5  zosx  >#oc  <row  56ot5  zosx  >#oc ",
" voou  eXoob  roog  aoo4  voou  eXoob  roog  aoo4 ",
"n 0t.5m .ui i+<h; k3 %M $n 0t.5m .ui i+<h; k3 %M $",
"-c 5 6o, $ lN2 + q-#e55$r-c 5 6o, $ lN2 + q-#e55$r",
"os  coo&x  Xooi  BooV  Coos  coo&x  Xooi  BooV  Co",
"#3 e zoi > pX: . eut+<eZ2#3 e zoi > pX: . eut+<eZ2",
"$ yXz < loA e p-O++5.ru. $ yXz < loA e p-O++5.ru. ",
" 9ooS  DXoo*  Foop  6ooA  9ooS  DXoo*  Foop  6ooA ",
"e G#i D fo: . kX45$+e@re e G#i D fo: . kX45$+e@re ",
"#3 e zoi > pX: . eut+<eZ2#3 e zoi > pX: . eut+<eZ2",
"o#  koo-e  -oov  Hoo:  Joo#  koo-e  -oov  Hoo:  Jo",
"&* + ,o; x =-4 $ .Xs$Z++@&* + ,o; x =-4 $ .Xs$Z++@",
"* :rqKc qL; c5es: bx 2@ +* :rqKc qL; c5es: bx 2@ +",
" 0ooL  3-ooP  uoom  IooM  0ooL  3-ooP  uoom  IooM ",
" <row  56ot5  zosx  >#oc  <row  56ot5  zosx  >#oc ",
"O+eg >h. ;+.ji f$ 1w kq lO+eg >h. ;+.ji f$ 1w kq l",
"oU  .#oY<  roXn  Moo;  ;NoU  .#oY<  roXn  Moo;  ;N",
"o0  $ToM5  Gore  ;ooq  kXo0  $ToM5  Gore  ;ooq  kX",
"; p%$+C $B> ,eZ2n Rc 7: .; p%$+C $B> ,eZ2n Rc 7: .",
" q-oj  $roXe  2o-c  lNo,  q-oj  $roXe  2o-c  lNo, "
};
