/* XPM */
static char *result[] = {
/* columns rows colors chars-per-pixel */
"50 50 35 1 ",
"  c #090406",
". c #140709",
"X c #341214",
"o c #341618",
"O c #492022",
"+ c #693D3F",
"@ c #542729",
"# c #3F191B",
"$ c #040204",
"% c #845254",
"& c #643234",
"* c #744244",
"= c #946264",
"- c #240E10",
"; c #6F3D3F",
": c #5F2E30",
"> c #592B2D",
", c #190B0D",
"< c #291214",
"1 c #492426",
"2 c #2F1618",
"3 c #2F1416",
"4 c #3F1D1F",
"5 c #4F2628",
"6 c #240D0F",
"7 c #39191B",
"8 c #0F0608",
"9 c #290E10",
"0 c #592D2F",
"q c #442224",
"w c #4F2729",
"e c #441D1F",
"r c #1F0B0D",
"t c #794749",
"y c #241214",
/* pixels */
" ................................................ ",
".XXXXXXXXXXXXXXXXXXXXXXXXXXXXXXXXXXXXXXXXXXXXXXXX.",
"oOXX+@@@OX@@@@@XO@@@@X#@@@@#X@@@@OX@@@@@XO@@@+XXOo",
"$.XX%&&&*=&&&&&=*&&&&=%&&&&%=&&&&*=&&&&&=*&&&%XX.$",
".XX&&&&&&&&&&&&&&&&&&&&&&&&&&&&&&&&&&&&&&&&&&&&XX.",
".XX&&&&&&&&&&&&&&&&&&&&&&&&&&&&&&&&&&&&&&&&&&&&XX.",
".XX&&&&&&&&&&&&&&&&&&&&&&&&&&&&&&&&&&&&&&&&&&&&XX.",
".XX&&&&&&&&&&&&&&&&&&&&&&&&&&&&&&&&&&&&&&&&&&&&XX.",
"-#X@;&&&:@&&&&&@:&&&&@>&&&&>@&&&&:@&&&&&@:&&&;@X#-",
",<XX%&&&1.&&&&&.1&&&&.2&&&&2.&&&&1.&&&&&.1&&&%XX<,",
".XX&&&&&&&&&&&&&&&&&&&&&&&&&&&&&&&&&&&&&&&&&&&&XX.",
".XX&&&&&&&&&&&&&&&&&&&&&&&&&&&&&&&&&&&&&&&&&&&&XX.",
".XX&&&&&&&&&&&&&&&&&&&&&&&&&&&&&&&&&&&&&&&&&&&&XX.",
".XX&&&&&&&&&&&&&&&&&&&&&&&&&&&&&&&&&&&&&&&&&&&&XX.",
".XX&&&&&&&&&&&&&&&&&&&&&&&&&&&&&&&&&&&&&&&&&&&&XX.",
"34XX%&&&56&&&&&65&&&&67&&&&76&&&&56&&&&&65&&&%XX43",
"89X@;&&&0q&&&&&q0&&&&qw&&&&wq&&&&0q&&&&&q0&&&;@X98",
".XX&&&&&&&&&&&&&&&&&&&&&&&&&&&&&&&&&&&&&&&&&&&&XX.",
".XX&&&&&&&&&&&&&&&&&&&&&&&&&&&&&&&&&&&&&&&&&&&&XX.",
".XX&&&&&&&&&&&&&&&&&&&&&&&&&&&&&&&&&&&&&&&&&&&&XX.",
".XX&&&&&&&&&&&&&&&&&&&&&&&&&&&&&&&&&&&&&&&&&&&&XX.",
"e@XX%&&&&&&&&&&X@&&&&&&&&&&&&&&&&@X&&&&&&&&&&%XX@e",
" rXet&&&&&&&&&&yw&&&&&&&&&&&&&&&&wy&&&&&&&&&&teXr ",
".XX&&&&&&&&&&&&&&&&&&&&&&&&&&&&&&&&&&&&&&&&&&&&XX.",
".XX&&&&&&&&&&&&&&&&&&&&&&&&&&&&&&&&&&&&&&&&&&&&XX.",
".XX&&&&&&&&&&&&&&&&&&&&&&&&&&&&&&&&&&&&&&&&&&&&XX.",
".XX&&&&&&&&&&&&&&&&&&&&&&&&&&&&&&&&&&&&&&&&&&&&XX.",
"oOXet&&&&&&&&&&e>&&&&&&&&&&&&&&&&>e&&&&&&&&&&teXOo",
"$.XX%&&&&&&&&&&$q&&&&&&&&&&&&&&&&q$&&&&&&&&&&%XX.$",
".XX&&&&&&&&&&&&&&&&&&&&&&&&&&&&&&&&&&&&&&&&&&&&XX.",
".XX&&&&&&&&&&&&&&&&&&&&&&&&&&&&&&&&&&&&&&&&&&&&XX.",
".XX&&&&&&&&&&&&&&&&&&&&&&&&&&&&&&&&&&&&&&&&&&&&XX.",
".XX&&&&&&&&&&&&&&&&&&&&&&&&&&&&&&&&&&&&&&&&&&&&XX.",
"-#X@;&&&:@&&&&&@:&&&&@>&&&&>@&&&&:@&&&&&@:&&&;@X#-",
",<XX%&&&1.&&&&&.1&&&&.2&&&&2.&&&&1.&&&&&.1&&&%XX<,",
".XX&&&&&&&&&&&&&&&&&&&&&&&&&&&&&&&&&&&&&&&&&&&&XX.",
".XX&&&&&&&&&&&&&&&&&&&&&&&&&&&&&&&&&&&&&&&&&&&&XX.",
".XX&&&&&&&&&&&&&&&&&&&&&&&&&&&&&&&&&&&&&&&&&&&&XX.",
".XX&&&&&&&&&&&&&&&&&&&&&&&&&&&&&&&&&&&&&&&&&&&&XX.",
".XX&&&&&&&&&&&&&&&&&&&&&&&&&&&&&&&&&&&&&&&&&&&&XX.",
"34XX%&&&56&&&&&65&&&&67&&&&76&&&&56&&&&&65&&&%XX43",
"89X@;&&&0q&&&&&q0&&&&qw&&&&wq&&&&0q&&&&&q0&&&;@X98",
".XX&&&&&&&&&&&&&&&&&&&&&&&&&&&&&&&&&&&&&&&&&&&&XX.",
".XX&&&&&&&&&&&&&&&&&&&&&&&&&&&&&&&&&&&&&&&&&&&&XX.",
".XX&&&&&&&&&&&&&&&&&&&&&&&&&&&&&&&&&&&&&&&&&&&&XX.",
".XX&&&&&&&&&&&&&&&&&&&&&&&&&&&&&&&&&&&&&&&&&&&&XX.",
"e@XX%&&&*=&&&&&=*&&&&=%&&&&%=&&&&*=&&&&&=*&&&%XX@e",
" rXX+@@@OX@@@@@XO@@@@X#@@@@#X@@@@OX@@@@@XO@@@+XXr ",
".XXXXXXXXXXXXXXXXXXXXXXXXXXXXXXXXXXXXXXXXXXXXXXXX.",
" ................................................ "
};
