/* XPM */
static char *_c0730c9abc54a85b39f0643b8939a64hauJHZpFbI0q91eQ[] = {
/* columns rows colors chars-per-pixel */
"50 50 167 2 ",
"   c None",
".  c #000101",
"X  c #060808",
"o  c #090A0B",
"O  c #0E0F12",
"+  c #0E1111",
"@  c #111415",
"#  c #131619",
"$  c #151A1B",
"%  c #1B1F21",
"&  c #1D2324",
"*  c #1F2429",
"=  c #232625",
"-  c #272927",
";  c #222529",
":  c #242B2C",
">  c #2A2D2C",
",  c #292E32",
"<  c #2C3234",
"1  c #2F3836",
"2  c #2F3539",
"3  c #2F3838",
"4  c #303537",
"5  c #343B3D",
"6  c #393E3E",
"7  c #373E41",
"8  c #393E44",
"9  c #364142",
"0  c #3C4243",
"q  c #3D4649",
"w  c #404443",
"e  c #414648",
"r  c #434B4D",
"t  c #474E53",
"y  c #484F52",
"u  c #474D58",
"i  c #455151",
"p  c #4A5354",
"a  c #4C565A",
"s  c #4F5A5A",
"d  c #515A5C",
"f  c #4F5660",
"g  c #525B62",
"h  c #556465",
"j  c #586264",
"k  c #54666E",
"l  c #5E656C",
"z  c #53686F",
"x  c #5D6F6D",
"c  c #556673",
"v  c #566973",
"b  c #596B76",
"n  c #5C6C79",
"m  c #5E707B",
"M  c #636D73",
"N  c #616E78",
"B  c #657273",
"V  c #62727D",
"C  c #6B757C",
"Z  c #6C7A7D",
"A  c #737C7F",
"S  c #657481",
"D  c #6A7481",
"F  c #677984",
"G  c #6B7D85",
"H  c #667A88",
"J  c #6D7D88",
"K  c #727D81",
"L  c #6D8186",
"P  c #6E818B",
"I  c #748384",
"U  c #788484",
"Y  c #74858C",
"T  c #798789",
"R  c #76898E",
"E  c #7C8B8D",
"W  c #6F8291",
"Q  c #748592",
"!  c #798695",
"~  c #768893",
"^  c #7B8C94",
"/  c #7C8C9A",
"(  c #7D9196",
")  c #7E9299",
"_  c #798CA0",
"`  c #7F93A0",
"'  c #818B8B",
"]  c #808D91",
"[  c #808F99",
"{  c #839296",
"}  c #889697",
"|  c #82949B",
" . c #889798",
".. c #86999D",
"X. c #88999A",
"o. c #899A9A",
"O. c #899899",
"+. c #8C9B9D",
"@. c #8C9B9F",
"#. c #8F9B9F",
"$. c #8A9A9E",
"%. c #8492A1",
"&. c #8897A3",
"*. c #8598A0",
"=. c #8799A2",
"-. c #879BA2",
";. c #879CA1",
":. c #8699A2",
">. c #899CA2",
",. c #8C9DA0",
"<. c #8E9DA0",
"1. c #8C9FA3",
"2. c #8898A4",
"3. c #8B9CA4",
"4. c #8C9EA2",
"5. c #8D9CA9",
"6. c #939EA4",
"7. c #909FA8",
"8. c #8DA0A4",
"9. c #8FA2A7",
"0. c #8EA1A4",
"q. c #8FA1A9",
"w. c #90A1A5",
"e. c #91A2A5",
"r. c #91A3A6",
"t. c #92A3A6",
"y. c #94A0A4",
"u. c #95A3A5",
"i. c #97A2A7",
"p. c #93A4A6",
"a. c #93A5A7",
"s. c #92A4A7",
"d. c #95A4A7",
"f. c #94A5A7",
"g. c #91A3A6",
"h. c #93A5A8",
"j. c #94A5A9",
"k. c #96A5A8",
"l. c #94A6A8",
"z. c #95A6A9",
"x. c #96A7A9",
"c. c #94A6AA",
"v. c #95A7AA",
"b. c #95A7AB",
"n. c #96A6AA",
"m. c #96A7AA",
"M. c #96A7AB",
"N. c #96A4AD",
"B. c #96A6AD",
"V. c #96A5AE",
"C. c #96A7AE",
"Z. c #94A6AA",
"A. c #98A4A9",
"S. c #9CA6AB",
"D. c #96A8AB",
"F. c #97A8AB",
"G. c #96A9AB",
"H. c #95AAAA",
"J. c #97A8AC",
"K. c #97A9AC",
"L. c #96AAAC",
"P. c #96A9AC",
"I. c #99A8AA",
"U. c #98A9AC",
"Y. c #99A9AC",
"T. c #9BAAAD",
"R. c #99AAAD",
/* pixels */
"                                                                                                    ",
"                                                                                                    ",
"                                                                                                    ",
"                                                                                                    ",
"                                                                                                    ",
"                                                                                                    ",
"                                                                                                    ",
"                  . . . . . . . . . . . . . . . . . . . . . . . . . . . . . . . . .                 ",
"        . . . . . . . . . X X X . . . . . . . . . . . . . . . . . . . . . . . . . . . . .           ",
"      . . . + = 6 r p a s s s s d a p p a s s s s s d s s p p a p i y r r r i p r 3 & o . . .       ",
"    . . O 2 j A ' { } } } } } } O.o.O.O.} } } } O.}  .}  .} } } X. .O. .O.X.} X.O.] A j 1 o . .     ",
"  . . o 2 j ' #.6.i.u.a.a.a.a.a.a.b.a.a.a.a.a.a.a.a.a.a.a.p.a.a.a.a.u.u.u.a.a.c.U.U.u.{ B 7 o . .   ",
"  . X > s K <.b.T.T.G.H.U.G.G.G.N.N.N.L.U.u.G.b.b.G.G.U.G.x.x.x.b.S.b.b.G.x.G.c.U.G.b.#.R j : . . . ",
". . & p C ] t.b.c.i.8...| { ( ( ( ( ) ) ( / ( ( ( ( ^ / ( ^ ( ( ( / ( ( ( ( ) ..w.t.9.X.T B i * . . ",
". . e K | >.1.2.( R L L V m b b n n n n n n n n b n n n n n b n n n n n m n m F Y ^ ..-.| R D q o . ",
". o d } 1.2./ R F V m b b v z z v v c c c v c v c v v c c c v v v v v n v v v b m G ^ | ,.+.] a @ . ",
". @ M <.>.) ~ L S S V V m m S V m S m S S S N S S S S S N D D S S S S D D J D S S H J %.w.A. .l = . ",
". @ B o.a.-.| ) ) ( ( ^ ^ ~ ~ ~ ~ ~ ~ W ! ! ! ! [ J ! ! ! J [ J ! ! J J %.J %.J J J ! [ b.b.o.M - . ",
". @ Z 8.U.U.L.G.9.q.2...( ~ R ~ Q ~ ~ ~ ~ ~ ~ ~ J ! ! Q J J J %.~ ~ ~ ! J J J _ *.2.r.N.U.N.#.B - . ",
". $ Z <.b.b.8.X.( ^ Y P S m b N S m S m V m n N D S n S S S S S S n n n S S S H P / 3.r.T.U.o.B > . ",
". $ Z 8.9...R L m B m n b n n n b n n n n b n n c S S S S c S c v n n b n c c c n H ~ ..a.G.o.B > . ",
". $ Z 8.$.^ P F F V Z V F H H F H H H H H H H H S H H H H H H H H H F F S m n S S H Y | 8.G.O.B > . ",
". - I <.a.8.;.| :.:.) ) / / ) / _ _ _ _ / _ _ _ _ _ %._ %._ _ J _ / _ _ / Q ~ Q ^ ] ) %.a.U.o.C < . ",
". < I w.c.c.q.9.-.-.:.) ~ W P Q W W W W J Q W W J H J J J _ J J Q W Y J P W P ~ | &.1.r.b.U.w.A 5 . ",
". 3 J +.t.9.>.| R P F V m b b n n n n b n n n v S S n v n n b b b b n n b n m S G ^ >.9.b.G.<.U 6 . ",
". 5 I <.8.$.( L m x v k z v v z c v v v v v v v c c v v v b v v v v v v v v c c b S R ..w.u.<.U 5 . ",
"X 5 I <.$.| R I L Z L Z G K L L P P L L J J G J H J J G G L L L G J J L L Z S F H S J E 8.G.8.U 5 . ",
"X 7 I <.8.-.....| { ( ( | | | ) ) ) { | ( | | | / / | ) | ) | ) | | | | ..( ( ( / ( / O.w.U.8.T 4 . ",
"X 9 T ,.G.G.c.c.8.>.X.| ^ ~ R J R Y R R Q R Y R R R Q ~ R R R ~ ~ R Q ~ ^ { | ..8.b.S.G.T.L.<.I 4 . ",
". 9 T 0.G.x.q...( Y J F V v c c z v v k v c v k k v k c z v v k c c c v n V S J R o.9.L.U.b.9.Y 5 . ",
". 6 T ,.0...( L b z k c c v c c c c v c c c c c v c c c c c c c c c v c n c v v b V ~ | a.b.t.R w . ",
". 1 U <.| P Z V V m b n n n S n n n S N n S S n N N n n n S N n n n S S m S V V m m H I <.b.+.I q . ",
". , I 8.t.<.| ) | | | | / ! ! / / / / / / / / Q _ / / / / / / / / ^ ! / / / / / / ^ ( | c.c.<.I 0 . ",
". , K <.b.c.c.9.5.9.5.2./ ^ ! ! / Q Q Q Q Q _ ! ! ! Q ! Q ~ ! ! ~ ! ~ ~ ~ ^ ! [ X.$.8.a.G.b.8.I 5 . ",
". < I 8.L.b.q.>.( Y J H S n n n n n n n n S c c c S n n n v c n n v n n v n m Z L ( >.c.U.G.| B > . ",
". & Z <.8.X.R L m b v v c n c c c c c c c c c c c c c c c v c c c v v c v v k k v C R ) 8.O.L g ; . ",
". # V | o./ P G F G G G H J J H J H G P H L H P H H G G G H J J G J F Z C B x x x B J ~ ( R M u * . ",
". @ N R R R ( { | %.| | | *.| | | | | | | | ..| %._ *.| | %.%.%.%.| | | ( ^ E R Y R ^ ) | ! D d % . ",
". O d C Y ( 9.G.S.b.b.u.i.b.c.c.u.G.a.c.c.G.u.u.b.b.b.i.N.N.C.L.N.N.N.b.c.u.b.G.G.b.N.N.S.6.K u o . ",
". . : a C { u.U.S.S.S.S.S.S.T.S.S.S.U.S.S.S.S.S.S.S.S.S.T.U.U.T.T.N.b.b.U.U.U.U.U.T.T.T.6.Y f : . . ",
"  . . @ 5 d K ' E ' ' ' ' ' ' ' ' ' ' ' ' ' ' ' ' ' ' ' ' ' ] E ] E E E ' E E ' ' ] ^ K l 8 # X .   ",
"    . . X # < 5 9 q q w 0 8 0 w q 0 w 0 w w w 0 0 0 0 0 0 0 8 7 0 0 0 0 0 6 6 5 9 0 8 7 ; O . . .   ",
"      . . . . . . . . . . . . . . . X . . . . . . . . . . . . . . . . . . . . . . . . . . . . .     ",
"              . . . . . . . . . . . . . . . . . . . . . . . . . . . . . . . . . . . . . . .         ",
"                                                                                                    ",
"                                                                                                    ",
"                                                                                                    ",
"                                                                                                    ",
"                                                                                                    ",
"                                                                                                    "
};
