/* XPM */
static char *e61cf91b95ac4e25dad0c4703954525e2EBbH8FVXbBUl4On[] = {
/* columns rows colors chars-per-pixel */
"50 50 136 2 ",
"   c #3E3A36",
".  c #3F3D3C",
"X  c #423E3B",
"o  c #46413E",
"O  c #49433E",
"+  c #464342",
"@  c #4A4643",
"#  c #4D4946",
"$  c #4D4B4A",
"%  c #514B46",
"&  c #524E4B",
"*  c #55514D",
"=  c #59534E",
"-  c #4F4F51",
";  c #504F50",
":  c #555352",
">  c #5A5652",
",  c #5B5855",
"<  c #5D5854",
"1  c #5E5855",
"2  c #5E5955",
"3  c #5F5A55",
"4  c #5C5856",
"5  c #5C5956",
"6  c #5D5956",
"7  c #5C5857",
"8  c #5D5957",
"9  c #5D5A57",
"0  c #5E5A56",
"q  c #5E5B57",
"w  c #5D5955",
"e  c #565659",
"r  c #52555A",
"t  c #585759",
"y  c #57585A",
"u  c #5A5858",
"i  c #5B5B5B",
"p  c #5C5958",
"a  c #5C5A58",
"s  c #5E5B58",
"d  c #5F5B58",
"f  c #5C5A5A",
"g  c #5D5B5B",
"h  c #5F5C59",
"j  c #5A5A5C",
"k  c #5E5C5C",
"l  c #5F5E5D",
"z  c #5C5D5E",
"x  c #5D5B5B",
"c  c #615953",
"v  c #605A54",
"b  c #605B57",
"n  c #615C57",
"m  c #655C56",
"M  c #615B55",
"N  c #615D59",
"B  c #605D5A",
"V  c #625D5A",
"C  c #635E5B",
"Z  c #635F5B",
"A  c #645F59",
"S  c #655E5A",
"D  c #655F5A",
"F  c #615D5C",
"G  c #615E5C",
"H  c #625E5D",
"J  c #625F5D",
"K  c #605E5F",
"L  c #625F5E",
"P  c #645E5C",
"I  c #625D5A",
"U  c #685F59",
"Y  c #67615B",
"T  c #65605D",
"R  c #66605D",
"E  c #64615F",
"W  c #66615E",
"Q  c #66615F",
"!  c #67625F",
"~  c #67635F",
"^  c #65615D",
"/  c #68615C",
"(  c #68625D",
")  c #69635D",
"_  c #5E5E60",
"`  c #605F60",
"'  c #636161",
"]  c #626162",
"[  c #646161",
"{  c #656260",
"}  c #656361",
"|  c #666361",
" . c #646262",
".. c #656362",
"X. c #646263",
"o. c #636264",
"O. c #656465",
"+. c #676464",
"@. c #646362",
"#. c #686360",
"$. c #686460",
"%. c #696460",
"&. c #6B6561",
"*. c #6B6661",
"=. c #6C6662",
"-. c #6D6663",
";. c #6D6763",
":. c #6B6664",
">. c #6A6766",
",. c #6C6764",
"<. c #6A6663",
"1. c #6E6862",
"2. c #6B6865",
"3. c #6F6966",
"4. c #6D6965",
"5. c #636469",
"6. c #666669",
"7. c #686668",
"8. c #686769",
"9. c #66686E",
"0. c #67686B",
"q. c #6D6A69",
"w. c #6D6B6E",
"e. c #6D6B6A",
"r. c #726B66",
"t. c #706E6D",
"y. c #716F6F",
"u. c #726D6A",
"i. c #75706D",
"p. c #78736F",
"a. c #676A71",
"s. c #6C6C71",
"d. c #716F71",
"f. c #737171",
"g. c #767372",
"h. c #797574",
/* pixels */
"* & c 2 2 > & > , > g Y 1.&.#.~ > > z : : # % & $ @ @ $ % + @ # % & # o X @ & $ @ @ % > = & # % > & ",
"K = = > 2 ' > e 2 i +.E ~ C ~ w.: : : > _ & # @ # e # + @ O : % % % # > % @ + @ > & @ % = g # # # $ ",
"A = > = 4.) h X.[ q.&., ' K u.4.u g g >.&.& : & g q @ $ # : h $ # # > [ * % + & 1 # % % K #.# & & e ",
"= = = c > c K K ~ , * , C K C 2 [ K > * & & $ & $ @ $ $ # @ # % % % # # % @ + X X + @ % % % # = : % ",
"1 b #.> v 2 g t.C , e h f.~ ,.,.[ d.2 > : : +.# ; $ $ ] * * & ; g % # # # K @ # # @ ` # % * = [ = * ",
"1 > A v > 2 > ( C 2 > = Y &.=.=.A =.~ 2 e $ = > & # + = : $ # O & : # @ + % : # + @ = : % * = = > % ",
"5.C = & : X.A c = < a.v = c m s.P > = > 0.> * # $ r $ # @ @ r + + + O r $ @ + + ; - # + & k : % * > ",
"( > = & g.r.v C < u.u.) ) ) g.r.> g > t.r.> > * E ^ @ * $ z } . @ # > [ @ $ # r ` @ $ $ K u.* : > K ",
"= 1 * & $ * ~ ~ v = c #.( m c c 2 g 2 % * > e $ # @ $ * $ O $ $ # # + o # # & $ @ $ $ % # * , 2 = & ",
"= 1 [ > > e z g.A v b [ g.( ( ( i +.2 : : i X.$ * * & ^ * * > * g # % # ; ` % * * $ _ & = > > &.> & ",
"> = Y ~ , , 2 ( ,.P b > Y =.( [ = v A : * % : i ; : % < q * : $ & 2 & & % % g & & & % C & = & = n % ",
">.A = * C +.K C A #.g.> 2 2 c 0.v v : 2 6.: $ # & z a * % * ' * & % = K & % # % j : % % = v * * % = ",
") = C v h.i.E E P g.u.= z C h.4.b [ [ g.r.$ $ $ z ) = v * E r.* 1 1 [ r.& 1 > z #.% > * Y i.% * > A ",
"= = v > * > K z g 1 v C g > h > ' ' K > : : - $ % = c v = * 2 ~ C v : = : 2 : # & * : * & & * * > = ",
"2 E [ * > , i g.2 g C ' w.g z > E w.g , , > 6.* : , , q.c , C E w.= > > > >.> > , * +.% * * - ' = = ",
", > Y g C ~ n ( A P C > ) h > e : Y [ i C > 2 , : 2 c Y ~ 2 2 > b b : & % > z > > > = , * * # * b * ",
"P : & & b q.=.A C h 0.Y C n C +.> : * 2 } h : & $ z , > = = q.v * % * z > & # % ' 2 $ # * > & % & * ",
"#.: : ; q.u.r.=.v e.u.m ~ ~ p.r.> , 2 e.u.: : * z } > C A >.g.v , * z u.2 h % e 2.* $ $ i q.* : > b ",
"* > ; & 1 > =.) < v < ) m n Y = v > 2 2 = > * ; * & > ( ( A m c > : * & > 2 : * * : $ $ * > & * = & ",
": 7 _ & > A [ t.m ) ) +.i.m C 2 h q.2 2 , z +.; - & e u.v 2 v C +.* : : : w.v 2 * $ o.: 2 h e 6.> : ",
"& % P 2 e g = ) ( ) ) c ) 1.n 2 = ) ) < < * q a $ & = ( #.: : % 2 K : : # A ,.> * % > ~ > > * > &.> ",
"z : & : i q.~ > = ) d.v , , n } c c = > ] : $ % : g : & % & _ : $ $ * j $ # & : _ > & & * _ > > > 1 ",
">.> u > t.h.&.~ < q.g.* : : +.i.> m m u.g.2 e , [ u.> 1 & u t.$ - & j d.$ : : 1 t.= : = K g.2 g 7 F ",
"* > g z < 2 C C > * & * $ $ * = c c m = m m < , > m A 1 : & @ ; : : & # & : ; # # = > > * = = : & & ",
"2 [ q.=.P ~ k >.> = > y _ $ $ , 2 2.) ) ) [ 6.> v ( Y >.> : * e z * = * : z & % * : >.c = > 1 [ : * ",
"> > =.r.&.b & A v 2 > % q : $ > * Y ) ~ &.A Y C m A > K A > > * < 2 2 : # * 2 : : > A ( > c : > A > ",
"K > = v ( [ 1 ; * 1 ' : * # $ ' = % & g 0.P = % v [ g % & = P 1 & % > K : @ @ % K A > % * c c = & c ",
") > A C h.r.= 1 * &.1.> g * 2.&.$ $ & q.r.2 , * &.4.= > * [ r.> n m =.r.& * % e =.: 1 : #.u.= : 1 ` ",
"= : > > v > > v = > = v C : > % & $ $ : * > u * * * : > * & * 1 2 n 2 * % e # $ % $ > & = = & * & : ",
"& > K > 1 1 z q.= , : z +.> * & i z % = > j 6.% & = g ` * & : i +.) ~ = i 5.& ; & $ 5.= > : > z & 1 ",
": # A m : c * ) 2 * : $ ~ C > > % ^ ~ & * # > g = > = ( A = : % A &.b i % 2 F & # % 1 K & * % : C : ",
"_ $ & * c >.c * * * ` % # $ * ` % % % : ' & # # & _ v v : = k % $ % * ' & $ @ # : : % O # u % % % % ",
"K * > = u.r.= = * z q.& : * +.>.% : & E } $ $ $ j [ = C > E &.@ # - a 6.# @ # - z $ * % a 4.* % & : ",
"% = = c * c > = = % % & $ $ % = % * $ $ % $ # $ # # % * % @ o + . + o O + + + . @ @ = % @ # % % # @ ",
"* h E = 2 > y ' = > > : z % > z , z $ $ $ : j $ $ # * g # # + $ r o # @ $ y & # # # z $ $ $ $ _ # & ",
"* * &.C i > & E 2 > : @ C i : : * Y , # # + * $ @ $ % C g % $ @ > : $ $ # ^ l @ $ @ , a $ $ + : b % ",
"g = = = , ' > * * * e $ @ $ : y $ # # $ r # @ @ @ r : & = = , @ O O @ - ; & & & : # @ # $ : * * % & ",
"&.2 g = u.e.: - : ` &.$ $ $ o.2.$ : : ` } @ $ $ e [ : > > K 1.O @ O $ ` & & * , } # # # , 4.* * = V ",
"= < < : = & $ - $ * # $ ; & * # $ $ * * + @ # # # % > & % * % @ + o + O O # & # # @ @ # $ % $ % * & ",
"v >.E % * $ r _ # : : z z & % $ - j $ > $ r _ % @ % > z & & # e r o O O & : O O O @ h O # % i _ % & ",
"> = ( 2 : & # v : , > % Y 2 : * % 2 C > * # < 1 # % # g g & % O * % + @ + * # + + o = : # # % : 1 & ",
"C 1 % * % : : % * > h * % * > : % # % * e # # % # & % # # & & + X X + # @   X @ @ @ O # # % % % % : ",
"4.1 2 : q.q.= : > 4.u.= , = } i.> : = #.q.* = % g ~ % # # : ,.+ @ o # ` o X + $ z @ # % b u.% : : b ",
"= > 2 * = & * * > > * = < * , * > > v : # & % % % # % + + % O + + X +   . + @ @ o o @ % & % % & & : ",
"* K &.> * > i [ > : : g } = * : C >.v = % i ' % % # $ e + o O @ & O @ + @ ; @ + o + e % % & t k # # ",
"* > u.&.2 1 & 4.C > 1 > r.) h , = r.&.: : = ~ C * % + v : + @ O > > % @ X * & + @ O = C & > : b 1 $ ",
"k 2 * % * g , % * b 7.A = = < [ = % % = ` v c % = : # X X + ; O @ + @ & & + X o & & O O & K > : $ % ",
"[ < > * >.7.: 2 2 q.g.n n < u.i.c : & #.t.v v = C [ # @ @ & E @ & % = >.% # @ # ' % # & > q.: : & ; ",
"* : > = > * * : : 1 v ( ) = v m v 1 * * = v > & & % # + + @ @ % & % % % @ # # + @ @ # # # % $ $ @ $ ",
"% 2 C 1 C > e y * > m q.u.m A A K _ > > > h [ % # % & : + + @ : > O % @ % : # o + @ > + % & - t $ $ "
};
